<svg xmlns="http://www.w3.org/2000/svg" width="18.962" height="116.911" viewBox="0 0 18.962 116.911"><defs><style>.a{fill:none;stroke:#f0dadb;stroke-linecap:round;stroke-miterlimit:10;stroke-width:1.4px;}</style></defs><g transform="translate(0.813 115.956) rotate(-90)"><g transform="translate(0.012 10.355)"><g transform="translate(0)"><path class="a" d="M114.988,6.838l-9.161-5.283a10.448,10.448,0,0,0-10.405-.019L91.449,3.807a10.447,10.447,0,0,1-10.405-.019L77.08,1.5a10.448,10.448,0,0,0-10.405-.019L62.7,3.754A10.448,10.448,0,0,1,52.3,3.735L48.333,1.45a10.447,10.447,0,0,0-10.405-.019L33.955,3.7a10.448,10.448,0,0,1-10.406-.019L19.586,1.4A10.448,10.448,0,0,0,9.18,1.378L0,6.627"/></g></g><g transform="translate(0 0)"><path class="a" d="M77.08,1.5a10.448,10.448,0,0,0-10.405-.019L62.7,3.754A10.448,10.448,0,0,1,52.3,3.735L48.333,1.45a10.447,10.447,0,0,0-10.405-.019L33.955,3.7A10.447,10.447,0,0,1,23.55,3.683L19.586,1.4A10.448,10.448,0,0,0,9.18,1.378L0,6.627"/></g></g></svg>