<?xml version="1.0" standalone="no"?>
<!DOCTYPE svg PUBLIC "-//W3C//DTD SVG 1.1//EN" "http://www.w3.org/Graphics/SVG/1.1/DTD/svg11.dtd" >
<svg xmlns="http://www.w3.org/2000/svg" xmlns:xlink="http://www.w3.org/1999/xlink" version="1.1">
<metadata>
Created by FontForge 20170731 at Mon Dec 19 19:18:53 2016
 By Aleksey,,,
Copyright \(c\) 2016 by Zetafonts. All rights reserved.
</metadata>
<defs>
<font id="CocogoosePro-SemiLight" horiz-adv-x="589" >
  <font-face 
    font-family="Cocogoose Pro SemiLight"
    font-weight="300"
    font-stretch="normal"
    units-per-em="1920"
    panose-1="0 0 5 0 0 0 0 0 0 0"
    ascent="1536"
    descent="-384"
    x-height="1225"
    cap-height="1426"
    bbox="-388 -605 2664 1988"
    underline-thickness="96"
    underline-position="-288"
    unicode-range="U+000D-FB04"
  />
<missing-glyph horiz-adv-x="602" 
d="M540 56q-135 0 -246.5 66.5t-175.5 178t-64 240.5q0 135 66.5 247t178 176.5t241.5 64.5q136 0 247 -68t174.5 -180.5t63.5 -239.5q0 -114 -46.5 -209.5t-127.5 -162t-181 -96.5q-61 -17 -130 -17zM540 989q-126 0 -228 -61.5t-160 -164.5t-58 -222t59 -222.5t161.5 -165
t225.5 -61.5q121 0 223.5 60.5t163 163.5t60.5 225q0 106 -44.5 195t-119.5 149.5t-166 86.5q-56 17 -117 17zM394 918q69 27 146 27q76 0 144.5 -27.5t121.5 -76.5h-537q56 50 125 77zM917.5 404q-23.5 -65 -66.5 -120h-536l524 528q102 -126 102 -271q0 -72 -23.5 -137z
M163.5 395q-25.5 69 -25.5 146q0 142 90 256h534l-524 -526q-49 55 -74.5 124zM684 165q-69 -27 -144 -27t-143.5 27t-125.5 75h539q-57 -48 -126 -75z" />
    <glyph glyph-name="ff" unicode="ff" horiz-adv-x="1411" 
d="M62 865q-15 0 -24.5 9t-9.5 26v172q0 17 9.5 25.5t24.5 8.5h150v113q0 117 44 215t135 157.5t227 59.5q32 0 42.5 -11t10.5 -37v-169q0 -24 -12.5 -34.5t-39.5 -10.5q-53 0 -81.5 -22.5t-39 -66t-10.5 -116.5v-78h408v113q0 117 44 215t135 157.5t227 59.5q32 0 42.5 -11
t10.5 -37v-169q0 -24 -12.5 -34.5t-39.5 -10.5q-53 0 -81.5 -22.5t-39 -66t-10.5 -116.5v-78h148q34 0 34 -34v-172q0 -35 -34 -35h-148v-827q0 -38 -37 -38h-201q-38 0 -38 38v827h-408v-827q0 -38 -37 -38h-201q-38 0 -38 38v827h-150z" />
    <glyph glyph-name="fi" unicode="fi" horiz-adv-x="1261" 
d="M62 865q-16 0 -25.5 9t-9.5 26v172q0 16 10 25t25 9h150v113q0 117 44 215t135 157.5t227 59.5q32 0 42.5 -11t10.5 -37v-169q0 -24 -12.5 -34.5t-39.5 -10.5q-53 0 -81.5 -22.5t-39 -66t-10.5 -116.5v-78h624q34 0 34 -34v-1033q0 -39 -37 -39h-205q-38 0 -38 39v826
h-378v-827q0 -38 -37 -38h-201q-38 0 -38 38v827h-150zM874 1617q14 22 44 23l161 1q41 1 59 -19t18 -59v-119q0 -42 -18.5 -61.5t-58.5 -18.5l-161 1q-24 1 -41 19.5t-17 42.5v135q0 33 14 55z" />
    <glyph glyph-name="ffi" unicode="ffi" horiz-adv-x="1952" 
d="M488 38q0 -38 -37 -38h-201q-38 0 -38 38v827h-150q-15 0 -24.5 9t-9.5 26v172q0 17 9.5 25.5t24.5 8.5h150v113q0 117 44 215t135 157.5t227 59.5q32 0 42.5 -11t10.5 -37v-169q0 -24 -12.5 -34.5t-39.5 -10.5q-53 0 -81.5 -22.5t-39 -66t-10.5 -116.5v-78h408v113
q0 117 44 215t135 157.5t227 59.5q32 0 42.5 -11t10.5 -37v-169q0 -24 -12.5 -34.5t-39.5 -10.5q-53 0 -81.5 -22.5t-39 -66t-10.5 -116.5v-78h620q34 0 34 -34v-1033q0 -39 -37 -39h-205q-38 0 -38 39v826h-374v-827q0 -38 -37 -38h-201q-38 0 -38 38v827h-408v-827z
M1554 1610q14 22 44 23l161 1q41 1 59 -19t18 -59v-119q0 -42 -18.5 -61.5t-58.5 -18.5l-161 1q-24 1 -41 19.5t-17 42.5v135q0 33 14 55z" />
    <glyph glyph-name="f_j" unicode="fj" horiz-adv-x="1261" 
d="M928 1655h167q55 0 55 -61v-168q0 -30 -13.5 -42t-41.5 -12h-167q-60 0 -60 54v168q0 61 60 61zM488 865v-827q0 -38 -37 -38h-201q-38 0 -38 38v827h-150q-16 0 -25.5 9t-9.5 26v172q0 16 10 25t25 9h150v113q0 117 44 215t135 157.5t227 59.5q32 0 42.5 -11t10.5 -37
v-169q0 -24 -12.5 -34.5t-39.5 -10.5q-53 0 -81.5 -22.5t-39 -66t-10.5 -116.5v-78h618q38 0 38 -41v-1055q0 -113 -53 -205.5t-153.5 -146.5t-237.5 -54q-27 0 -43 11.5t-16 25.5v142q0 18 9 31.5t40 13.5q94 0 135 53.5t41 150.5v833h-378z" />
    <glyph glyph-name="f_f_j" unicode="ffj" horiz-adv-x="1967" 
d="M1602 1655h167q55 0 55 -61v-168q0 -30 -13.5 -42t-41.5 -12h-167q-60 0 -60 54v168q0 61 60 61zM1162 865v-827q0 -38 -37 -38h-201q-38 0 -38 38v827h-398v-827q0 -38 -37 -38h-201q-38 0 -38 38v827h-150q-15 0 -24.5 9t-9.5 26v172q0 17 9.5 25.5t24.5 8.5h150v113
q0 117 44 215t135 157.5t227 59.5q32 0 42.5 -11t10.5 -37v-169q0 -24 -12.5 -34.5t-39.5 -10.5q-53 0 -81.5 -22.5t-39 -66t-10.5 -116.5v-78h398v113q0 117 44 215t135 157.5t227 59.5q32 0 42.5 -11t10.5 -37v-169q0 -24 -12.5 -34.5t-39.5 -10.5q-53 0 -81.5 -22.5
t-39 -66t-10.5 -116.5v-78h618q38 0 38 -41v-1055q0 -113 -53 -205.5t-153.5 -146.5t-237.5 -54q-27 0 -43 11.5t-16 25.5v142q0 18 9 31.5t40 13.5q94 0 135 53.5t41 150.5v833h-378z" />
    <glyph glyph-name=".notdef" horiz-adv-x="602" 
d="M540 56q-135 0 -246.5 66.5t-175.5 178t-64 240.5q0 135 66.5 247t178 176.5t241.5 64.5q136 0 247 -68t174.5 -180.5t63.5 -239.5q0 -114 -46.5 -209.5t-127.5 -162t-181 -96.5q-61 -17 -130 -17zM540 989q-126 0 -228 -61.5t-160 -164.5t-58 -222t59 -222.5t161.5 -165
t225.5 -61.5q121 0 223.5 60.5t163 163.5t60.5 225q0 106 -44.5 195t-119.5 149.5t-166 86.5q-56 17 -117 17zM394 918q69 27 146 27q76 0 144.5 -27.5t121.5 -76.5h-537q56 50 125 77zM917.5 404q-23.5 -65 -66.5 -120h-536l524 528q102 -126 102 -271q0 -72 -23.5 -137z
M163.5 395q-25.5 69 -25.5 146q0 142 90 256h534l-524 -526q-49 55 -74.5 124zM684 165q-69 -27 -144 -27t-143.5 27t-125.5 75h539q-57 -48 -126 -75z" />
    <glyph glyph-name=".null" horiz-adv-x="0" 
 />
    <glyph glyph-name=".null" horiz-adv-x="0" 
 />
    <glyph glyph-name="nonmarkingreturn" unicode="&#xd;" horiz-adv-x="601" 
 />
    <glyph glyph-name="space" unicode=" " horiz-adv-x="601" 
 />
    <glyph glyph-name="exclam" unicode="!" 
d="M178 1570.5q10 10.5 29 10.5h203q37 0 37 -39v-1079q0 -40 -37 -40h-203q-19 0 -29 10.5t-10 28.5v1080q0 18 10 28.5zM172.5 285q11.5 11 27.5 11h215q22 0 31 -13t9 -27v-215q0 -22 -13 -30.5t-27 -8.5h-215q-13 0 -26 9t-13 30v213q0 20 11.5 31z" />
    <glyph glyph-name="quotedbl" unicode="&#x22;" horiz-adv-x="822" 
d="M161 1426h136q21 0 28 -11t7 -29v-366q0 -19 -7.5 -27t-24.5 -8h-147q-19 0 -24.5 9.5t-5.5 28.5v363q0 40 38 40zM515 1426h136q21 0 28 -11t7 -29v-366q0 -19 -7.5 -27t-24.5 -8h-147q-19 0 -24.5 9.5t-5.5 28.5v363q0 40 38 40z" />
    <glyph glyph-name="numbersign" unicode="#" horiz-adv-x="1123" 
d="M1082.5 1059.5q9.5 -8.5 9.5 -23.5q0 -6 -1 -10l-29 -136q-4 -17 -18.5 -31t-33.5 -14h-128l-54 -255h128q15 0 25 -8t10 -22q0 -4 -2 -12l-29 -135q-3 -17 -18 -32t-34 -15h-128l-69 -324q-9 -42 -53 -42h-136q-36 0 -36 29q0 3 2 13l69 324h-163l-69 -324
q-9 -42 -55 -42h-135q-36 0 -36 29q0 3 2 13l69 324h-113q-36 0 -36 31q0 4 2 16l29 135q9 42 53 42h113l54 255h-113q-36 0 -36 30q0 3 2 15l29 136q9 42 53 42h113l66 315q4 18 18 30.5t34 12.5h135q15 0 26.5 -9.5t11.5 -23.5q0 -7 -1 -10l-66 -315h163l66 315
q4 18 18 30.5t34 12.5h136q14 0 25 -9.5t11 -23.5q0 -7 -1 -10l-66 -315h128q15 0 24.5 -8.5zM605 590l54 255h-163l-54 -255h163z" />
    <glyph glyph-name="dollar" unicode="$" horiz-adv-x="1235" 
d="M96 261q0 16 15 30l129 126q12 11 25 11q16 0 41 -21q169 -165 343 -165q125 0 186 46.5t61 140.5q0 56 -45.5 95t-102.5 59.5t-136 41.5q-239 71 -353 175t-114 264q0 149 99 248t274 129v131q0 32 31 32h145q32 0 32 -32v-125q109 -13 209 -62t170 -123q17 -19 17 -36
t-18 -38l-110 -123q-13 -12 -27 -12q-18 0 -46 24q-62 54 -122.5 88t-130.5 34q-49 0 -101.5 -12.5t-91.5 -46t-39 -90.5q0 -51 31 -83t84 -52.5t152 -47.5q154 -46 255 -95t164 -132t63 -210q0 -123 -58.5 -218t-162 -152t-236.5 -72v-139q0 -33 -32 -33h-147q-32 0 -32 33
v144q-116 20 -218.5 78.5t-178.5 146.5q-24 26 -24 43z" />
    <glyph glyph-name="percent" unicode="%" horiz-adv-x="1820" 
d="M106 1277.5q53 90.5 143.5 143.5t197.5 53q108 0 199.5 -53t145 -143.5t53.5 -198.5q0 -107 -53.5 -197t-145 -143t-199.5 -53q-107 0 -197.5 53t-143.5 143t-53 197q0 108 53 198.5zM1154 1419q7 6 25 6h155q31 0 31 -23q0 -11 -7 -23l-730 -1354q-10 -16 -19 -20.5
t-23 -4.5h-163q-10 1 -15.5 7.5t-5.5 15.5q0 8 4 15l733 1363q8 12 15 18zM263 970q28 -50 76.5 -79t107.5 -29q60 0 109 29t77.5 79t28.5 109t-28 109t-77 79.5t-109 29.5q-59 0 -108 -29t-77 -79t-28 -110q0 -59 28 -109zM1025 568.5q53 90.5 143.5 143.5t197.5 53
q108 0 199.5 -53t145 -143.5t53.5 -198.5q0 -107 -53.5 -197t-145 -143t-199.5 -53q-107 0 -197.5 53t-143.5 143t-53 197q0 108 53 198.5zM1182 261q28 -50 76.5 -79t107.5 -29q60 0 109 29t77.5 79t28.5 109t-28 109t-77 79.5t-109 29.5q-59 0 -108 -29t-77 -79t-28 -110
q0 -59 28 -109z" />
    <glyph glyph-name="ampersand" unicode="&#x26;" horiz-adv-x="1599" 
d="M701.5 704q7.5 9 19.5 6l453 -96q27 -5 44 -5q56 0 77.5 29.5t27 53t6.5 28.5q10 25 37 20l173 -34q9 -1 14 -10t5 -20q0 -7 -1 -10q-13 -55 -49.5 -123t-108 -122.5t-176.5 -54.5q-37 0 -81 9l-68 14q-19 -135 -94.5 -227t-186.5 -137t-238 -45q-129 0 -244 59.5
t-185 163.5t-70 231q0 123 53 220t148 156q-51 54 -75 123t-24 144q0 103 54 186.5t144.5 130.5t194.5 47q123 0 211.5 -48.5t135 -132.5t46.5 -191q0 -25 -4 -40t-22 -15l-171 -2q-30 0 -30 28q0 74 -38 114.5t-112 40.5t-115.5 -40t-41.5 -98q0 -47 21 -85t57 -61.5
t79 -27.5q12 0 24.5 -10.5t9.5 -26.5l-32 -156q-5 -25 -35 -25q-8 0 -20 2t-20 3q-75 4 -121.5 -50t-46.5 -154q0 -72 32.5 -124.5t87.5 -80.5t121 -28q109 0 175.5 55.5t72.5 153.5l-134 32q-15 3 -24.5 10t-6.5 21l41 177q3 13 10.5 22z" />
    <glyph glyph-name="quotesingle" unicode="'" horiz-adv-x="545" 
d="M220 1426h136q21 0 28 -11t7 -29v-366q0 -19 -7.5 -27t-24.5 -8h-147q-19 0 -24.5 9.5t-5.5 28.5v363q0 40 38 40z" />
    <glyph glyph-name="parenleft" unicode="(" horiz-adv-x="739" 
d="M206.5 1217q70.5 253 197.5 459q12 18 27 18q11 0 24 -8l170 -106q16 -10 16 -26q0 -12 -8 -23q-75 -107 -126 -255t-76 -296t-25 -263q0 -114 26 -266t78 -302.5t127 -257.5q8 -11 8 -23q0 -16 -16 -26l-170 -106q-13 -8 -23 -8q-14 0 -28 18q-136 213 -204 465t-68 506
q0 247 70.5 500z" />
    <glyph glyph-name="parenright" unicode=")" horiz-adv-x="739" 
d="M537 211q-68 -252 -204 -465q-13 -18 -28 -18q-10 0 -23 8l-170 106q-16 10 -16 26q0 12 8 23q75 107 127.5 257.5t78 302t25.5 266.5t-25 263t-76 296t-126 255q-8 11 -8 23q0 16 16 26l170 106q13 8 24 8q15 0 27 -18q127 -206 197.5 -459t70.5 -500q0 -254 -68 -506z
" />
    <glyph glyph-name="asterisk" unicode="*" horiz-adv-x="943" 
d="M117.5 697q8.5 9 21.5 7l198 -20l-116 160q-5 7 -5 16q0 14 16 24l120 70q10 5 17 5q18 0 26 -16l77 -170l78 168q6 15 22 15q8 0 18 -5l122 -70q16 -10 16 -25q0 -8 -6 -16l-119 -159l202 21q14 2 21 -6t8 -23v-141q0 -14 -9 -22.5t-22 -7.5l-194 25l117 -163
q6 -7 6 -16q0 -14 -17 -24l-122 -71q-7 -4 -15 -4q-18 0 -26 16l-80 194l-86 -198q-10 -16 -25 -16q-5 0 -15 5l-120 70q-8 4 -12.5 11.5t-4.5 15.5q0 9 4 16l117 162l-192 -21q-11 0 -20.5 8t-9.5 22l1 139q0 15 8.5 24z" />
    <glyph glyph-name="plus" unicode="+" horiz-adv-x="864" 
d="M321.5 254.5q-8.5 8.5 -8.5 22.5v223h-216q-11 0 -20.5 7.5t-9.5 21.5v156q0 14 9 22t23 8h214v224q0 29 30 29h171q13 0 21 -8.5t8 -21.5v-223h218q29 0 29 -29v-157q0 -12 -9 -20.5t-21 -8.5h-217v-224q0 -11 -7.5 -20.5t-21.5 -9.5h-170q-14 0 -22.5 8.5z" />
    <glyph glyph-name="comma" unicode="," horiz-adv-x="545" 
d="M184 254h171q43 0 43 -46v-144q0 -131 -41.5 -204t-92.5 -111q-13 -10 -26 -10t-23 9l-49 46q-12 11 -12 22q0 12 15 27q66 66 66 136q0 19 -16 19h-37q-40 0 -40 44v164q0 48 42 48z" />
    <glyph glyph-name="hyphen" unicode="-" horiz-adv-x="1023" 
d="M165.5 647.5q13.5 12.5 30.5 12.5h637q43 0 43 -44v-133q0 -20 -13.5 -31.5t-34.5 -11.5h-632q-17 0 -30.5 11.5t-13.5 31.5v130q0 22 13.5 34.5z" />
    <glyph glyph-name="period" unicode="." horiz-adv-x="545" 
d="M151.5 247.5q9.5 9.5 24.5 9.5h189q19 0 26.5 -11.5t7.5 -23.5v-188q0 -18 -11 -26t-22 -8h-192q-10 0 -21 7.5t-11 25.5v188q0 17 9.5 26.5z" />
    <glyph glyph-name="slash" unicode="/" horiz-adv-x="1006" 
d="M301 0h-188q-13 0 -20.5 6t-7.5 17q0 9 4 18l585 1349q17 36 50 36h185q14 0 21.5 -6t7.5 -17q0 -7 -5 -19l-582 -1349q-15 -35 -50 -35z" />
    <glyph glyph-name="zero" unicode="0" horiz-adv-x="1672" 
d="M202 1078q98 168 265 266.5t366 98.5t369.5 -98.5t271 -267t100.5 -366.5t-100.5 -365.5t-271 -265.5t-369.5 -98t-366 98t-265 265.5t-98 365.5q0 199 98 367zM440 479.5q61 -106.5 165.5 -168.5t228.5 -62q126 0 233 62t170.5 168.5t63.5 232.5t-63.5 233t-171 170
t-232.5 63q-124 0 -228.5 -63t-165.5 -170t-61 -233t61 -232.5z" />
    <glyph glyph-name="one" unicode="1" horiz-adv-x="687" 
d="M537 1416q5 -9 5 -25v-1352q0 -39 -40 -39h-195q-38 0 -38 37v1133l-146 -68q-7 -3 -14 -3q-15 0 -18 16l-1 171q-3 33 24 44l136 72q45 23 82 23h182q18 0 23 -9z" />
    <glyph glyph-name="two" unicode="2" horiz-adv-x="1238" 
d="M139 945q0 136 59.5 250.5t167 182t244.5 67.5q131 0 241 -48t176.5 -146t66.5 -241q0 -102 -45.5 -189.5t-114.5 -156.5l-416 -422h554q24 0 34.5 -9.5t10.5 -33.5v-159q0 -40 -42 -40h-896q-20 0 -34 8.5t-14 28.5v94q0 20 2.5 29.5t9.5 16.5l595 651q50 50 73.5 91.5
t23.5 95.5q0 55 -30.5 97.5t-81 65.5t-108.5 23q-66 0 -115 -37.5t-75 -98.5t-26 -131q0 -18 -10 -22.5t-27 -4.5l-194 1q-29 1 -29 37z" />
    <glyph glyph-name="three" unicode="3" horiz-adv-x="1104" 
d="M181 1018.5q-7 8.5 -7 21.5q0 110 42 199.5t124.5 142.5t198.5 53t204.5 -53t137 -137.5t48.5 -176.5q0 -95 -28.5 -157t-88.5 -104q104 -56 165.5 -152.5t61.5 -219.5t-63 -228t-172.5 -167t-243.5 -62q-119 0 -230.5 48t-184 152t-72.5 261q0 21 1.5 32t10.5 19t28 8
h172q19 -1 27.5 -10.5t8.5 -27.5q0 -94 37 -149t87 -76t96 -21q64 0 117 27t84.5 78.5t31.5 123.5q0 108 -59.5 167t-181.5 59q-39 0 -39 34v151q0 38 34 38q76 0 115.5 41t39.5 109q0 67 -37.5 111.5t-108.5 44.5q-114 0 -134 -158q-3 -33 -31 -33l-171 2q-13 1 -20 9.5z
" />
    <glyph glyph-name="four" unicode="4" horiz-adv-x="1236" 
d="M67.5 246q-12.5 14 -12.5 36q0 26 16 52l669 1061q12 19 22.5 25.5t28.5 6.5l164 -1q20 0 28 -10t8 -31v-913h122q18 0 28 -9.5t10 -26.5v-152q0 -22 -7.5 -36.5t-33.5 -14.5h-119v-200q0 -32 -29 -32h-192q-21 0 -26.5 7.5t-5.5 25.5v198h-635q-23 0 -35.5 14zM742 983
l-316 -509h316v509z" />
    <glyph glyph-name="five" unicode="5" horiz-adv-x="1162" 
d="M297 499q28 0 31 -32q4 -71 40 -127t90.5 -87t111.5 -31q67 0 124 32.5t90 88.5t33 124t-34 127.5t-93.5 95.5t-131.5 36q-32 0 -62.5 -10t-75.5 -29q-44 -19 -70 -27.5t-52 -8.5h-126q-52 0 -48 47l65 686q3 44 42 44h701q29 0 40 -11t11 -36v-150q0 -29 -9 -39.5
t-36 -10.5h-505l-24 -270q38 24 79.5 35t93.5 11q143 0 254.5 -71t173 -181t61.5 -221q0 -140 -67 -255.5t-182 -182t-251 -66.5q-117 0 -229 64t-182 166t-70 210q0 3 -0.5 14.5t4 20.5t14.5 12l171 29q11 3 18 3z" />
    <glyph glyph-name="six" unicode="6" horiz-adv-x="1183" 
d="M343.5 45.5q-114.5 63.5 -183 173t-68.5 241.5q0 142 67 260l377 663q13 23 26.5 33t37.5 10h196q17 0 27 -6.5t10 -18.5q0 -10 -7 -23l-246 -432q22 2 31 2q128 0 236 -65.5t171.5 -176t63.5 -238.5q0 -133 -66.5 -244.5t-180 -176.5t-248.5 -65q-129 0 -243.5 63.5z
M382.5 343.5q29.5 -55.5 82.5 -87.5t120 -32q65 0 117 32t81.5 87.5t29.5 123.5q0 66 -29.5 122.5t-81.5 89.5t-117 33q-66 0 -119 -33t-83 -89.5t-30 -122.5q0 -68 29.5 -123.5z" />
    <glyph glyph-name="seven" unicode="7" horiz-adv-x="1158" 
d="M1105.5 1413q12.5 -13 12.5 -33q0 -22 -12 -43l-680 -1309q-13 -28 -44 -28h-233q-15 0 -22.5 7.5t-7.5 17.5t5 18l577 1124h-574q-18 0 -29.5 10t-11.5 30v180q0 17 11.5 28t29.5 11h940q26 0 38.5 -13z" />
    <glyph glyph-name="eight" unicode="8" horiz-adv-x="1127" 
d="M236 1251.5q52 86.5 140 138t191 51.5q101 0 188.5 -51.5t139.5 -138.5t52 -187q0 -11 -2 -35q-6 -60 -33.5 -116.5t-69.5 -96.5q97 -59 153.5 -155.5t56.5 -212.5q0 -129 -62 -235.5t-173 -168t-250 -61.5q-121 0 -222 48t-167 132.5t-86 192.5q-8 45 -8 84
q0 113 53 211t153 165q-49 46 -77.5 112.5t-28.5 136.5q0 100 52 186.5zM437.5 979q20.5 -35 55.5 -55.5t76 -20.5t76 20.5t55.5 55.5t20.5 77q0 41 -20.5 75.5t-55.5 55t-76 20.5t-76 -20.5t-55.5 -55t-20.5 -75.5q0 -42 20.5 -77zM373.5 340q29.5 -52 80.5 -82t114 -30
q61 0 111 30t79 82t29 115q0 62 -28.5 114t-78.5 83t-112 31q-64 0 -115 -31t-80 -83.5t-29 -114.5t29.5 -114z" />
    <glyph glyph-name="nine" unicode="9" horiz-adv-x="1187" 
d="M809.5 1380.5q114.5 -63.5 183 -173t68.5 -241.5q0 -142 -67 -260l-377 -663q-13 -23 -26.5 -33t-37.5 -10h-196q-17 0 -27 6.5t-10 18.5q0 10 7 23l246 432q-22 -2 -31 -2q-128 0 -236 65.5t-171.5 176t-63.5 238.5q0 133 66.5 244.5t180 176.5t248.5 65
q129 0 243.5 -63.5zM770.5 1082.5q-29.5 55.5 -82.5 87.5t-120 32q-65 0 -117 -32t-81.5 -87.5t-29.5 -123.5q0 -66 29.5 -122.5t81.5 -89.5t117 -33q66 0 119 33t83 89.5t30 122.5q0 68 -29.5 123.5z" />
    <glyph glyph-name="colon" unicode=":" horiz-adv-x="541" 
d="M151.5 1217q9.5 9 24.5 9h189q19 0 26.5 -11.5t7.5 -23.5v-188q0 -18 -11 -26t-22 -8h-192q-10 0 -21 8t-11 26v188q0 17 9.5 26zM151.5 247.5q9.5 9.5 24.5 9.5h189q19 0 26.5 -11.5t7.5 -23.5v-188q0 -18 -11 -26t-22 -8h-192q-10 0 -21 7.5t-11 25.5v188
q0 17 9.5 26.5z" />
    <glyph glyph-name="semicolon" unicode=";" horiz-adv-x="541" 
d="M151.5 1215.5q9.5 9.5 24.5 9.5h189q19 0 26.5 -11.5t7.5 -23.5v-188q0 -18 -11 -26t-22 -8h-192q-10 0 -21 7.5t-11 25.5v188q0 17 9.5 26.5zM183 254h171q43 0 43 -46v-144q0 -131 -41.5 -204t-92.5 -111q-13 -10 -26 -10t-23 9l-49 46q-12 11 -12 22q0 12 15 27
q66 66 66 136q0 19 -16 19h-37q-40 0 -40 44v164q0 48 42 48z" />
    <glyph glyph-name="less" unicode="&#x3c;" horiz-adv-x="847" 
d="M75 587q2 3 11 12l480 480q12 12 27 12q11 0 20 -9l105 -102q12 -12 12 -28t-11 -26l-353 -351l358 -358q11 -11 11 -26q0 -16 -12 -28l-105 -103q-8 -8 -20 -8q-15 0 -27 12l-485 488q-9 9 -11 12.5t-2 11.5t2 11z" />
    <glyph glyph-name="equal" unicode="=" horiz-adv-x="1023" 
d="M150 699v147q0 24 11.5 33t26.5 9h633q16 0 27 -10.5t11 -27.5v-148q0 -16 -10 -28t-28 -12h-633q-38 0 -38 37zM150 342v147q0 42 38 42h633q16 0 27 -10t11 -27v-149q0 -16 -10 -28t-28 -12h-633q-38 0 -38 37z" />
    <glyph glyph-name="greater" unicode="&#x3e;" horiz-adv-x="847" 
d="M767 564.5q-2 -3.5 -11 -12.5l-485 -488q-12 -12 -27 -12q-12 0 -20 8l-105 103q-12 12 -12 28q0 15 11 26l358 358l-353 351q-11 10 -11 26t12 28l105 102q9 9 20 9q15 0 27 -12l480 -480q9 -9 11 -12t2 -11t-2 -11.5z" />
    <glyph glyph-name="question" unicode="?" horiz-adv-x="1091" 
d="M648.5 442.5q-9.5 -11.5 -33.5 -11.5l-171 -2q-21 0 -28.5 13t-7.5 37v156q0 73 57 134.5t157 127.5q59 39 89.5 65.5t48.5 64.5t18 96q0 52 -31 99t-84.5 75.5t-117.5 28.5q-68 0 -121.5 -35t-82.5 -88t-29 -105q0 -28 -9 -37.5t-33 -9.5h-168q-16 0 -25.5 9.5
t-9.5 25.5q0 143 64 250.5t174.5 166t247.5 58.5q119 0 227.5 -58t175 -157.5t66.5 -217.5q0 -104 -28 -171.5t-72.5 -109t-122.5 -94.5l-18 -12q-40 -25 -64 -44.5t-41.5 -47t-17.5 -63.5v-105q0 -27 -9.5 -38.5zM408.5 242q10.5 10 25.5 10h196q20 0 29 -12t9 -25v-175
q0 -19 -12.5 -27.5t-25.5 -8.5h-196q-12 0 -24 8.5t-12 27.5v173q0 19 10.5 29z" />
    <glyph glyph-name="at" unicode="@" horiz-adv-x="1841" 
d="M1333 -104q13 0 19 -9l85 -123q4 -5 4 -13q0 -10 -5 -19t-13 -13q-237 -128 -454 -128q-242 0 -446.5 120t-324 325t-119.5 448q0 241 120.5 448.5t326 330t448.5 122.5q205 0 388 -94.5t295.5 -266.5t112.5 -392q0 -284 -98.5 -440t-307.5 -156q-67 0 -112 22t-77 63
q-41 -45 -106 -69.5t-169 -24.5q-129 0 -232.5 61.5t-161.5 167t-58 232.5q0 125 58.5 230t160.5 166.5t227 61.5q166 0 246 -138l20 80q6 28 15 36t37 8h83q24 0 37 -12t13 -32v-564q0 -40 13.5 -51.5t42.5 -11.5q91 0 131.5 101t40.5 260q0 156 -78.5 285t-213.5 203
t-296 74q-198 0 -361 -95t-256.5 -256t-93.5 -351q0 -185 96 -344t256 -253t341 -94q92 0 168 22t165 73q20 10 33 10zM719 377.5q29 -49.5 78 -78t106 -28.5q59 0 107.5 28.5t76.5 78t28 109.5q0 58 -28 107.5t-77 78.5t-107 29q-57 0 -106 -29.5t-78 -79t-29 -106.5
q0 -60 29 -109.5z" />
    <glyph glyph-name="A" unicode="A" horiz-adv-x="1440" 
d="M658 1426h160q34 0 49 -37l541 -1348q4 -9 4 -17q0 -12 -8 -18t-23 -6h-210q-33 0 -47 35l-93 230h-588l-92 -229q-7 -20 -18.5 -28t-29.5 -8h-210q-30 0 -30 23q0 9 4 18l543 1348q15 37 48 37zM940 513l-202 544l-205 -544h407z" />
    <glyph glyph-name="B" unicode="B" horiz-adv-x="1327" 
d="M191 1426h619q108 0 197 -53t140.5 -144t51.5 -201q0 -83 -27.5 -151t-81.5 -115q81 -55 128 -148.5t47 -199.5q0 -109 -52.5 -204.5t-142 -152.5t-196.5 -57h-683q-37 0 -37 38v1350q0 38 37 38zM434 847h302q85 0 135 46.5t50 127.5q0 78 -50 125.5t-133 47.5h-304
v-347zM434 234h364q56 0 97 27.5t62.5 71t21.5 91.5q0 56 -26 102.5t-68.5 73t-90.5 26.5h-360v-392z" />
    <glyph glyph-name="C" unicode="C" horiz-adv-x="1359" 
d="M1126 347q15 0 25 -14l97 -164q11 -12 11 -24q0 -15 -22 -32q-86 -64 -188 -98.5t-228 -34.5q-200 0 -369.5 98.5t-268.5 267.5t-99 369t99 368t268.5 265.5t369.5 97.5q126 0 228 -34t190 -99q17 -14 17 -31q0 -10 -5 -17l-102 -172q-9 -12 -23 -12t-31 11
q-72 45 -136 66.5t-138 21.5q-127 0 -230.5 -62t-163 -168.5t-59.5 -234.5t59.5 -236.5t163 -172t230.5 -63.5q75 0 145 24.5t125 64.5q20 15 35 15z" />
    <glyph glyph-name="D" unicode="D" horiz-adv-x="1482" 
d="M184 1425h478q181 0 347.5 -95t270 -259t103.5 -359q0 -188 -95 -349.5t-258.5 -259t-359.5 -103.5h-486q-38 0 -38 38v1349q0 38 38 38zM1040 941q-61 104 -167 164.5t-236 60.5h-210v-907h210q130 0 236 60.5t167 164.5t61 228q0 125 -61 229z" />
    <glyph glyph-name="E" unicode="E" horiz-adv-x="1263" 
d="M193 1425h938q39 0 39 -38v-186q0 -38 -39 -38h-695v-291h530q43 0 43 -39v-182q0 -38 -43 -38h-530v-352h713q40 0 40 -38v-185q0 -38 -40 -38h-956q-37 0 -37 38v1349q0 38 37 38z" />
    <glyph glyph-name="F" unicode="F" horiz-adv-x="1223" 
d="M195 1425h920q37 0 37 -38v-186q0 -38 -37 -38h-677v-378h516q37 0 37 -38v-177q0 -38 -37 -38h-516v-494q0 -38 -38 -38h-205q-38 0 -38 38v1349q0 38 38 38z" />
    <glyph glyph-name="G" unicode="G" horiz-adv-x="1428" 
d="M934.5 255.5q59.5 15.5 105.5 49.5v294q0 39 38 39h171q15 0 26 -9t11 -30v-435q0 -27 -20 -42q-92 -64 -207 -102.5t-238 -38.5q-200 0 -369.5 98.5t-268.5 267.5t-99 369t98 367.5t266.5 265t369.5 97.5q126 0 231 -36t198 -107q19 -15 19 -30q0 -10 -8 -20l-114 -163
q-12 -15 -28 -15q-11 0 -25 9q-128 94 -270 94q-131 0 -237.5 -61t-167.5 -167t-61 -234q0 -127 61 -236.5t165.5 -174.5t230.5 -65q63 0 122.5 15.5z" />
    <glyph glyph-name="H" unicode="H" horiz-adv-x="1511" 
d="M436 615v-576q0 -39 -41 -39h-202q-37 0 -37 39v1346q0 18 9.5 29t27.5 11h207q15 0 25.5 -8.5t10.5 -29.5v-502h639v500q0 18 9.5 29t27.5 11h207q15 0 25.5 -8.5t10.5 -29.5v-1348q0 -39 -41 -39h-202q-37 0 -37 39v576h-639z" />
    <glyph glyph-name="I" unicode="I" 
d="M194 1425h203q38 0 38 -40v-1346q0 -39 -38 -39h-203q-38 0 -38 39v1346q0 40 38 40z" />
    <glyph glyph-name="J" unicode="J" horiz-adv-x="684" 
d="M259 1418q12 9 25 9h199q24 0 34 -10.5t10 -35.5v-1297q0 -59 -6 -113q-16 -95 -76 -175t-150.5 -127t-193.5 -47q-87 0 -175 36t-141 103q-24 30 -24 50q0 14 10 24l119 111q16 15 30 15q9 0 17 -5t15 -11t10 -9q28 -24 56 -37t68 -13q43 0 80.5 21t59 56t21.5 75v1350
q0 21 12 30z" />
    <glyph glyph-name="K" unicode="K" horiz-adv-x="1438" 
d="M1390 44q10 -13 10 -24q0 -9 -6.5 -14.5t-19.5 -5.5h-280q-16 0 -26.5 8t-24.5 27l-433 572l-174 -187v-381q0 -39 -37 -39h-206q-37 0 -37 39v1347q0 18 10 29t27 11h203q13 0 26.5 -11.5t13.5 -28.5v-593l533 605q16 19 27.5 23.5t31.5 4.5h248q24 0 24 -21
q0 -13 -10 -24l-493 -561z" />
    <glyph glyph-name="L" unicode="L" horiz-adv-x="1116" 
d="M167.5 1415q10.5 11 26.5 11h206q37 0 37 -40v-1121h605q40 0 40 -37v-190q0 -38 -40 -38h-848q-37 0 -37 38v1348q0 18 10.5 29z" />
    <glyph glyph-name="M" unicode="M" horiz-adv-x="1811" 
d="M366 38q-2 -20 -11 -29t-28 -9h-195q-19 0 -29 10.5t-8 28.5l145 1350q2 19 11.5 28.5t28.5 9.5h250q15 0 21.5 -7.5t13.5 -27.5l344 -950l338 949q7 20 14.5 28t22.5 8h255q36 0 39 -38l145 -1350q5 -39 -37 -39h-195q-20 0 -28.5 8.5t-10.5 28.5l-98 908l-327 -881
q-8 -21 -16 -28t-23 -7h-161q-16 0 -24 7t-16 28l-320 882z" />
    <glyph glyph-name="N" unicode="N" horiz-adv-x="1545" 
d="M426 39q0 -39 -41 -39h-192q-37 0 -37 39v1349q0 16 9.5 27t27.5 11h224q33 0 57 -36l644 -927v925q0 17 10 27.5t29 10.5h191q15 0 28 -11t13 -27v-1349q0 -39 -41 -39h-203q-33 0 -57 35l-662 975v-971z" />
    <glyph glyph-name="O" unicode="O" horiz-adv-x="1661" 
d="M197 1081q99 168 267.5 266.5t367.5 98.5q200 0 367.5 -98.5t265.5 -266.5t98 -368q0 -199 -98 -367t-265.5 -266.5t-367.5 -98.5q-199 0 -367.5 98.5t-267.5 266.5t-99 367q0 200 99 368zM438.5 479q59.5 -106 163 -167.5t230.5 -61.5t230 61.5t162 167.5t59 234
t-59 234.5t-162 168t-230 61.5t-230.5 -61.5t-163 -168t-59.5 -234.5t59.5 -234z" />
    <glyph glyph-name="P" unicode="P" horiz-adv-x="1258" 
d="M156 1415.5q10 9.5 27 9.5h559q126 0 227.5 -64.5t159 -170t57.5 -224.5q0 -117 -56.5 -220.5t-157 -165.5t-225.5 -62h-322v-479q0 -39 -38 -39h-204q-37 0 -37 39v1348q0 19 10 28.5zM425 756h260q63 0 112 27.5t76 75.5t27 108q0 58 -27.5 107t-76.5 78t-111 29h-260
v-425z" />
    <glyph glyph-name="Q" unicode="Q" horiz-adv-x="1661" 
d="M197 1081q99 168 267.5 266.5t367.5 98.5q200 0 367.5 -98.5t265.5 -266.5t98 -368q0 -176 -77 -329t-212.5 -255.5t-303.5 -134.5v-259q0 -40 -38 -40h-205q-38 0 -38 40v260q-167 33 -302 136t-212 255t-77 327q0 200 99 368zM438.5 479q59.5 -106 163 -167.5
t230.5 -61.5t230 61.5t162 167.5t59 234t-59 234.5t-162 168t-230 61.5t-230.5 -61.5t-163 -168t-59.5 -234.5t59.5 -234z" />
    <glyph glyph-name="R" unicode="R" horiz-adv-x="1334" 
d="M165 1414.5q9 10.5 28 10.5h610q128 0 231.5 -65.5t162 -173t58.5 -229.5q0 -119 -67 -226.5t-176 -170.5l262 -519q3 -7 3 -14q0 -11 -7.5 -19t-20.5 -8h-248q-16 0 -25.5 7t-19.5 27l-228 459h-292v-455q0 -38 -38 -38h-205q-37 0 -37 38v1349q0 17 9 27.5zM436 738
h299q66 0 119 30t83.5 81.5t30.5 112.5t-30.5 112.5t-84 82t-118.5 30.5h-299v-449z" />
    <glyph glyph-name="S" unicode="S" horiz-adv-x="1267" 
d="M107.5 241.5q-6.5 10.5 -6.5 20.5q0 15 15 29l129 126q12 11 25 11q17 0 41 -21q77 -74 156 -119.5t177 -45.5q73 0 128 26t84.5 69t29.5 92q0 56 -42 93.5t-95 57t-132 40.5q-161 48 -265.5 107t-158 139t-53.5 188q0 117 65.5 207.5t183 140.5t270.5 50
q120 0 238 -57.5t207 -148.5q17 -19 17 -36q0 -18 -18 -38l-106 -108q-13 -12 -26 -12q-11 0 -21.5 6t-25.5 18q-68 57 -134 94.5t-140 37.5q-93 0 -157.5 -34.5t-64.5 -123.5q0 -50 33.5 -82t88 -52.5t158.5 -48.5q149 -44 250.5 -96.5t163 -138t61.5 -212.5
q0 -128 -74 -228t-196.5 -155t-262.5 -55q-147 0 -287 64t-238 172q-11 13 -17.5 23.5z" />
    <glyph glyph-name="T" unicode="T" horiz-adv-x="1235" 
d="M101 1426h1027q37 0 37 -38v-181q0 -39 -37 -39h-378v-1130q0 -38 -38 -38h-206q-38 0 -38 38v1130h-367q-38 0 -38 39v181q0 38 38 38z" />
    <glyph glyph-name="U" unicode="U" horiz-adv-x="1465" 
d="M467 384q43 -76 115 -115.5t160 -39.5t161 42t115.5 119t42.5 176v820q0 18 11 29t29 11h200q19 0 30 -11.5t11 -28.5v-819q0 -197 -80.5 -329.5t-216 -196t-303.5 -63.5q-167 0 -303 65t-216.5 198t-80.5 329v817q0 16 10 27.5t25 11.5h210q20 0 28.5 -10t8.5 -29v-821
q0 -106 43 -182z" />
    <glyph glyph-name="V" unicode="V" horiz-adv-x="1396" 
d="M787 -1h-161q-35 0 -49 36l-531 1349q-4 9 -4 18q0 12 8 18t22 6h219q34 0 47 -37l368 -1005l365 1004q14 38 47 38h222q14 0 22 -6.5t8 -18.5q0 -10 -4 -19l-530 -1347q-14 -36 -49 -36z" />
    <glyph glyph-name="W" unicode="W" horiz-adv-x="2056" 
d="M836 36q-14 -36 -49 -36h-162q-34 0 -48 36l-531 1347q-4 8 -4 16q0 12 8.5 19t22.5 7h222q34 0 47 -36l362 -1011l362 1011q12 36 47 36h228q14 0 22 -7.5t8 -19.5q0 -7 -3 -15l-204 -510l185 -493l377 1009q8 20 19 28t29 8h225q14 0 22.5 -7t8.5 -19q0 -8 -4 -16
l-548 -1347q-16 -36 -49 -36h-152q-34 0 -50 36l-203 484z" />
    <glyph glyph-name="X" unicode="X" horiz-adv-x="1342" 
d="M1283 42q7 -10 7 -20t-8.5 -16t-20.5 -6h-234q-17 0 -28 8t-23 26l-308 459l-309 -459q-14 -21 -24 -27.5t-26 -6.5h-232q-13 0 -21 6t-8 16t7 21l457 682l-440 657q-8 13 -8 22q0 10 7 16t19 6h238q15 0 26 -8t24 -27l290 -433l292 434q13 19 24 27t27 8h234
q13 0 21 -6.5t8 -17.5q0 -8 -6 -19l-444 -659z" />
    <glyph glyph-name="Y" unicode="Y" horiz-adv-x="1277" 
d="M36 1383q-6 11 -6 20q0 11 8.5 17t21.5 6h236q17 0 27.5 -8t20.5 -27l290 -560l289 559q10 19 20.5 27t26.5 8h239q14 0 22 -6.5t8 -17.5q0 -7 -5 -19l-460 -781v-561q0 -40 -37 -40h-206q-38 0 -38 40v560z" />
    <glyph glyph-name="Z" unicode="Z" horiz-adv-x="1342" 
d="M1206 1391v-160q0 -19 -12 -36l-745 -934h719q35 0 35 -34v-194q0 -33 -35 -33h-1072q-35 0 -35 33v165q0 19 13 34l737 930h-705q-37 0 -37 35v194q0 35 37 35h1065q35 0 35 -35z" />
    <glyph glyph-name="bracketleft" unicode="[" horiz-adv-x="662" 
d="M191 1613h376q13 0 21 -7.5t8 -21.5v-186q0 -13 -9 -21t-22 -8h-151v-1395h153q13 0 21 -8t8 -22v-186q0 -13 -9 -21t-22 -8h-374q-37 0 -37 38v1808q0 38 37 38z" />
    <glyph glyph-name="backslash" unicode="\" horiz-adv-x="968" 
d="M57 1403q0 11 7.5 17t21.5 6h185q33 0 50 -36l585 -1349q4 -9 4 -18q0 -11 -7.5 -17t-20.5 -6h-188q-35 0 -50 35l-582 1349q-5 12 -5 19z" />
    <glyph glyph-name="bracketright" unicode="]" horiz-adv-x="662" 
d="M462 -271h-374q-13 0 -22 8t-9 21v186q0 14 8 22t21 8h153v1395h-151q-13 0 -22 8t-9 21v186q0 14 8 21.5t21 7.5h376q37 0 37 -38v-1808q0 -38 -37 -38z" />
    <glyph glyph-name="asciicircum" unicode="^" horiz-adv-x="937" 
d="M471 1504q18 0 36 -18l314 -314q20 -18 20 -38q0 -18 -18 -35l-87 -86q-17 -17 -36 -17q-20 0 -37 17l-195 195l-195 -195q-16 -16 -35 -16t-35 15l-86 84q-17 17 -17 35q0 20 19 37l316 318q18 18 36 18z" />
    <glyph glyph-name="underscore" unicode="_" horiz-adv-x="1271" 
d="M165.5 -25q8.5 8 22.5 8h913q13 0 21 -7.5t8 -21.5v-145q0 -13 -9 -21t-22 -8h-913q-11 0 -20 7.5t-9 21.5v144q0 14 8.5 22z" />
    <glyph glyph-name="grave" unicode="`" horiz-adv-x="513" 
d="M96 1502q0 14 8.5 23t21.5 9h156q19 0 30 -7.5t19 -28.5l89 -218q3 -9 3 -17q0 -14 -9.5 -21.5t-21.5 -7.5h-139q-20 0 -29.5 6.5t-20.5 29.5l-103 214q-4 8 -4 18z" />
    <glyph glyph-name="a" unicode="a" horiz-adv-x="1473" 
d="M1319 0h-171q-26 0 -42.5 17t-16.5 43v80q-80 -77 -177.5 -119.5t-203.5 -42.5q-162 0 -305 81.5t-229 225t-86 322.5q0 171 83.5 316t225.5 230t311 85q126 0 221.5 -41.5t173.5 -130.5l17 120q3 21 11.5 30.5t27.5 9.5h160q38 0 38 -40v-1146q0 -40 -38 -40z
M1036 798.5q-49 87.5 -132.5 139.5t-183.5 52q-97 0 -179.5 -50t-131 -137.5t-48.5 -194.5q0 -105 47.5 -192.5t129.5 -138t182 -50.5q102 0 185.5 51.5t131.5 139t48 190.5t-49 190.5z" />
    <glyph glyph-name="b" unicode="b" horiz-adv-x="1473" 
d="M173 1582h201q38 0 38 -40v-461q77 74 174 115t205 41q173 0 309 -84t211 -228t75 -318q0 -181 -79 -324.5t-215.5 -224t-303.5 -80.5q-103 0 -200 43t-176 122l-21 -90q-6 -25 -17.5 -39t-35.5 -14h-165q-39 0 -39 40v1502q0 40 39 40zM444.5 416.5
q51.5 -87.5 138.5 -138.5t188 -51q104 0 184.5 50.5t125 138t44.5 192.5q0 104 -45.5 191.5t-125.5 139.5t-181 52q-103 0 -190.5 -51.5t-138.5 -139t-51 -192.5q0 -104 51.5 -191.5z" />
    <glyph glyph-name="c" unicode="c" horiz-adv-x="1196" 
d="M997 339q16 0 23 -11l98 -144q10 -14 10 -27q0 -14 -17 -29q-76 -64 -184.5 -107.5t-217.5 -43.5q-172 0 -317 83t-230 228t-85 322q0 172 85 316t229 228t311 84q121 1 219.5 -36t187.5 -109q14 -13 14 -26q0 -9 -5 -17l-98 -151q-8 -11 -23 -11q-12 0 -22 7
q-66 52 -132.5 74.5t-137.5 22.5q-95 0 -178.5 -49.5t-134 -137.5t-50.5 -196t48.5 -195t132 -136.5t183.5 -49.5q136 0 266 102q11 9 25 9z" />
    <glyph glyph-name="d" unicode="d" horiz-adv-x="1473" 
d="M1305 0h-165q-22 0 -37.5 24.5t-20.5 49.5l-16 69q-79 -79 -176 -122t-200 -43q-167 0 -303.5 80.5t-215.5 224t-79 324.5q0 174 75 318t211 228t309 84q108 0 205 -41t174 -115v461q0 40 38 40h201q39 0 39 -40v-1502q0 -40 -39 -40zM1034 800.5q-51 87.5 -138.5 139
t-190.5 51.5q-100 0 -178.5 -52t-122.5 -139.5t-44 -191.5q0 -106 43 -193t122 -137.5t182 -50.5q101 0 188 51t138.5 138.5t51.5 191.5q0 105 -51 192.5z" />
    <glyph glyph-name="e" unicode="e" horiz-adv-x="1405" 
d="M1038 345q15 0 23 -12l98 -120q12 -15 12 -29q0 -15 -15 -29q-107 -94 -213.5 -135.5t-228.5 -41.5q-165 0 -310 85t-231.5 229.5t-86.5 313.5q0 172 80.5 316.5t222.5 229.5t318 85q143 0 282.5 -69.5t231 -212t91.5 -349.5q0 -47 -11 -68t-29.5 -25.5t-57.5 -4.5h-860
q20 -86 72 -151t127.5 -101t162.5 -36q67 0 116 13.5t80.5 32t70.5 48.5l29 22q13 9 26 9zM561 968q-69 -35 -119.5 -95t-76.5 -134h685q-43 119 -133.5 191.5t-207.5 72.5q-79 0 -148 -35z" />
    <glyph glyph-name="f" unicode="f" horiz-adv-x="728" 
d="M62 865q-15 0 -24.5 9t-9.5 26v172q0 17 9.5 25.5t24.5 8.5h150v113q0 117 44 215t135 157.5t227 59.5q32 0 42.5 -11t10.5 -37v-169q0 -24 -12.5 -34.5t-39.5 -10.5q-53 0 -81.5 -22.5t-39 -66t-10.5 -116.5v-78h148q34 0 34 -34v-172q0 -35 -34 -35h-148v-827
q0 -38 -37 -38h-201q-38 0 -38 38v827h-150z" />
    <glyph glyph-name="g" unicode="g" horiz-adv-x="1496" 
d="M1263.5 -115.5q-79.5 -146.5 -219.5 -220.5t-322 -74q-120 0 -237.5 40.5t-201.5 111.5q-17 14 -17 28q0 10 12 28l80 116q13 20 34 20q16 0 34 -12q126 -88 316 -88q96 0 172 42.5t118.5 118.5t42.5 173v4q-82 -86 -171.5 -128.5t-208.5 -42.5q-160 0 -299 78
t-222.5 218.5t-83.5 317.5q0 167 83.5 310.5t223 229t298.5 85.5q230 0 393 -176l17 113q4 27 14 38t33 11h155q36 0 36 -42v-942q0 -211 -79.5 -357.5zM1036.5 802q-47.5 87 -130.5 138.5t-186 51.5q-107 0 -189.5 -51.5t-128.5 -139t-46 -191.5q0 -110 48.5 -196t133 -134
t187.5 -48q102 0 184 51t128.5 138.5t46.5 190.5t-47.5 190z" />
    <glyph glyph-name="h" unicode="h" horiz-adv-x="1306" 
d="M898 817q-28 72 -85 113.5t-141 41.5q-73 0 -132 -36.5t-93 -104.5t-34 -158v-631q0 -19 -10 -30.5t-30 -11.5h-199q-40 0 -40 42v1498q0 42 40 42h199q18 0 29 -12t11 -30v-457q65 71 146 109.5t175 38.5q172 0 277 -85t149 -212t44 -264v-628q0 -19 -10 -30.5
t-30 -11.5h-199q-39 0 -39 42v611q0 92 -28 164z" />
    <glyph glyph-name="i" unicode="i" 
d="M188 1665h167q55 0 55 -61v-168q0 -30 -13.5 -42t-41.5 -12h-167q-60 0 -60 54v168q0 61 60 61zM147 1216q11 10 27 10h204q17 0 27 -10.5t10 -28.5v-1148q0 -39 -37 -39h-204q-38 0 -38 39v1148q0 19 11 29z" />
    <glyph glyph-name="j" unicode="j" horiz-adv-x="549" 
d="M195 1665h167q55 0 55 -61v-168q0 -30 -13.5 -42t-41.5 -12h-167q-60 0 -60 54v168q0 61 60 61zM173 1224h200q38 0 38 -41v-1173q0 -113 -53 -205.5t-153.5 -146.5t-237.5 -54q-27 0 -43 11.5t-16 25.5v142q0 18 9 31.5t40 13.5q94 0 135 53.5t41 150.5v1151q0 41 40 41
z" />
    <glyph glyph-name="k" unicode="k" horiz-adv-x="1277" 
d="M1228 65q11 -14 11 -29t-11 -25.5t-26 -10.5h-238q-16 0 -27 7.5t-26 27.5l-381 495l-119 -120v-371q0 -39 -37 -39h-203q-37 0 -37 39v1504q0 39 37 39h203q37 0 37 -39v-809l439 466q16 17 28.5 21.5t33.5 4.5h203q20 0 31.5 -11.5t11.5 -27.5q0 -13 -9 -24l-441 -454z
" />
    <glyph glyph-name="l" unicode="l" horiz-adv-x="545" 
d="M145.5 1570q11.5 11 29.5 11h195q18 0 29.5 -12t11.5 -30v-1497q0 -19 -10.5 -30.5t-30.5 -11.5h-195q-41 0 -41 42v1497q0 20 11.5 31z" />
    <glyph glyph-name="m" unicode="m" horiz-adv-x="2058" 
d="M371 0h-198q-39 0 -39 41v1144q0 41 39 41h137q20 0 36 -14.5t20 -34.5l14 -115q67 84 155.5 129t192.5 45q122 0 210.5 -52t144.5 -162q70 105 159.5 159.5t229.5 54.5q153 0 257.5 -69.5t156 -186.5t51.5 -261v-678q0 -41 -39 -41h-194q-40 0 -40 41v678q0 64 -29 123
t-84.5 96t-130.5 37q-65 0 -122 -32.5t-91 -88.5t-34 -122v-692q0 -40 -38 -40h-195q-40 0 -40 40v683q0 61 -29 119.5t-83 96t-126 37.5q-57 0 -114.5 -28t-96.5 -85.5t-39 -141.5v-680q2 -41 -41 -41z" />
    <glyph glyph-name="n" unicode="n" horiz-adv-x="1306" 
d="M390.5 11q-16.5 -11 -38.5 -11h-177q-41 0 -41 41v1144q0 41 41 41h130q20 0 36 -14t21 -35l16 -138q69 99 169.5 147.5t212.5 48.5q111 0 216.5 -56t174 -173t68.5 -289v-677q0 -40 -38 -40h-193q-41 0 -41 40v668q0 69 -35 131.5t-96 100t-136 37.5q-65 0 -128.5 -34.5
t-104 -99t-40.5 -148.5v-654q0 -19 -16.5 -30z" />
    <glyph glyph-name="o" unicode="o" horiz-adv-x="1434" 
d="M172.5 924.5q84.5 144.5 229 229t315.5 84.5q172 0 318 -84.5t232 -229t86 -315.5t-86 -316t-232 -230t-317 -85t-315.5 85t-229.5 230t-85 316t84.5 315.5zM407.5 419.5q45.5 -86.5 126.5 -137t184 -50.5q104 0 186.5 51t128.5 137.5t46 188.5t-46.5 187.5t-128.5 136
t-186 50.5q-102 0 -183.5 -50t-127 -135.5t-45.5 -188.5t45.5 -189.5z" />
    <glyph glyph-name="p" unicode="p" horiz-adv-x="1480" 
d="M174 1226h137q46 0 58 -56l21 -119q78 87 180 136t214 49q162 0 301 -79t221 -220.5t82 -320.5q0 -173 -78 -317t-216.5 -228.5t-310.5 -84.5q-112 0 -209.5 43.5t-171.5 122.5v-481q0 -40 -38 -40h-190q-40 0 -40 40v1515q0 40 40 40zM437.5 432.5
q45.5 -87.5 128.5 -143t189 -55.5t188 50.5t127.5 137t45.5 192.5t-44 190.5t-125.5 133t-190.5 48.5q-106 0 -189.5 -54t-129 -139.5t-45.5 -178.5q0 -94 45.5 -181.5z" />
    <glyph glyph-name="q" unicode="q" horiz-adv-x="1480" 
d="M1291 -369h-190q-38 0 -38 40v481q-75 -79 -172 -122.5t-209 -43.5q-172 0 -310.5 84.5t-216.5 228.5t-78 317q0 179 82 320.5t221 220.5t301 79q113 0 215 -48.5t179 -135.5l21 118q12 56 58 56h137q40 0 40 -40v-1515q0 -40 -40 -40zM1027.5 792.5
q-45.5 85.5 -129 139.5t-189.5 54q-109 0 -190.5 -48.5t-125.5 -133t-44 -190.5t45.5 -192.5t127.5 -137t188 -50.5t189 55.5t128.5 143t45.5 181.5q0 93 -45.5 178.5z" />
    <glyph glyph-name="r" unicode="r" horiz-adv-x="1048" 
d="M170 1225h138q25 0 39.5 -8t19.5 -37l19 -105q48 78 123.5 121t166.5 43q98 0 182 -43.5t139 -90.5q22 -21 22 -39q0 -13 -11 -27l-90 -127q-11 -16 -26 -16q-13 0 -30 12q-50 34 -102 56t-114 22t-116.5 -30t-89 -92t-34.5 -153v-671q1 -40 -39 -40h-197q-38 0 -38 40
v1144q0 41 38 41z" />
    <glyph glyph-name="s" unicode="s" horiz-adv-x="1054" 
d="M68.5 225q-3.5 9 -3.5 18q0 18 17 34l123 93q9 8 21 8q19 0 35 -22q46 -65 100.5 -103t134.5 -38q49 0 97.5 17.5t79.5 50t31 73.5q0 42 -18 65.5t-49 36t-96 31.5q-10 2 -67 19q-131 40 -211.5 91t-120 123.5t-39.5 175.5q0 83 52 163t148.5 130.5t222.5 50.5
q136 0 233.5 -56t161.5 -137q15 -20 15 -32q0 -14 -19 -29l-114 -94q-15 -12 -26 -12q-14 0 -30 19q-44 51 -93 76.5t-121 25.5q-76 0 -118.5 -32t-42.5 -83q0 -39 23 -62.5t62 -38.5t119 -37q15 -4 33 -9t39 -12q164 -49 244 -150t80 -228q0 -119 -65.5 -203.5t-170 -126.5
t-218.5 -42q-144 0 -257 60t-181 165q-8 12 -11.5 21z" />
    <glyph glyph-name="t" unicode="t" horiz-adv-x="724" 
d="M610 1218q41 0 41 -42v-159q0 -20 -13 -31t-32 -11h-138v-598q0 -65 23 -103.5t81 -41.5l31 -2q33 -2 41 -17.5t8 -35.5v-136q0 -48 -74 -48q-112 0 -199.5 43t-136.5 123.5t-49 188.5v627h-111q-16 0 -29 11t-13 31v156q0 22 12.5 33.5t29.5 11.5h111v201q0 21 8 30.5
t31 15.5l196 57q8 2 11 2q14 0 21.5 -12t7.5 -31v-263h142z" />
    <glyph glyph-name="u" unicode="u" horiz-adv-x="1344" 
d="M980 1226h199q40 0 40 -41v-1144q0 -41 -40 -41h-128q-20 0 -36 14t-20 34l-27 119q-123 -178 -358 -178q-115 0 -223.5 52t-180.5 168.5t-72 298.5v677q0 41 39 41h194q40 0 40 -41v-671q2 -78 37 -139t97 -95t143 -34q49 0 108.5 29.5t103 96.5t43.5 172v641
q0 41 41 41z" />
    <glyph glyph-name="v" unicode="v" horiz-adv-x="1183" 
d="M644 0h-105q-34 0 -49 35l-462 1127q-6 15 -6 27q0 18 11.5 27.5t30.5 9.5h196q34 0 48 -38l283 -787l283 790q12 35 48 35h219q31 0 31 -26q0 -10 -8 -31l-471 -1134q-15 -35 -49 -35z" />
    <glyph glyph-name="w" unicode="w" horiz-adv-x="1851" 
d="M1309 0h-114q-34 0 -49 35l-222 547l-219 -547q-15 -35 -49 -35h-120q-34 0 -49 35l-459 1127q-6 15 -6 27q0 18 11.5 27.5t30.5 9.5h196q34 0 48 -38l282 -798l288 801q12 35 48 35h208q32 0 32 -25q0 -11 -8 -32l-112 -285l206 -486l299 793q14 35 48 35h198
q32 0 32 -25q0 -11 -8 -32l-463 -1134q-15 -35 -49 -35z" />
    <glyph glyph-name="x" unicode="x" horiz-adv-x="1210" 
d="M69 1173q-9 14 -9 26t9 19.5t25 7.5h220q19 0 29 -8t22 -27l236 -371l236 371q12 19 22 27t29 8h220q16 0 25.5 -7.5t9.5 -19.5q0 -13 -10 -26l-375 -546l388 -551q14 -19 14 -39q0 -16 -10.5 -26.5t-31.5 -10.5h-229q-33 0 -52 34l-236 392l-236 -392q-21 -34 -52 -34
h-229q-21 0 -31.5 10.5t-10.5 26.5q0 20 14 39l388 550z" />
    <glyph glyph-name="y" unicode="y" horiz-adv-x="1252" 
d="M520 -372h-185q-42 0 -42 34q0 13 6 30l162 414l-427 1055q-6 15 -6 26q0 19 13 28.5t31 9.5h181q34 0 48 -38l288 -781l293 783q14 36 48 36h205q40 0 40 -33q0 -12 -5 -25l-601 -1504q-15 -35 -49 -35z" />
    <glyph glyph-name="z" unicode="z" horiz-adv-x="1177" 
d="M1061 242q16 0 25 -9.5t9 -22.5v-177q0 -15 -9.5 -24t-24.5 -9h-947q-33 0 -33 36v127q0 12 5 25t12 22l671 775h-633q-16 0 -25 9.5t-9 22.5v175q0 15 10 24.5t24 9.5h926q16 0 23.5 -9t7.5 -30l-1 -154q0 -28 -13 -42l-650 -749h632z" />
    <glyph glyph-name="braceleft" unicode="{" horiz-adv-x="803" 
d="M115 796.5q10 7.5 25 7.5q42 0 67.5 6t41.5 26t16 60v340q0 194 89 289.5t184 118.5t167 23q29 0 29 -29v-224q0 -14 -9.5 -21.5t-23.5 -7.5q-55 0 -109.5 -27t-54.5 -120v-412q0 -87 -69 -153q69 -67 69 -152v-412q0 -92 54.5 -119.5t109.5 -27.5q14 0 23.5 -7.5
t9.5 -21.5v-224q0 -29 -29 -29q-72 0 -167 23t-184 118.5t-89 289.5v340q0 42 -16 61.5t-42 25t-70 5.5q-14 0 -23 7.5t-9 21.5v203q0 14 10 21.5z" />
    <glyph glyph-name="bar" unicode="|" horiz-adv-x="536" 
d="M190 1426h154q38 0 38 -38v-1721q0 -38 -38 -38h-154q-38 0 -38 38v1721q0 38 38 38z" />
    <glyph glyph-name="braceright" unicode="}" horiz-adv-x="785" 
d="M681 550.5q-9 -7.5 -23 -7.5q-44 0 -70 -5.5t-42 -25t-16 -61.5v-340q0 -194 -89 -289.5t-184 -118.5t-167 -23q-29 0 -29 29v224q0 14 9.5 21.5t23.5 7.5q55 0 109.5 27.5t54.5 119.5v412q0 85 69 152q-69 66 -69 153v412q0 93 -54.5 120t-109.5 27q-14 0 -23.5 7.5
t-9.5 21.5v224q0 29 29 29q72 0 167 -23t184 -118.5t89 -289.5v-340q0 -40 16 -60t41.5 -26t67.5 -6q15 0 25 -7.5t10 -21.5v-203q0 -14 -9 -21.5z" />
    <glyph glyph-name="asciitilde" unicode="~" horiz-adv-x="885" 
d="M229 440q-17 0 -40 23l-44 43q-11 10 -15.5 16t-4.5 12t4.5 13t9 13.5t7.5 10.5q39 54 88.5 83t106.5 29q33 -1 65 -15.5t72 -38.5q31 -19 52 -29t39 -10q25 0 45.5 13.5t41.5 39.5q18 22 35 22q14 0 28 -14l62 -63q11 -11 11 -22q0 -9 -7 -20q-40 -61 -93.5 -93
t-116.5 -32q-33 0 -63.5 13.5t-70.5 38.5q-30 20 -52 30.5t-42 10.5q-28 0 -46 -13t-31.5 -29t-18.5 -21q-10 -11 -22 -11z" />
    <glyph glyph-name="exclamdown" unicode="&#xa1;" 
d="M174 1212q13 9 26 9h215q14 0 27 -8.5t13 -30.5v-215q0 -14 -9 -27t-31 -13h-215q-16 0 -27.5 11t-11.5 31v213q0 21 13 30zM178 789.5q10 10.5 29 10.5h203q37 0 37 -40v-1079q0 -39 -37 -39h-203q-19 0 -29 10.5t-10 28.5v1080q0 18 10 28.5z" />
    <glyph glyph-name="cent" unicode="&#xa2;" horiz-adv-x="1198" 
d="M563 -195.5q-8 8.5 -8 22.5v170q-137 32 -246.5 119t-171.5 215t-62 279q0 147 62.5 274t172 215t245.5 121v176q0 29 29 29h223q12 0 20.5 -9t8.5 -21v-170q72 -14 135.5 -45.5t126.5 -80.5q15 -12 15 -26q0 -9 -5 -17l-98 -152q-8 -11 -23 -11q-14 0 -23 8
q-66 47 -129.5 69t-131.5 22q-94 0 -177.5 -49.5t-134.5 -137.5t-51 -196t47.5 -194.5t130 -135.5t183.5 -49q72 0 138.5 27t118.5 68q11 9 24 9q15 0 24 -12l98 -143q10 -14 10 -27q0 -14 -17 -29q-49 -43 -117.5 -77t-143.5 -51v-169q0 -11 -7.5 -20.5t-21.5 -9.5h-222
q-14 0 -22 8.5z" />
    <glyph glyph-name="sterling" unicode="&#xa3;" horiz-adv-x="1154" 
d="M682 791q29 0 29 -30v-177q0 -13 -8.5 -21t-21.5 -8h-261v-296h601q39 0 39 -37v-184q0 -38 -39 -38h-844q-37 0 -37 38v926q0 136 73.5 247.5t192 174.5t246.5 63q108 0 195.5 -31t166.5 -89q18 -15 28 -26t10 -26q0 -6 -5 -16l-75 -132q-15 -25 -37 -25q-15 0 -36 15
q-48 36 -99 58t-132 22q-59 0 -117 -34.5t-94.5 -90t-36.5 -115.5v-168h262z" />
    <glyph glyph-name="currency" unicode="&#xa4;" horiz-adv-x="1035" 
d="M199 802l-83 88q-10 10 -10 22q0 11 9 20l127 119q10 10 20 10q12 0 22 -10l81 -83q72 35 153 35q76 0 150 -33l80 81q10 10 20 10q11 0 21 -10l128 -119q8 -8 8 -20q0 -13 -9 -22l-79 -82q38 -76 38 -159q0 -84 -37 -155l77 -77q11 -11 11 -23q0 -11 -11 -20l-125 -119
q-9 -9 -21 -9t-21 9l-77 75q-72 -34 -153 -34q-82 0 -156 36l-78 -77q-11 -9 -22 -9t-20 9l-126 119q-10 10 -10 21q0 12 10 22l81 81q-33 74 -33 151q0 81 35 153zM374 572q21 -37 57.5 -59t81.5 -22t82 22.5t58.5 59.5t21.5 81t-21.5 82t-58.5 60t-82 22t-81.5 -22
t-57.5 -59.5t-21 -82.5t21 -82z" />
    <glyph glyph-name="yen" unicode="&#xa5;" horiz-adv-x="1313" 
d="M293.5 726q9.5 9 22.5 9h134l-381 648q-6 11 -6 18q0 11 8.5 18t22.5 7h239q16 0 26.5 -8t20.5 -27l287 -551l293 551q10 19 20.5 27t26.5 8h239q14 0 22.5 -7t8.5 -18q0 -7 -6 -18l-386 -648h149q31 0 31 -32v-109q0 -14 -9.5 -22.5t-24.5 -8.5h-223v-99h226
q31 0 31 -32v-109q0 -14 -9.5 -22.5t-24.5 -8.5h-223v-253q0 -39 -38 -39h-205q-38 0 -38 39v253h-211q-13 0 -22.5 8t-9.5 23v107q0 16 9.5 25t22.5 9h211v99h-211q-13 0 -22.5 8t-9.5 23v107q0 16 9.5 25z" />
    <glyph glyph-name="brokenbar" unicode="&#xa6;" horiz-adv-x="574" 
d="M215 1426h135q37 0 37 -38v-722q0 -38 -37 -38h-135q-38 0 -38 38v722q0 38 38 38zM215 429h135q37 0 37 -39v-721q0 -38 -37 -38h-135q-38 0 -38 38v721q0 39 38 39z" />
    <glyph glyph-name="section" unicode="&#xa7;" horiz-adv-x="1027" 
d="M663 1263q-65 30 -129 30q-48 0 -91.5 -18t-71 -52.5t-27.5 -81.5q0 -35 27.5 -59t67 -39t103.5 -33l42 -12q170 -51 246 -120t76 -176q0 -76 -36.5 -134.5t-101.5 -94.5q61 -43 95 -100.5t34 -126.5q0 -22 -5 -50q-16 -81 -71 -141.5t-137.5 -93t-177.5 -32.5
q-64 0 -134 23t-134 72t-106 124q-7 13 -7 22q0 14 11 19l86 61q9 7 20 7q16 0 30 -19q36 -60 100.5 -101t136.5 -41q45 0 93 17.5t80 52.5t32 85q0 53 -59 87.5t-155 58.5q-174 45 -262 116.5t-88 181.5q0 78 36 136.5t104 93.5q-60 39 -94.5 96.5t-34.5 126.5q0 25 4 48
q16 80 67.5 139.5t130 91.5t174.5 32q127 0 213 -49.5t153 -152.5q13 -17 13 -29q0 -11 -16 -22l-80 -56q-6 -3 -12 -3q-16 0 -32 21q-48 65 -113 95zM610 578.5q45 12.5 76 43t31 77.5q0 52 -38 80t-112 49q-18 3 -41 3q-73 0 -130.5 -32.5t-57.5 -100.5q0 -41 45 -78.5
t140 -50.5q42 -3 87 9.5z" />
    <glyph glyph-name="dieresis" unicode="&#xa8;" horiz-adv-x="872" 
d="M177 1453h133q25 0 35.5 -12t10.5 -37v-132q0 -26 -11.5 -36t-34.5 -10h-133q-25 0 -36.5 10t-11.5 35v133q0 49 48 49zM564 1453h133q25 0 35.5 -12t10.5 -37v-132q0 -26 -11.5 -36t-34.5 -10h-133q-25 0 -36.5 10t-11.5 35v133q0 49 48 49z" />
    <glyph glyph-name="copyright" unicode="&#xa9;" horiz-adv-x="1772" 
d="M199.5 1107.5q105.5 179.5 285.5 285t393 105.5q211 0 391 -105.5t285.5 -285.5t105.5 -393q0 -211 -105.5 -390.5t-285.5 -285t-393 -105.5q-212 0 -391.5 105.5t-285 285.5t-105.5 392t105.5 391.5zM359 409q82 -136 219.5 -214.5t295.5 -78.5q166 0 305 86t219.5 226
t80.5 294q0 165 -83 300t-219.5 211.5t-288.5 76.5q-170 0 -310.5 -86t-220.5 -225t-80 -292q0 -162 82 -298zM1181 1049q0 -6 -5 -16l-63 -112q-7 -12 -11.5 -16.5t-12.5 -4.5q-6 0 -22 8q-45 25 -84.5 34.5t-80.5 9.5q-70 0 -126 -33.5t-87.5 -90t-31.5 -120.5
q0 -72 33.5 -127t90 -85.5t124.5 -32.5q42 0 81 9.5t80 35.5q11 6 19 6q13 0 24 -16l62 -103q8 -14 8 -24q0 -18 -19 -30q-56 -41 -126 -62.5t-145 -21.5q-123 0 -226.5 60.5t-164 164.5t-60.5 228q0 123 61.5 227t165.5 164.5t226 60.5q151 0 264 -79q26 -18 26 -34z" />
    <glyph glyph-name="ordfeminine" unicode="&#xaa;" horiz-adv-x="981" 
d="M639 784.5q-21 -21.5 -65.5 -40t-112.5 -18.5q-97 0 -179 48t-130 130t-48 179q0 96 46.5 178t126 130.5t172.5 48.5q84 0 140.5 -29.5t103.5 -92.5l10 81q4 28 30 28h87q30 0 30 -28l2 -634q0 -11 -6 -19.5t-20 -8.5h-115q-15 0 -21 10t-6 21v71q-24 -33 -45 -54.5z
M299.5 990.5q24.5 -42.5 66.5 -67t93 -24.5t93.5 24.5t67 67t24.5 93.5q0 50 -25 92.5t-67 67.5t-93 25t-93 -24.5t-66.5 -67t-24.5 -93.5t24.5 -93.5z" />
    <glyph glyph-name="guillemotleft" unicode="&#xab;" horiz-adv-x="1367" 
d="M94 587q2 3 11 12l521 519q12 12 27 12q11 0 20 -9l105 -102q12 -12 12 -28t-11 -26l-394 -390l394 -388q11 -11 11 -26q0 -16 -12 -28l-105 -103q-8 -8 -20 -8q-15 0 -27 12l-521 518q-9 9 -11 12.5t-2 11.5t2 11zM616 587q2 3 11 12l489 497q12 12 27 12q11 0 20 -9
l105 -102q12 -12 12 -29q0 -15 -10 -25l-363 -368l368 -373q10 -10 10 -25q0 -17 -12 -29l-105 -103q-8 -8 -20 -8q-15 0 -27 12l-494 503q-9 9 -11 12.5t-2 11.5t2 11z" />
    <glyph glyph-name="logicalnot" unicode="&#xac;" horiz-adv-x="1116" 
d="M120.5 613.5q-10.5 7.5 -11.5 22.5l-1 128q0 47 39 47h802q39 0 39 -38v-428q0 -15 -9 -26t-23 -11l-149 -1q-20 0 -32.5 10.5t-12.5 27.5v261h-615q-16 0 -26.5 7.5z" />
    <glyph glyph-name="uni00AD" unicode="&#xad;" horiz-adv-x="1040" 
d="M184.5 682.5q13.5 12.5 30.5 12.5h634q43 0 43 -45v-133q0 -20 -13 -31t-35 -11h-629q-17 0 -30.5 11t-13.5 31v131q0 22 13.5 34.5z" />
    <glyph glyph-name="registered" unicode="&#xae;" horiz-adv-x="1768" 
d="M204.5 1117q106.5 182 288.5 289t397 107q216 0 398 -107t288.5 -289t106.5 -397t-106.5 -397t-288.5 -288.5t-398 -106.5q-215 0 -397 106.5t-288.5 288.5t-106.5 397t106.5 397zM382 421q76 -136 207.5 -215.5t291.5 -79.5q161 0 298 79.5t217.5 216t80.5 297.5
q0 172 -80 307t-216 209.5t-300 74.5q-160 0 -291.5 -79t-207.5 -214.5t-76 -297.5t76 -298zM592 1121q5 6 16 6h369q73 0 131.5 -37.5t92 -99t33.5 -130.5q0 -74 -43.5 -137.5t-113.5 -98.5l146 -281q3 -4 3 -9q0 -8 -5 -13.5t-14 -5.5h-141q-17 0 -28 20l-134 261h-130
v-258q0 -25 -25 -25h-138q-24 0 -24 25v768q0 9 5 15zM774 757h153q51 0 84 31.5t33 79.5q0 47 -33.5 80t-83.5 33h-153v-224z" />
    <glyph glyph-name="macron" unicode="&#xaf;" horiz-adv-x="954" 
d="M92.5 1416.5q8.5 8.5 22.5 8.5h715q29 0 29 -29v-114q0 -14 -8.5 -21.5t-21.5 -7.5h-715q-11 0 -20.5 7.5t-9.5 21.5v112q0 14 8.5 22.5z" />
    <glyph glyph-name="degree" unicode="&#xb0;" horiz-adv-x="624" 
d="M132 1190q28 48 75.5 76t104.5 28t104.5 -28t75.5 -76t28 -105t-28 -104.5t-75.5 -75.5t-104.5 -28t-104.5 28t-75.5 75.5t-28 104.5t28 105zM245.5 1018.5q26.5 -26.5 64.5 -26.5q39 0 66 26.5t27 65.5t-26.5 65.5t-66.5 26.5q-38 0 -64.5 -26.5t-26.5 -65.5t26.5 -65.5
z" />
    <glyph glyph-name="plusminus" unicode="&#xb1;" horiz-adv-x="954" 
d="M361 343q-8 9 -8 23v222h-216q-11 0 -20 7.5t-9 21.5v156q0 14 8.5 22t22.5 8h214v233q0 29 29 29h171q14 0 21.5 -8.5t7.5 -21.5v-232h220q29 0 29 -29v-157q0 -13 -9 -21t-22 -8h-218v-224q0 -11 -7.5 -20.5t-21.5 -9.5h-170q-14 0 -22 9zM109 37v137q0 24 12 33t26 9
h633q18 0 28.5 -10t10.5 -28v-138q0 -16 -10 -28t-29 -12h-633q-38 0 -38 37z" />
    <glyph glyph-name="uni00B2" unicode="&#xb2;" horiz-adv-x="803" 
d="M453 865l-82 -82h266q34 0 34 -34v-88q0 -15 -9.5 -24.5t-24.5 -9.5h-480q-15 0 -25.5 9.5t-10.5 24.5v79q0 11 6 18l340 350q22 24 29 39t7 36q0 26 -15 49t-40 37.5t-54 14.5q-45 0 -75.5 -32.5t-30.5 -75.5v-43q0 -32 -33 -32h-96q-16 0 -23.5 9.5t-7.5 22.5v43
q0 73 36 132t97 92.5t133 33.5q73 0 136.5 -31t102 -87.5t38.5 -128.5q0 -57 -22.5 -104t-59.5 -80q-45 -47 -136 -138z" />
    <glyph glyph-name="uni00B3" unicode="&#xb3;" horiz-adv-x="726" 
d="M315 976.5q-7 5.5 -7 20.5v99q0 34 34 34q38 0 54.5 20.5t16.5 48.5q0 76 -65 76q-36 0 -48 -22t-12 -60q0 -18 -7.5 -26t-27.5 -8h-89q-33 0 -33 31q0 119 62 176.5t160 57.5q59 0 109.5 -29.5t80.5 -80t30 -110.5q0 -79 -45 -130q48 -35 71.5 -82t23.5 -121
q0 -73 -34 -133t-94.5 -94.5t-137.5 -34.5q-81 0 -138.5 23.5t-91 86.5t-33.5 176q0 24 32 32h96q32 0 32 -32q0 -70 27.5 -98t75.5 -28q51 0 78.5 26.5t27.5 77.5q0 55 -27 76.5t-94 21.5q-20 0 -27 5.5z" />
    <glyph glyph-name="acute" unicode="&#xb4;" horiz-adv-x="499" 
d="M337 1239.5q-10 -6.5 -29 -6.5h-139q-12 0 -22 7.5t-10 21.5q0 9 4 18l88 217q8 21 19 29t31 8h156q13 0 21.5 -9t8.5 -23q0 -10 -4 -18l-104 -214q-10 -24 -20 -30.5z" />
    <glyph glyph-name="uni00B5" unicode="&#xb5;" horiz-adv-x="1306" 
d="M973 1226h160q60 0 60 -57v-1115q0 -25 -19 -42t-42 -17h-160q-26 0 -41 16.5t-15 42.5v22q-51 -48 -110.5 -70.5t-121.5 -22.5q-60 0 -116 19t-97 51t-59 68v-435q0 -23 -18 -40t-41 -17h-158q-29 0 -45 15.5t-16 42.5v1482q0 57 62 57h158q58 0 58 -59v-680
q1 -74 38.5 -130.5t95 -87t117.5 -30.5q70 0 125.5 33.5t88.5 89t39 119.5v688q0 57 57 57z" />
    <glyph glyph-name="paragraph" unicode="&#xb6;" horiz-adv-x="1404" 
d="M1286 1416.5q10 -8.5 10 -25.5v-135q0 -16 -12 -26.5t-35 -10.5h-139v-1187q0 -32 -29 -32h-154q-29 0 -29 29v1190h-202v-1190q0 -29 -27 -29h-159q-12 0 -20 8t-8 22v615q-120 0 -212.5 47.5t-144.5 136.5t-52 209q0 110 54 198.5t146 138.5t203 50h775q25 0 35 -8.5z
" />
    <glyph glyph-name="periodcentered" unicode="&#xb7;" horiz-adv-x="545" 
d="M138.5 709q9.5 9 24.5 9h189q19 0 26.5 -11.5t7.5 -23.5v-188q0 -18 -10.5 -25.5t-22.5 -7.5h-192q-10 0 -21 7.5t-11 25.5v188q0 17 9.5 26z" />
    <glyph glyph-name="cedilla" unicode="&#xb8;" horiz-adv-x="534" 
d="M110 -100.5q-6 21.5 -6 46.5q0 34 11 61q18 8 36 8h119q15 -3 21.5 -7t10.5 -13q-1 -8 -4.5 -21.5t-3.5 -23.5q0 -22 19 -36q3 -2 31 -22q44 -32 70 -54t43.5 -49.5t17.5 -58.5q0 -20 -7 -40q-15 -43 -52.5 -85.5t-94 -76t-124.5 -48.5q-8 -2 -12 -2q-16 0 -23 14
l-46 101q-2 4 -2 7q0 7 4.5 13t9.5 8q73 18 112 44.5t39 61.5q0 30 -21.5 49.5t-66.5 46.5q-44 24 -63 43q-12 12 -18 33.5z" />
    <glyph glyph-name="uni00B9" unicode="&#xb9;" horiz-adv-x="449" 
d="M305.5 1420q7.5 -7 7.5 -20v-730q0 -28 -28 -28h-107q-14 0 -20.5 8t-6.5 19v610l-63 -30q-4 -3 -10 -3q-8 0 -14.5 6.5t-8.5 15.5v81q-1 12 2.5 19.5t17.5 15.5l82 36q10 5 18 6t16 1h95q12 0 19.5 -7z" />
    <glyph glyph-name="ordmasculine" unicode="&#xba;" horiz-adv-x="981" 
d="M154 1258q50 86 136 136.5t188 50.5t188 -50.5t136 -136.5t50 -188q0 -104 -51 -189.5t-136.5 -134.5t-186.5 -49q-102 0 -187.5 50.5t-136 136t-50.5 186.5q0 102 50 188zM317 976q25 -42 67 -66.5t92 -24.5q51 0 93.5 24.5t67 66.5t24.5 93t-24.5 93.5t-67 67
t-93.5 24.5q-50 0 -92 -25t-67 -67.5t-25 -92.5q0 -51 25 -93z" />
    <glyph glyph-name="guillemotright" unicode="&#xbb;" horiz-adv-x="1371" 
d="M1288 564.5q-2 -3.5 -11 -12.5l-521 -518q-12 -12 -27 -12q-12 0 -20 8l-105 103q-12 12 -12 28q0 15 11 26l394 388l-394 390q-11 10 -11 26t12 28l105 102q9 9 20 9q15 0 27 -12l521 -519q9 -9 11 -12t2 -11t-2 -11.5zM766 564.5q-2 -3.5 -11 -12.5l-494 -503
q-12 -12 -27 -12q-12 0 -20 8l-105 103q-12 12 -12 29q0 15 10 25l368 373l-363 368q-10 10 -10 25q0 17 12 29l105 102q9 9 20 9q15 0 27 -12l489 -497q9 -9 11 -12t2 -11t-2 -11.5z" />
    <glyph glyph-name="onequarter" unicode="&#xbc;" horiz-adv-x="1442" 
d="M364.5 1420q7.5 -7 7.5 -20v-730q0 -28 -28 -28h-107q-14 0 -20.5 8t-6.5 19v610l-63 -30q-4 -3 -10 -3q-8 0 -14.5 6.5t-8.5 15.5v81q-1 12 2.5 19.5t17.5 15.5l82 36q10 5 18 6t16 1h95q12 0 19.5 -7zM957 1419q7 6 25 6h155q31 0 31 -23q0 -11 -7 -23l-730 -1354
q-10 -16 -19 -20.5t-23 -4.5h-163q-10 1 -15.5 7.5t-5.5 15.5q0 8 4 15l733 1363q8 12 15 18zM683 122q-10 12 -10 29q0 9 5 17.5t6 10.5l351 601q8 13 13.5 17t15.5 4h98q13 0 22 -11t9 -23v-493h67q17 0 27.5 -7.5t10.5 -23.5v-99q0 -13 -11.5 -23.5t-26.5 -10.5h-67v-84
q0 -18 -8 -25.5t-28 -7.5h-93q-33 0 -33 33v84h-318q-20 0 -30 12zM1031 487l-122 -213h122v213z" />
    <glyph glyph-name="onehalf" unicode="&#xbd;" horiz-adv-x="1555" 
d="M359.5 1420q7.5 -7 7.5 -20v-730q0 -28 -28 -28h-107q-14 0 -20.5 8t-6.5 19v610l-63 -30q-4 -3 -10 -3q-8 0 -14.5 6.5t-8.5 15.5v81q-1 12 2.5 19.5t17.5 15.5l82 36q10 5 18 6t16 1h95q12 0 19.5 -7zM955 1419q7 6 25 6h155q31 0 31 -23q0 -11 -7 -23l-730 -1354
q-10 -16 -19 -20.5t-23 -4.5h-163q-10 1 -15.5 7.5t-5.5 15.5q0 8 4 15l733 1363q8 12 15 18zM1244 241l-82 -82h266q34 0 34 -34v-88q0 -15 -9.5 -24.5t-24.5 -9.5h-480q-15 0 -25.5 9.5t-10.5 24.5v79q0 11 6 18l340 350q22 24 29 39t7 36q0 26 -15 49t-40 37.5t-54 14.5
q-45 0 -75.5 -32.5t-30.5 -75.5v-43q0 -32 -33 -32h-96q-16 0 -23.5 9.5t-7.5 22.5v43q0 73 36 132t97 92.5t133 33.5q73 0 136.5 -31t102 -87.5t38.5 -128.5q0 -57 -22.5 -104t-59.5 -80q-45 -47 -136 -138z" />
    <glyph glyph-name="threequarters" unicode="&#xbe;" horiz-adv-x="1471" 
d="M1051 1419q7 6 25 6h155q31 0 31 -23q0 -11 -7 -23l-730 -1354q-10 -16 -19 -20.5t-23 -4.5h-163q-10 1 -15.5 7.5t-5.5 15.5q0 8 4 15l733 1363q8 12 15 18zM293 976.5q-7 5.5 -7 20.5v99q0 34 34 34q38 0 54.5 20.5t16.5 48.5q0 76 -65 76q-36 0 -48 -22t-12 -60
q0 -18 -7.5 -26t-27.5 -8h-89q-33 0 -33 31q0 119 62 176.5t160 57.5q59 0 109.5 -29.5t80.5 -80t30 -110.5q0 -79 -45 -130q48 -35 71.5 -82t23.5 -121q0 -73 -34 -133t-94.5 -94.5t-137.5 -34.5q-81 0 -138.5 23.5t-91 86.5t-33.5 176q0 24 32 32h96q32 0 32 -32
q0 -70 27.5 -98t75.5 -28q51 0 78.5 26.5t27.5 77.5q0 55 -27 76.5t-94 21.5q-20 0 -27 5.5zM751 114q-10 12 -10 29q0 9 5 17.5t6 10.5l351 601q8 13 13.5 17t15.5 4h98q13 0 22 -11t9 -23v-493h67q17 0 27.5 -7.5t10.5 -23.5v-99q0 -13 -11.5 -23.5t-26.5 -10.5h-67v-84
q0 -18 -8 -25.5t-28 -7.5h-93q-33 0 -33 33v84h-318q-20 0 -30 12zM1099 479l-122 -213h122v213z" />
    <glyph glyph-name="questiondown" unicode="&#xbf;" horiz-adv-x="1091" 
d="M680.5 983q-10.5 -10 -25.5 -10h-196q-20 0 -29 12t-9 25v175q0 19 12.5 27.5t25.5 8.5h196q12 0 24 -8.5t12 -27.5v-173q0 -19 -10.5 -29zM440.5 782.5q9.5 11.5 33.5 11.5l171 2q21 0 28.5 -13t7.5 -37v-156q0 -73 -57 -134.5t-157 -127.5q-59 -39 -89.5 -65.5
t-48.5 -64.5t-18 -96q0 -52 31 -99t84.5 -75.5t117.5 -28.5q68 0 121.5 35t82.5 88t29 105q0 28 9 37.5t33 9.5h168q16 0 25.5 -9.5t9.5 -25.5q0 -142 -64 -250t-174.5 -166.5t-247.5 -58.5q-119 0 -227.5 58t-175 157.5t-66.5 217.5q0 104 28 171.5t72.5 109t122.5 94.5
l18 12q40 25 64 44.5t41.5 47t17.5 63.5v105q0 27 9.5 38.5z" />
    <glyph glyph-name="Agrave" unicode="&#xc0;" horiz-adv-x="1440" 
d="M505 1836q0 14 8.5 23t21.5 9h156q19 0 30 -7.5t19 -28.5l89 -218q3 -9 3 -17q0 -14 -9.5 -21.5t-21.5 -7.5h-139q-20 0 -29.5 6.5t-20.5 29.5l-103 214q-4 8 -4 18zM658 1426h160q34 0 49 -37l541 -1348q4 -9 4 -17q0 -12 -8 -18t-23 -6h-210q-33 0 -47 35l-93 230h-588
l-92 -229q-7 -20 -18.5 -28t-29.5 -8h-210q-30 0 -30 23q0 9 4 18l543 1348q15 37 48 37zM940 513l-202 544l-205 -544h407z" />
    <glyph glyph-name="Aacute" unicode="&#xc1;" horiz-adv-x="1440" 
d="M845 1575.5q-10 -6.5 -29 -6.5h-139q-12 0 -22 7.5t-10 21.5q0 9 4 18l88 217q8 21 19 29t31 8h156q13 0 21.5 -9t8.5 -23q0 -10 -4 -18l-104 -214q-10 -24 -20 -30.5zM658 1426h160q34 0 49 -37l541 -1348q4 -9 4 -17q0 -12 -8 -18t-23 -6h-210q-33 0 -47 35l-93 230
h-588l-92 -229q-7 -20 -18.5 -28t-29.5 -8h-210q-30 0 -30 23q0 9 4 18l543 1348q15 37 48 37zM940 513l-202 544l-205 -544h407z" />
    <glyph glyph-name="Acircumflex" unicode="&#xc2;" horiz-adv-x="1440" 
d="M737 1930q13 0 27 -14l236 -235q15 -13 15 -28t-14 -27l-65 -64q-13 -13 -27 -13q-15 0 -28 13l-146 146l-146 -146q-13 -13 -27 -13q-13 0 -26 12l-64 63q-13 13 -13 26q0 14 14 28l237 238q14 14 27 14zM658 1426h160q34 0 49 -37l541 -1348q4 -9 4 -17q0 -12 -8 -18
t-23 -6h-210q-33 0 -47 35l-93 230h-588l-92 -229q-7 -20 -18.5 -28t-29.5 -8h-210q-30 0 -30 23q0 9 4 18l543 1348q15 37 48 37zM940 513l-202 544l-205 -544h407z" />
    <glyph glyph-name="Atilde" unicode="&#xc3;" horiz-adv-x="1440" 
d="M507 1590q-17 0 -40 23l-44 43q-11 10 -15.5 16t-4.5 12t4.5 13t9 13.5t7.5 10.5q39 54 88.5 83t106.5 29q33 -1 65 -15.5t72 -38.5q31 -19 52 -29t39 -10q25 0 45.5 13.5t41.5 39.5q18 22 35 22q14 0 28 -14l62 -63q11 -11 11 -22q0 -9 -7 -20q-40 -61 -93.5 -93
t-116.5 -32q-33 0 -63.5 13.5t-70.5 38.5q-30 20 -52 30.5t-42 10.5q-28 0 -46 -13t-31.5 -29t-18.5 -21q-10 -11 -22 -11zM658 1426h160q34 0 49 -37l541 -1348q4 -9 4 -17q0 -12 -8 -18t-23 -6h-210q-33 0 -47 35l-93 230h-588l-92 -229q-7 -20 -18.5 -28t-29.5 -8h-210
q-30 0 -30 23q0 9 4 18l543 1348q15 37 48 37zM940 513l-202 544l-205 -544h407z" />
    <glyph glyph-name="Adieresis" unicode="&#xc4;" horiz-adv-x="1440" 
d="M467 1793h133q25 0 35.5 -12t10.5 -37v-132q0 -26 -11.5 -36t-34.5 -10h-133q-25 0 -36.5 10t-11.5 35v133q0 49 48 49zM854 1793h133q25 0 35.5 -12t10.5 -37v-132q0 -26 -11.5 -36t-34.5 -10h-133q-25 0 -36.5 10t-11.5 35v133q0 49 48 49zM658 1426h160q34 0 49 -37
l541 -1348q4 -9 4 -17q0 -12 -8 -18t-23 -6h-210q-33 0 -47 35l-93 230h-588l-92 -229q-7 -20 -18.5 -28t-29.5 -8h-210q-30 0 -30 23q0 9 4 18l543 1348q15 37 48 37zM940 513l-202 544l-205 -544h407z" />
    <glyph glyph-name="Aring" unicode="&#xc5;" horiz-adv-x="1440" 
d="M837 1937q46 -27 73.5 -73t27.5 -101t-27 -101t-73.5 -72.5t-101.5 -26.5t-101 26.5t-73 72.5t-27 101t27 101t73 73t101 27t101 -27zM683 1818q-21 -22 -21 -54q0 -33 21 -54t53 -21q34 0 56 21t22 54q0 32 -22 54t-56 22q-32 0 -53 -22zM658 1426h160q34 0 49 -37
l541 -1348q4 -9 4 -17q0 -12 -8 -18t-23 -6h-210q-33 0 -47 35l-93 230h-588l-92 -229q-7 -20 -18.5 -28t-29.5 -8h-210q-30 0 -30 23q0 9 4 18l543 1348q15 37 48 37zM940 513l-202 544l-205 -544h407z" />
    <glyph glyph-name="AE" unicode="&#xc6;" horiz-adv-x="2185" 
d="M286 0h-212q-14 0 -24.5 12t-10.5 26q0 10 6 17l1046 1330q36 41 72 41h904q25 0 39 -15t14 -41v-156q0 -20 -15 -36t-40 -16h-679v-310h544q22 0 36.5 -13t14.5 -38v-141q0 -19 -14 -34t-37 -15h-547v-347h706q53 0 53 -53v-158q0 -24 -15 -38.5t-39 -14.5h-939
q-51 0 -51 47q0 68 2 220h-568l-177 -227q-31 -40 -69 -40zM1109 518v486l-382 -486h382z" />
    <glyph glyph-name="Ccedilla" unicode="&#xc7;" horiz-adv-x="1359" 
d="M1259 145q0 -15 -22 -32q-147 -110 -333 -129q-1 -4 -1 -13q0 -23 19 -37q3 -2 31 -22q44 -32 70 -54t43.5 -49.5t17.5 -58.5q0 -20 -7 -40q-15 -43 -52.5 -85.5t-94 -76t-124.5 -48.5q-8 -2 -12 -2q-16 0 -23 14l-46 101q-2 4 -2 7q0 7 4.5 13t9.5 8q73 18 112 44.5
t39 61.5q0 30 -21.5 49.5t-66.5 46.5q-44 24 -63 43q-12 12 -18 33.5t-6 47.5q0 14 1 21q-176 25 -320 127.5t-227 260t-83 339.5q0 200 99 368t268.5 265.5t369.5 97.5q126 0 228 -34t190 -99q17 -14 17 -31q0 -10 -5 -17l-102 -172q-9 -12 -23 -12t-31 11
q-72 45 -136 66.5t-138 21.5q-127 0 -230.5 -62t-163 -168.5t-59.5 -234.5t59.5 -236.5t163 -172t230.5 -63.5q75 0 145 24.5t125 64.5q20 15 35 15t25 -14l97 -164q11 -12 11 -24z" />
    <glyph glyph-name="Egrave" unicode="&#xc8;" horiz-adv-x="1263" 
d="M477 1848q0 14 8.5 23t21.5 9h156q19 0 30 -7.5t19 -28.5l89 -218q3 -9 3 -17q0 -14 -9.5 -21.5t-21.5 -7.5h-139q-20 0 -29.5 6.5t-20.5 29.5l-103 214q-4 8 -4 18zM193 1425h938q39 0 39 -38v-186q0 -38 -39 -38h-695v-291h530q43 0 43 -39v-182q0 -38 -43 -38h-530
v-352h713q40 0 40 -38v-185q0 -38 -40 -38h-956q-37 0 -37 38v1349q0 38 37 38z" />
    <glyph glyph-name="Eacute" unicode="&#xc9;" horiz-adv-x="1263" 
d="M777 1580.5q-10 -6.5 -29 -6.5h-139q-12 0 -22 7.5t-10 21.5q0 9 4 18l88 217q8 21 19 29t31 8h156q13 0 21.5 -9t8.5 -23q0 -10 -4 -18l-104 -214q-10 -24 -20 -30.5zM193 1425h938q39 0 39 -38v-186q0 -38 -39 -38h-695v-291h530q43 0 43 -39v-182q0 -38 -43 -38h-530
v-352h713q40 0 40 -38v-185q0 -38 -40 -38h-956q-37 0 -37 38v1349q0 38 37 38z" />
    <glyph glyph-name="Ecircumflex" unicode="&#xca;" horiz-adv-x="1263" 
d="M688 1939q13 0 27 -14l236 -235q15 -13 15 -28t-14 -27l-65 -64q-13 -13 -27 -13q-15 0 -28 13l-146 146l-146 -146q-13 -13 -27 -13q-12 0 -26 12l-64 63q-13 13 -13 26q0 14 14 28l237 238q14 14 27 14zM193 1425h938q39 0 39 -38v-186q0 -38 -39 -38h-695v-291h530
q43 0 43 -39v-182q0 -38 -43 -38h-530v-352h713q40 0 40 -38v-185q0 -38 -40 -38h-956q-37 0 -37 38v1349q0 38 37 38z" />
    <glyph glyph-name="Edieresis" unicode="&#xcb;" horiz-adv-x="1263" 
d="M414 1802h133q25 0 35.5 -12t10.5 -37v-132q0 -26 -11.5 -36t-34.5 -10h-133q-25 0 -36.5 10t-11.5 35v133q0 49 48 49zM801 1802h133q25 0 35.5 -12t10.5 -37v-132q0 -26 -11.5 -36t-34.5 -10h-133q-25 0 -36.5 10t-11.5 35v133q0 49 48 49zM193 1425h938q39 0 39 -38
v-186q0 -38 -39 -38h-695v-291h530q43 0 43 -39v-182q0 -38 -43 -38h-530v-352h713q40 0 40 -38v-185q0 -38 -40 -38h-956q-37 0 -37 38v1349q0 38 37 38z" />
    <glyph glyph-name="Igrave" unicode="&#xcc;" 
d="M75 1839q0 14 8.5 23t21.5 9h156q19 0 30 -7.5t19 -28.5l89 -218q3 -9 3 -17q0 -14 -9.5 -21.5t-21.5 -7.5h-139q-20 0 -29.5 6.5t-20.5 29.5l-103 214q-4 8 -4 18zM194 1425h203q38 0 38 -40v-1346q0 -39 -38 -39h-203q-38 0 -38 39v1346q0 40 38 40z" />
    <glyph glyph-name="Iacute" unicode="&#xcd;" 
d="M399 1579.5q-10 -6.5 -29 -6.5h-139q-12 0 -22 7.5t-10 21.5q0 9 4 18l88 217q8 21 19 29t31 8h156q13 0 21.5 -9t8.5 -23q0 -10 -4 -18l-104 -214q-10 -24 -20 -30.5zM194 1425h203q38 0 38 -40v-1346q0 -39 -38 -39h-203q-38 0 -38 39v1346q0 40 38 40z" />
    <glyph glyph-name="Icircumflex" unicode="&#xce;" 
d="M296 1959q13 0 27 -14l236 -235q15 -13 15 -28t-14 -27l-65 -64q-13 -13 -27 -13q-15 0 -28 13l-146 146l-146 -146q-13 -13 -27 -13q-13 0 -26 12l-64 63q-13 13 -13 26q0 14 14 28l237 238q14 14 27 14zM194 1425h203q38 0 38 -40v-1346q0 -39 -38 -39h-203
q-38 0 -38 39v1346q0 40 38 40z" />
    <glyph glyph-name="Idieresis" unicode="&#xcf;" 
d="M38 1797h133q25 0 35.5 -12t10.5 -37v-132q0 -26 -11.5 -36t-34.5 -10h-133q-25 0 -36.5 10t-11.5 35v133q0 49 48 49zM425 1797h133q25 0 35.5 -12t10.5 -37v-132q0 -26 -11.5 -36t-34.5 -10h-133q-25 0 -36.5 10t-11.5 35v133q0 49 48 49zM194 1425h203q38 0 38 -40
v-1346q0 -39 -38 -39h-203q-38 0 -38 39v1346q0 40 38 40z" />
    <glyph glyph-name="Eth" unicode="&#xd0;" horiz-adv-x="1482" 
d="M35 817q12 11 28 11h80v559q-1 18 9 29t28 11h453q197 0 364 -95t265.5 -259.5t98.5 -361.5q0 -198 -98.5 -360.5t-266.5 -256.5t-367 -94h-447q-39 0 -39 34v578h-80q-16 0 -28 10t-12 29v134q0 21 12 32zM820 312q119 45 190 144.5t71 255.5q0 145 -66.5 245.5
t-179 150.5t-250.5 50h-161v-330h155q18 0 28 -10t10 -30v-137q0 -18 -12 -28.5t-31 -10.5h-150v-345h128q149 0 268 45z" />
    <glyph glyph-name="Ntilde" unicode="&#xd1;" horiz-adv-x="1545" 
d="M551 1594q-17 0 -40 23l-44 43q-11 10 -15.5 16t-4.5 12t4.5 13t9 13.5t7.5 10.5q39 54 88.5 83t106.5 29q33 -1 65 -15.5t72 -38.5q31 -19 52 -29t39 -10q25 0 45.5 13.5t41.5 39.5q18 22 35 22q14 0 28 -14l62 -63q11 -11 11 -22q0 -9 -7 -20q-40 -61 -93.5 -93
t-116.5 -32q-33 0 -63.5 13.5t-70.5 38.5q-30 20 -52 30.5t-42 10.5q-28 0 -46 -13t-31.5 -29t-18.5 -21q-10 -11 -22 -11zM426 39q0 -39 -41 -39h-192q-37 0 -37 39v1349q0 16 9.5 27t27.5 11h224q33 0 57 -36l644 -927v925q0 17 10 27.5t29 10.5h191q15 0 28 -11t13 -27
v-1349q0 -39 -41 -39h-203q-33 0 -57 35l-662 975v-971z" />
    <glyph glyph-name="Ograve" unicode="&#xd2;" horiz-adv-x="1661" 
d="M616 1838q0 14 8.5 23t21.5 9h156q19 0 30 -7.5t19 -28.5l89 -218q3 -9 3 -17q0 -14 -9.5 -21.5t-21.5 -7.5h-139q-20 0 -29.5 6.5t-20.5 29.5l-103 214q-4 8 -4 18zM197 1081q99 168 267.5 266.5t367.5 98.5q200 0 367.5 -98.5t265.5 -266.5t98 -368q0 -199 -98 -367
t-265.5 -266.5t-367.5 -98.5q-199 0 -367.5 98.5t-267.5 266.5t-99 367q0 200 99 368zM438.5 479q59.5 -106 163 -167.5t230.5 -61.5t230 61.5t162 167.5t59 234t-59 234.5t-162 168t-230 61.5t-230.5 -61.5t-163 -168t-59.5 -234.5t59.5 -234z" />
    <glyph glyph-name="Oacute" unicode="&#xd3;" horiz-adv-x="1661" 
d="M956 1572.5q-10 -6.5 -29 -6.5h-139q-12 0 -22 7.5t-10 21.5q0 9 4 18l88 217q8 21 19 29t31 8h156q13 0 21.5 -9t8.5 -23q0 -10 -4 -18l-104 -214q-10 -24 -20 -30.5zM197 1081q99 168 267.5 266.5t367.5 98.5q200 0 367.5 -98.5t265.5 -266.5t98 -368q0 -199 -98 -367
t-265.5 -266.5t-367.5 -98.5q-199 0 -367.5 98.5t-267.5 266.5t-99 367q0 200 99 368zM438.5 479q59.5 -106 163 -167.5t230.5 -61.5t230 61.5t162 167.5t59 234t-59 234.5t-162 168t-230 61.5t-230.5 -61.5t-163 -168t-59.5 -234.5t59.5 -234z" />
    <glyph glyph-name="Ocircumflex" unicode="&#xd4;" horiz-adv-x="1661" 
d="M856 1944q13 0 27 -14l236 -235q15 -13 15 -28t-14 -27l-65 -64q-13 -13 -27 -13q-15 0 -28 13l-146 146l-146 -146q-13 -13 -27 -13q-12 0 -26 12l-64 63q-13 13 -13 26q0 14 14 28l237 238q14 14 27 14zM197 1081q99 168 267.5 266.5t367.5 98.5q200 0 367.5 -98.5
t265.5 -266.5t98 -368q0 -199 -98 -367t-265.5 -266.5t-367.5 -98.5q-199 0 -367.5 98.5t-267.5 266.5t-99 367q0 200 99 368zM438.5 479q59.5 -106 163 -167.5t230.5 -61.5t230 61.5t162 167.5t59 234t-59 234.5t-162 168t-230 61.5t-230.5 -61.5t-163 -168t-59.5 -234.5
t59.5 -234z" />
    <glyph glyph-name="Otilde" unicode="&#xd5;" horiz-adv-x="1661" 
d="M584 1586q-17 0 -40 23l-44 43q-11 10 -15.5 16t-4.5 12t4.5 13t9 13.5t7.5 10.5q39 54 88.5 83t106.5 29q33 -1 65 -15.5t72 -38.5q31 -19 52 -29t39 -10q25 0 45.5 13.5t41.5 39.5q18 22 35 22q14 0 28 -14l62 -63q11 -11 11 -22q0 -9 -7 -20q-40 -61 -93.5 -93
t-116.5 -32q-33 0 -63.5 13.5t-70.5 38.5q-30 20 -52 30.5t-42 10.5q-28 0 -46 -13t-31.5 -29t-18.5 -21q-10 -11 -22 -11zM197 1081q99 168 267.5 266.5t367.5 98.5q200 0 367.5 -98.5t265.5 -266.5t98 -368q0 -199 -98 -367t-265.5 -266.5t-367.5 -98.5
q-199 0 -367.5 98.5t-267.5 266.5t-99 367q0 200 99 368zM438.5 479q59.5 -106 163 -167.5t230.5 -61.5t230 61.5t162 167.5t59 234t-59 234.5t-162 168t-230 61.5t-230.5 -61.5t-163 -168t-59.5 -234.5t59.5 -234z" />
    <glyph glyph-name="Odieresis" unicode="&#xd6;" horiz-adv-x="1661" 
d="M578 1805h133q25 0 35.5 -12t10.5 -37v-132q0 -26 -11.5 -36t-34.5 -10h-133q-25 0 -36.5 10t-11.5 35v133q0 49 48 49zM965 1805h133q25 0 35.5 -12t10.5 -37v-132q0 -26 -11.5 -36t-34.5 -10h-133q-25 0 -36.5 10t-11.5 35v133q0 49 48 49zM197 1081
q99 168 267.5 266.5t367.5 98.5q200 0 367.5 -98.5t265.5 -266.5t98 -368q0 -199 -98 -367t-265.5 -266.5t-367.5 -98.5q-199 0 -367.5 98.5t-267.5 266.5t-99 367q0 200 99 368zM438.5 479q59.5 -106 163 -167.5t230.5 -61.5t230 61.5t162 167.5t59 234t-59 234.5t-162 168
t-230 61.5t-230.5 -61.5t-163 -168t-59.5 -234.5t59.5 -234z" />
    <glyph glyph-name="multiply" unicode="&#xd7;" horiz-adv-x="879" 
d="M116 474q0 12 10 22l163 163l-158 158q-10 12 -10 23q0 10 9 19l111 110q9 9 21 9q13 0 22 -9l157 -158l165 165q9 9 20 9q12 0 21 -10l121 -121q9 -7 9 -20q0 -11 -10 -21l-164 -164l161 -160q9 -10 9 -21q0 -12 -9 -21l-111 -110q-9 -9 -20 -9q-13 0 -22 9l-160 160
l-164 -164q-10 -10 -22 -10q-10 0 -19 9l-120 120q-10 12 -10 22z" />
    <glyph glyph-name="Oslash" unicode="&#xd8;" horiz-adv-x="1661" 
d="M198 1081q99 168 267.5 266.5t367.5 98.5q77 0 162 -18l50 115q16 40 55 40h227q15 0 23.5 -6.5t8.5 -18.5q0 -7 -5 -20l-99 -226q143 -102 226 -259t83 -340q0 -199 -98 -367t-265.5 -266.5t-367.5 -98.5q-80 0 -151 16l-57 -127q-17 -38 -56 -38h-228q-31 0 -31 22
q0 11 5 22l105 232q-148 99 -234.5 259.5t-86.5 345.5q0 200 99 368zM439.5 479q59.5 -106 163 -167.5t230.5 -61.5t230 61.5t162 167.5t59 234t-59 234.5t-162 168t-230 61.5t-230.5 -61.5t-163 -168t-59.5 -234.5t59.5 -234z" />
    <glyph glyph-name="Ugrave" unicode="&#xd9;" horiz-adv-x="1465" 
d="M542 1826q0 14 8.5 23t21.5 9h156q19 0 30 -7.5t19 -28.5l89 -218q3 -9 3 -17q0 -14 -9.5 -21.5t-21.5 -7.5h-139q-20 0 -29.5 6.5t-20.5 29.5l-103 214q-4 8 -4 18zM467 384q43 -76 115 -115.5t160 -39.5t161 42t115.5 119t42.5 176v820q0 18 11 29t29 11h200
q19 0 30 -11.5t11 -28.5v-819q0 -197 -80.5 -329.5t-216 -196t-303.5 -63.5q-167 0 -303 65t-216.5 198t-80.5 329v817q0 16 10 27.5t25 11.5h210q20 0 28.5 -10t8.5 -29v-821q0 -106 43 -182z" />
    <glyph glyph-name="Uacute" unicode="&#xda;" horiz-adv-x="1465" 
d="M855 1580.5q-10 -6.5 -29 -6.5h-139q-12 0 -22 7.5t-10 21.5q0 9 4 18l88 217q8 21 19 29t31 8h156q13 0 21.5 -9t8.5 -23q0 -10 -4 -18l-104 -214q-10 -24 -20 -30.5zM467 384q43 -76 115 -115.5t160 -39.5t161 42t115.5 119t42.5 176v820q0 18 11 29t29 11h200
q19 0 30 -11.5t11 -28.5v-819q0 -197 -80.5 -329.5t-216 -196t-303.5 -63.5q-167 0 -303 65t-216.5 198t-80.5 329v817q0 16 10 27.5t25 11.5h210q20 0 28.5 -10t8.5 -29v-821q0 -106 43 -182z" />
    <glyph glyph-name="Ucircumflex" unicode="&#xdb;" horiz-adv-x="1465" 
d="M754 1953q13 0 27 -14l236 -235q15 -13 15 -28t-14 -27l-65 -64q-13 -13 -27 -13q-15 0 -28 13l-146 146l-146 -146q-13 -13 -27 -13q-12 0 -26 12l-64 63q-13 13 -13 26q0 14 14 28l237 238q14 14 27 14zM467 384q43 -76 115 -115.5t160 -39.5t161 42t115.5 119
t42.5 176v820q0 18 11 29t29 11h200q19 0 30 -11.5t11 -28.5v-819q0 -197 -80.5 -329.5t-216 -196t-303.5 -63.5q-167 0 -303 65t-216.5 198t-80.5 329v817q0 16 10 27.5t25 11.5h210q20 0 28.5 -10t8.5 -29v-821q0 -106 43 -182z" />
    <glyph glyph-name="Udieresis" unicode="&#xdc;" horiz-adv-x="1465" 
d="M489 1799h133q25 0 35.5 -12t10.5 -37v-132q0 -26 -11.5 -36t-34.5 -10h-133q-25 0 -36.5 10t-11.5 35v133q0 49 48 49zM876 1799h133q25 0 35.5 -12t10.5 -37v-132q0 -26 -11.5 -36t-34.5 -10h-133q-25 0 -36.5 10t-11.5 35v133q0 49 48 49zM467 384q43 -76 115 -115.5
t160 -39.5t161 42t115.5 119t42.5 176v820q0 18 11 29t29 11h200q19 0 30 -11.5t11 -28.5v-819q0 -197 -80.5 -329.5t-216 -196t-303.5 -63.5q-167 0 -303 65t-216.5 198t-80.5 329v817q0 16 10 27.5t25 11.5h210q20 0 28.5 -10t8.5 -29v-821q0 -106 43 -182z" />
    <glyph glyph-name="Yacute" unicode="&#xdd;" horiz-adv-x="1277" 
d="M767 1573.5q-10 -6.5 -29 -6.5h-139q-12 0 -22 7.5t-10 21.5q0 9 4 18l88 217q8 21 19 29t31 8h156q13 0 21.5 -9t8.5 -23q0 -10 -4 -18l-104 -214q-10 -24 -20 -30.5zM36 1383q-6 11 -6 20q0 11 8.5 17t21.5 6h236q17 0 27.5 -8t20.5 -27l290 -560l289 559
q10 19 20.5 27t26.5 8h239q14 0 22 -6.5t8 -17.5q0 -7 -5 -19l-460 -781v-561q0 -40 -37 -40h-206q-38 0 -38 40v560z" />
    <glyph glyph-name="Thorn" unicode="&#xde;" horiz-adv-x="1256" 
d="M162 1416.5q10 9.5 27 9.5h205q37 0 37 -38v-220h305q126 0 227.5 -62.5t159 -166.5t57.5 -222t-57 -222.5t-157 -168.5t-225 -64h-310v-223q0 -39 -38 -39h-204q-37 0 -37 39v1349q0 19 10 28.5zM431 504h247q63 0 112.5 28.5t76.5 77.5t27 109q0 58 -27.5 105t-77 73.5
t-111.5 26.5h-247v-420z" />
    <glyph glyph-name="germandbls" unicode="&#xdf;" horiz-adv-x="1107" 
d="M515.5 -2.5q-10.5 9.5 -10.5 34.5v143q0 25 12 40t45 15q110 0 161 57.5t51 158.5q0 64 -28 113t-79.5 75.5t-118.5 26.5q-18 0 -30.5 10.5t-12.5 28.5v152q0 21 11 31.5t36 10.5q81 0 105.5 42.5t24.5 103.5q0 66 -34.5 110.5t-108.5 44.5q-79 0 -109 -62.5t-30 -161.5
v-1294q0 -44 -36 -44h-199q-27 0 -33.5 11t-6.5 36v1317q0 220 108 329.5t316 109.5q117 0 208 -48.5t141.5 -131.5t50.5 -182q0 -96 -22 -159.5t-81 -108.5q107 -58 161.5 -162t54.5 -227q0 -127 -60.5 -224t-177 -151t-278.5 -54q-20 0 -30.5 9.5z" />
    <glyph glyph-name="agrave" unicode="&#xe0;" horiz-adv-x="1473" 
d="M501 1652q0 14 8.5 23t21.5 9h156q19 0 30 -7.5t19 -28.5l89 -218q3 -9 3 -17q0 -14 -9.5 -21.5t-21.5 -7.5h-139q-20 0 -29.5 6.5t-20.5 29.5l-103 214q-4 8 -4 18zM1319 0h-171q-26 0 -42.5 17t-16.5 43v80q-80 -77 -177.5 -119.5t-203.5 -42.5q-162 0 -305 81.5
t-229 225t-86 322.5q0 171 83.5 316t225.5 230t311 85q126 0 221.5 -41.5t173.5 -130.5l17 120q3 21 11.5 30.5t27.5 9.5h160q38 0 38 -40v-1146q0 -40 -38 -40zM1036 798.5q-49 87.5 -132.5 139.5t-183.5 52q-97 0 -179.5 -50t-131 -137.5t-48.5 -194.5q0 -105 47.5 -192.5
t129.5 -138t182 -50.5q102 0 185.5 51.5t131.5 139t48 190.5t-49 190.5z" />
    <glyph glyph-name="aacute" unicode="&#xe1;" horiz-adv-x="1473" 
d="M853 1392.5q-10 -6.5 -29 -6.5h-139q-12 0 -22 7.5t-10 21.5q0 9 4 18l88 217q8 21 19 29t31 8h156q13 0 21.5 -9t8.5 -23q0 -10 -4 -18l-104 -214q-10 -24 -20 -30.5zM1319 0h-171q-26 0 -42.5 17t-16.5 43v80q-80 -77 -177.5 -119.5t-203.5 -42.5q-162 0 -305 81.5
t-229 225t-86 322.5q0 171 83.5 316t225.5 230t311 85q126 0 221.5 -41.5t173.5 -130.5l17 120q3 21 11.5 30.5t27.5 9.5h160q38 0 38 -40v-1146q0 -40 -38 -40zM1036 798.5q-49 87.5 -132.5 139.5t-183.5 52q-97 0 -179.5 -50t-131 -137.5t-48.5 -194.5q0 -105 47.5 -192.5
t129.5 -138t182 -50.5q102 0 185.5 51.5t131.5 139t48 190.5t-49 190.5z" />
    <glyph glyph-name="acircumflex" unicode="&#xe2;" horiz-adv-x="1473" 
d="M738 1765q13 0 27 -14l236 -235q15 -13 15 -28t-14 -27l-65 -64q-13 -13 -27 -13q-15 0 -28 13l-146 146l-146 -146q-13 -13 -27 -13q-12 0 -26 12l-64 63q-13 13 -13 26q0 14 14 28l237 238q14 14 27 14zM1319 0h-171q-26 0 -42.5 17t-16.5 43v80q-80 -77 -177.5 -119.5
t-203.5 -42.5q-162 0 -305 81.5t-229 225t-86 322.5q0 171 83.5 316t225.5 230t311 85q126 0 221.5 -41.5t173.5 -130.5l17 120q3 21 11.5 30.5t27.5 9.5h160q38 0 38 -40v-1146q0 -40 -38 -40zM1036 798.5q-49 87.5 -132.5 139.5t-183.5 52q-97 0 -179.5 -50t-131 -137.5
t-48.5 -194.5q0 -105 47.5 -192.5t129.5 -138t182 -50.5q102 0 185.5 51.5t131.5 139t48 190.5t-49 190.5z" />
    <glyph glyph-name="atilde" unicode="&#xe3;" horiz-adv-x="1473" 
d="M484 1406q-17 0 -40 23l-44 43q-11 10 -15.5 16t-4.5 12t4.5 13t9 13.5t7.5 10.5q39 54 88.5 83t106.5 29q33 -1 65 -15.5t72 -38.5q31 -19 52 -29t39 -10q25 0 45.5 13.5t41.5 39.5q18 22 35 22q14 0 28 -14l62 -63q11 -11 11 -22q0 -9 -7 -20q-40 -61 -93.5 -93
t-116.5 -32q-33 0 -63.5 13.5t-70.5 38.5q-30 20 -52 30.5t-42 10.5q-28 0 -46 -13t-31.5 -29t-18.5 -21q-10 -11 -22 -11zM1319 0h-171q-26 0 -42.5 17t-16.5 43v80q-80 -77 -177.5 -119.5t-203.5 -42.5q-162 0 -305 81.5t-229 225t-86 322.5q0 171 83.5 316t225.5 230
t311 85q126 0 221.5 -41.5t173.5 -130.5l17 120q3 21 11.5 30.5t27.5 9.5h160q38 0 38 -40v-1146q0 -40 -38 -40zM1036 798.5q-49 87.5 -132.5 139.5t-183.5 52q-97 0 -179.5 -50t-131 -137.5t-48.5 -194.5q0 -105 47.5 -192.5t129.5 -138t182 -50.5q102 0 185.5 51.5
t131.5 139t48 190.5t-49 190.5z" />
    <glyph glyph-name="adieresis" unicode="&#xe4;" horiz-adv-x="1473" 
d="M451 1610h133q25 0 35.5 -12t10.5 -37v-132q0 -26 -11.5 -36t-34.5 -10h-133q-25 0 -36.5 10t-11.5 35v133q0 49 48 49zM838 1610h133q25 0 35.5 -12t10.5 -37v-132q0 -26 -11.5 -36t-34.5 -10h-133q-25 0 -36.5 10t-11.5 35v133q0 49 48 49zM1319 0h-171q-26 0 -42.5 17
t-16.5 43v80q-80 -77 -177.5 -119.5t-203.5 -42.5q-162 0 -305 81.5t-229 225t-86 322.5q0 171 83.5 316t225.5 230t311 85q126 0 221.5 -41.5t173.5 -130.5l17 120q3 21 11.5 30.5t27.5 9.5h160q38 0 38 -40v-1146q0 -40 -38 -40zM1036 798.5q-49 87.5 -132.5 139.5
t-183.5 52q-97 0 -179.5 -50t-131 -137.5t-48.5 -194.5q0 -105 47.5 -192.5t129.5 -138t182 -50.5q102 0 185.5 51.5t131.5 139t48 190.5t-49 190.5z" />
    <glyph glyph-name="aring" unicode="&#xe5;" horiz-adv-x="1473" 
d="M845 1745q46 -27 73.5 -73t27.5 -101t-27 -101t-73.5 -72.5t-101.5 -26.5t-101 26.5t-73 72.5t-27 101t27 101t73 73t101 27t101 -27zM691 1626q-21 -22 -21 -54q0 -33 21 -54t53 -21q34 0 56 21t22 54q0 32 -22 54t-56 22q-32 0 -53 -22zM1319 0h-171q-26 0 -42.5 17
t-16.5 43v80q-80 -77 -177.5 -119.5t-203.5 -42.5q-162 0 -305 81.5t-229 225t-86 322.5q0 171 83.5 316t225.5 230t311 85q126 0 221.5 -41.5t173.5 -130.5l17 120q3 21 11.5 30.5t27.5 9.5h160q38 0 38 -40v-1146q0 -40 -38 -40zM1036 798.5q-49 87.5 -132.5 139.5
t-183.5 52q-97 0 -179.5 -50t-131 -137.5t-48.5 -194.5q0 -105 47.5 -192.5t129.5 -138t182 -50.5q102 0 185.5 51.5t131.5 139t48 190.5t-49 190.5z" />
    <glyph glyph-name="ae" unicode="&#xe6;" horiz-adv-x="2424" 
d="M1721 1237q143 0 282.5 -69.5t231 -212t91.5 -349.5q0 -47 -11 -68t-29.5 -25.5t-57.5 -4.5h-860q20 -86 72 -151t127.5 -101t162.5 -36q78 0 131.5 13t86 31.5t73.5 48.5l24 18q13 9 26 9q15 0 23 -12l89 -122q12 -15 12 -29q0 -15 -15 -29q-104 -91 -214.5 -130.5
t-237.5 -39.5q-98 0 -190 30.5t-171 87.5v-56q0 -40 -38 -40h-171q-26 0 -42.5 17t-16.5 43v80q-80 -77 -177.5 -119.5t-203.5 -42.5q-162 0 -305 81.5t-229 225t-86 322.5q0 171 83.5 316t225.5 230t311 85q122 0 218 -44.5t176 -131.5l18 117q3 21 11.5 30.5t27.5 9.5h160
q38 0 38 -40v-50q157 108 354 108zM1603 968q-69 -35 -119.5 -95t-76.5 -134h685q-43 119 -133.5 191.5t-207.5 72.5q-79 0 -148 -35zM1046 798.5q-49 87.5 -132.5 139.5t-183.5 52q-97 0 -179.5 -50t-131 -137.5t-48.5 -194.5q0 -105 47.5 -192.5t129.5 -138t182 -50.5
q102 0 185.5 51.5t131.5 139t48 190.5t-49 190.5z" />
    <glyph glyph-name="ccedilla" unicode="&#xe7;" horiz-adv-x="1196" 
d="M1128 157q0 -14 -17 -29q-66 -56 -159 -97t-190 -51q-2 -12 -2 -18q0 -22 19 -36q3 -2 31 -22q44 -32 70 -54t43.5 -49.5t17.5 -58.5q0 -20 -7 -40q-15 -43 -52.5 -85.5t-94 -76t-124.5 -48.5q-8 -2 -12 -2q-16 0 -23 14l-46 101q-2 4 -2 7q0 7 4.5 13t9.5 8
q73 18 112 44.5t39 61.5q0 30 -21.5 49.5t-66.5 46.5q-44 24 -63 43q-12 12 -18 33t-6 46q0 17 3 34q-141 30 -254 117.5t-177.5 218t-64.5 283.5q0 172 85 316t229 228t311 84q121 1 219.5 -36t187.5 -109q14 -13 14 -26q0 -9 -5 -17l-98 -151q-8 -11 -23 -11q-12 0 -22 7
q-66 52 -132.5 74.5t-137.5 22.5q-95 0 -178.5 -49.5t-134 -137.5t-50.5 -196t48.5 -195t132 -136.5t183.5 -49.5q136 0 266 102q11 9 25 9q16 0 23 -11l98 -144q10 -14 10 -27z" />
    <glyph glyph-name="egrave" unicode="&#xe8;" horiz-adv-x="1405" 
d="M527 1641q0 14 8.5 23t21.5 9h156q19 0 30 -7.5t19 -28.5l89 -218q3 -9 3 -17q0 -14 -9.5 -21.5t-21.5 -7.5h-139q-20 0 -29.5 6.5t-20.5 29.5l-103 214q-4 8 -4 18zM1038 345q15 0 23 -12l98 -120q12 -15 12 -29q0 -15 -15 -29q-107 -94 -213.5 -135.5t-228.5 -41.5
q-165 0 -310 85t-231.5 229.5t-86.5 313.5q0 172 80.5 316.5t222.5 229.5t318 85q143 0 282.5 -69.5t231 -212t91.5 -349.5q0 -47 -11 -68t-29.5 -25.5t-57.5 -4.5h-860q20 -86 72 -151t127.5 -101t162.5 -36q67 0 116 13.5t80.5 32t70.5 48.5l29 22q13 9 26 9zM561 968
q-69 -35 -119.5 -95t-76.5 -134h685q-43 119 -133.5 191.5t-207.5 72.5q-79 0 -148 -35z" />
    <glyph glyph-name="eacute" unicode="&#xe9;" horiz-adv-x="1405" 
d="M842 1385.5q-10 -6.5 -29 -6.5h-139q-12 0 -22 7.5t-10 21.5q0 9 4 18l88 217q8 21 19 29t31 8h156q13 0 21.5 -9t8.5 -23q0 -10 -4 -18l-104 -214q-10 -24 -20 -30.5zM1038 345q15 0 23 -12l98 -120q12 -15 12 -29q0 -15 -15 -29q-107 -94 -213.5 -135.5t-228.5 -41.5
q-165 0 -310 85t-231.5 229.5t-86.5 313.5q0 172 80.5 316.5t222.5 229.5t318 85q143 0 282.5 -69.5t231 -212t91.5 -349.5q0 -47 -11 -68t-29.5 -25.5t-57.5 -4.5h-860q20 -86 72 -151t127.5 -101t162.5 -36q67 0 116 13.5t80.5 32t70.5 48.5l29 22q13 9 26 9zM561 968
q-69 -35 -119.5 -95t-76.5 -134h685q-43 119 -133.5 191.5t-207.5 72.5q-79 0 -148 -35z" />
    <glyph glyph-name="ecircumflex" unicode="&#xea;" horiz-adv-x="1405" 
d="M712 1743q13 0 27 -14l236 -235q15 -13 15 -28t-14 -27l-65 -64q-13 -13 -27 -13q-15 0 -28 13l-146 146l-146 -146q-13 -13 -27 -13q-12 0 -26 12l-64 63q-13 13 -13 26q0 14 14 28l237 238q14 14 27 14zM1038 345q15 0 23 -12l98 -120q12 -15 12 -29q0 -15 -15 -29
q-107 -94 -213.5 -135.5t-228.5 -41.5q-165 0 -310 85t-231.5 229.5t-86.5 313.5q0 172 80.5 316.5t222.5 229.5t318 85q143 0 282.5 -69.5t231 -212t91.5 -349.5q0 -47 -11 -68t-29.5 -25.5t-57.5 -4.5h-860q20 -86 72 -151t127.5 -101t162.5 -36q67 0 116 13.5t80.5 32
t70.5 48.5l29 22q13 9 26 9zM561 968q-69 -35 -119.5 -95t-76.5 -134h685q-43 119 -133.5 191.5t-207.5 72.5q-79 0 -148 -35z" />
    <glyph glyph-name="edieresis" unicode="&#xeb;" horiz-adv-x="1405" 
d="M458 1600h133q25 0 35.5 -12t10.5 -37v-132q0 -26 -11.5 -36t-34.5 -10h-133q-25 0 -36.5 10t-11.5 35v133q0 49 48 49zM845 1600h133q25 0 35.5 -12t10.5 -37v-132q0 -26 -11.5 -36t-34.5 -10h-133q-25 0 -36.5 10t-11.5 35v133q0 49 48 49zM1038 345q15 0 23 -12
l98 -120q12 -15 12 -29q0 -15 -15 -29q-107 -94 -213.5 -135.5t-228.5 -41.5q-165 0 -310 85t-231.5 229.5t-86.5 313.5q0 172 80.5 316.5t222.5 229.5t318 85q143 0 282.5 -69.5t231 -212t91.5 -349.5q0 -47 -11 -68t-29.5 -25.5t-57.5 -4.5h-860q20 -86 72 -151
t127.5 -101t162.5 -36q67 0 116 13.5t80.5 32t70.5 48.5l29 22q13 9 26 9zM561 968q-69 -35 -119.5 -95t-76.5 -134h685q-43 119 -133.5 191.5t-207.5 72.5q-79 0 -148 -35z" />
    <glyph glyph-name="igrave" unicode="&#xec;" 
d="M53 1645q0 14 8.5 23t21.5 9h156q19 0 30 -7.5t19 -28.5l89 -218q3 -9 3 -17q0 -14 -9.5 -21.5t-21.5 -7.5h-139q-20 0 -29.5 6.5t-20.5 29.5l-103 214q-4 8 -4 18zM147 1216q11 10 27 10h204q17 0 27 -10.5t10 -28.5v-1148q0 -39 -37 -39h-204q-38 0 -38 39v1148
q0 19 11 29z" />
    <glyph glyph-name="iacute" unicode="&#xed;" 
d="M381 1366.5q-10 -6.5 -29 -6.5h-139q-12 0 -22 7.5t-10 21.5q0 9 4 18l88 217q8 21 19 29t31 8h156q13 0 21.5 -9t8.5 -23q0 -10 -4 -18l-104 -214q-10 -24 -20 -30.5zM147 1216q11 10 27 10h204q17 0 27 -10.5t10 -28.5v-1148q0 -39 -37 -39h-204q-38 0 -38 39v1148
q0 19 11 29z" />
    <glyph glyph-name="icircumflex" unicode="&#xee;" 
d="M276 1747q13 0 27 -14l236 -235q15 -13 15 -28t-14 -27l-65 -64q-13 -13 -27 -13q-15 0 -28 13l-146 146l-146 -146q-13 -13 -27 -13q-12 0 -26 12l-64 63q-13 13 -13 26q0 14 14 28l237 238q14 14 27 14zM147 1216q11 10 27 10h204q17 0 27 -10.5t10 -28.5v-1148
q0 -39 -37 -39h-204q-38 0 -38 39v1148q0 19 11 29z" />
    <glyph glyph-name="idieresis" unicode="&#xef;" 
d="M13 1612h133q25 0 35.5 -12t10.5 -37v-132q0 -26 -11.5 -36t-34.5 -10h-133q-25 0 -36.5 10t-11.5 35v133q0 49 48 49zM400 1612h133q25 0 35.5 -12t10.5 -37v-132q0 -26 -11.5 -36t-34.5 -10h-133q-25 0 -36.5 10t-11.5 35v133q0 49 48 49zM147 1216q11 10 27 10h204
q17 0 27 -10.5t10 -28.5v-1148q0 -39 -37 -39h-204q-38 0 -38 39v1148q0 19 11 29z" />
    <glyph glyph-name="eth" unicode="&#xf0;" horiz-adv-x="1404" 
d="M571 1365q0 21 21 33l81 39l-64 122q-7 13 -7 23q0 14 10 22t27 8h199q12 0 24 -8.5t18 -21.5l17 -35l77 38q12 5 19 5q18 0 28 -21l57 -113q4 -7 4 -16q0 -20 -23 -31l-76 -38l251 -513q36 -74 56 -142.5t20 -141.5q0 -161 -83 -297.5t-224.5 -216.5t-309.5 -80
q-167 0 -309 80t-225 216.5t-83 297.5t83 297.5t225 216.5t309 80q62 0 129 -13l-58 109l-84 -41q-7 -4 -19 -4q-17 -2 -28 18l-57 110q-5 8 -5 18zM389 395q45 -83 124.5 -131.5t178.5 -48.5q100 0 179.5 48.5t124.5 131t45 180.5q0 99 -45 181.5t-124.5 131t-179.5 48.5
q-99 0 -178.5 -48.5t-124.5 -131t-45 -181.5q0 -97 45 -180z" />
    <glyph glyph-name="ntilde" unicode="&#xf1;" horiz-adv-x="1306" 
d="M494 1394q-17 0 -40 23l-44 43q-11 10 -15.5 16t-4.5 12t4.5 13t9 13.5t7.5 10.5q39 54 88.5 83t106.5 29q33 -1 65 -15.5t72 -38.5q31 -19 52 -29t39 -10q25 0 45.5 13.5t41.5 39.5q18 22 35 22q14 0 28 -14l62 -63q11 -11 11 -22q0 -9 -7 -20q-40 -61 -93.5 -93
t-116.5 -32q-33 0 -63.5 13.5t-70.5 38.5q-30 20 -52 30.5t-42 10.5q-28 0 -46 -13t-31.5 -29t-18.5 -21q-10 -11 -22 -11zM390.5 11q-16.5 -11 -38.5 -11h-177q-41 0 -41 41v1144q0 41 41 41h130q20 0 36 -14t21 -35l16 -138q69 99 169.5 147.5t212.5 48.5q111 0 216.5 -56
t174 -173t68.5 -289v-677q0 -40 -38 -40h-193q-41 0 -41 40v668q0 69 -35 131.5t-96 100t-136 37.5q-65 0 -128.5 -34.5t-104 -99t-40.5 -148.5v-654q0 -19 -16.5 -30z" />
    <glyph glyph-name="ograve" unicode="&#xf2;" horiz-adv-x="1434" 
d="M498 1637q0 14 8.5 23t21.5 9h156q19 0 30 -7.5t19 -28.5l89 -218q3 -9 3 -17q0 -14 -9.5 -21.5t-21.5 -7.5h-139q-20 0 -29.5 6.5t-20.5 29.5l-103 214q-4 8 -4 18zM172.5 924.5q84.5 144.5 229 229t315.5 84.5q172 0 318 -84.5t232 -229t86 -315.5t-86 -316t-232 -230
t-317 -85t-315.5 85t-229.5 230t-85 316t84.5 315.5zM407.5 419.5q45.5 -86.5 126.5 -137t184 -50.5q104 0 186.5 51t128.5 137.5t46 188.5t-46.5 187.5t-128.5 136t-186 50.5q-102 0 -183.5 -50t-127 -135.5t-45.5 -188.5t45.5 -189.5z" />
    <glyph glyph-name="oacute" unicode="&#xf3;" horiz-adv-x="1434" 
d="M832 1367.5q-10 -6.5 -29 -6.5h-139q-12 0 -22 7.5t-10 21.5q0 9 4 18l88 217q8 21 19 29t31 8h156q13 0 21.5 -9t8.5 -23q0 -10 -4 -18l-104 -214q-10 -24 -20 -30.5zM172.5 924.5q84.5 144.5 229 229t315.5 84.5q172 0 318 -84.5t232 -229t86 -315.5t-86 -316
t-232 -230t-317 -85t-315.5 85t-229.5 230t-85 316t84.5 315.5zM407.5 419.5q45.5 -86.5 126.5 -137t184 -50.5q104 0 186.5 51t128.5 137.5t46 188.5t-46.5 187.5t-128.5 136t-186 50.5q-102 0 -183.5 -50t-127 -135.5t-45.5 -188.5t45.5 -189.5z" />
    <glyph glyph-name="ocircumflex" unicode="&#xf4;" horiz-adv-x="1434" 
d="M728 1732q13 0 27 -14l236 -235q15 -13 15 -28t-14 -27l-65 -64q-13 -13 -27 -13q-15 0 -28 13l-146 146l-146 -146q-13 -13 -27 -13q-13 0 -26 12l-64 63q-13 13 -13 26q0 14 14 28l237 238q14 14 27 14zM172.5 924.5q84.5 144.5 229 229t315.5 84.5q172 0 318 -84.5
t232 -229t86 -315.5t-86 -316t-232 -230t-317 -85t-315.5 85t-229.5 230t-85 316t84.5 315.5zM407.5 419.5q45.5 -86.5 126.5 -137t184 -50.5q104 0 186.5 51t128.5 137.5t46 188.5t-46.5 187.5t-128.5 136t-186 50.5q-102 0 -183.5 -50t-127 -135.5t-45.5 -188.5
t45.5 -189.5z" />
    <glyph glyph-name="otilde" unicode="&#xf5;" horiz-adv-x="1434" 
d="M499 1392q-17 0 -40 23l-44 43q-11 10 -15.5 16t-4.5 12t4.5 13t9 13.5t7.5 10.5q39 54 88.5 83t106.5 29q33 -1 65 -15.5t72 -38.5q31 -19 52 -29t39 -10q25 0 45.5 13.5t41.5 39.5q18 22 35 22q14 0 28 -14l62 -63q11 -11 11 -22q0 -9 -7 -20q-40 -61 -93.5 -93
t-116.5 -32q-33 0 -63.5 13.5t-70.5 38.5q-30 20 -52 30.5t-42 10.5q-28 0 -46 -13t-31.5 -29t-18.5 -21q-10 -11 -22 -11zM172.5 924.5q84.5 144.5 229 229t315.5 84.5q172 0 318 -84.5t232 -229t86 -315.5t-86 -316t-232 -230t-317 -85t-315.5 85t-229.5 230t-85 316
t84.5 315.5zM407.5 419.5q45.5 -86.5 126.5 -137t184 -50.5q104 0 186.5 51t128.5 137.5t46 188.5t-46.5 187.5t-128.5 136t-186 50.5q-102 0 -183.5 -50t-127 -135.5t-45.5 -188.5t45.5 -189.5z" />
    <glyph glyph-name="odieresis" unicode="&#xf6;" horiz-adv-x="1434" 
d="M453 1586h133q25 0 35.5 -12t10.5 -37v-132q0 -26 -11.5 -36t-34.5 -10h-133q-25 0 -36.5 10t-11.5 35v133q0 49 48 49zM840 1586h133q25 0 35.5 -12t10.5 -37v-132q0 -26 -11.5 -36t-34.5 -10h-133q-25 0 -36.5 10t-11.5 35v133q0 49 48 49zM172.5 924.5
q84.5 144.5 229 229t315.5 84.5q172 0 318 -84.5t232 -229t86 -315.5t-86 -316t-232 -230t-317 -85t-315.5 85t-229.5 230t-85 316t84.5 315.5zM407.5 419.5q45.5 -86.5 126.5 -137t184 -50.5q104 0 186.5 51t128.5 137.5t46 188.5t-46.5 187.5t-128.5 136t-186 50.5
q-102 0 -183.5 -50t-127 -135.5t-45.5 -188.5t45.5 -189.5z" />
    <glyph glyph-name="divide" unicode="&#xf7;" horiz-adv-x="910" 
d="M348 1085.5q9 8.5 22 8.5h179q18 0 25 -10.5t7 -22.5v-167q0 -17 -10 -24.5t-21 -7.5h-181q-9 0 -19.5 7.5t-10.5 23.5v168q0 16 9 24.5zM100 469v156q0 42 38 42h633q17 0 27.5 -10t10.5 -28v-157q0 -17 -9.5 -28.5t-28.5 -11.5h-633q-38 0 -38 37zM348 221.5
q9 8.5 22 8.5h179q18 0 25 -10.5t7 -22.5v-167q0 -17 -10 -24t-21 -7h-181q-10 0 -20 6.5t-10 24.5v167q0 16 9 24.5z" />
    <glyph glyph-name="oslash" unicode="&#xf8;" horiz-adv-x="1434" 
d="M172.5 924.5q84.5 144.5 229 229t315.5 84.5q83 0 173 -24l36 83q14 30 41 30h161q11 0 18 -5t7 -15q0 -8 -4 -16l-71 -165q127 -86 201 -222.5t74 -294.5q0 -171 -86 -316t-232 -230t-317 -85q-63 0 -130 14l-39 -91q-13 -28 -41 -28h-161q-25 0 -25 18q0 8 4 16l69 160
q-92 55 -161.5 138.5t-107.5 187t-38 216.5q0 171 84.5 315.5zM407.5 419.5q45.5 -86.5 126.5 -137t184 -50.5q104 0 186.5 51t128.5 137.5t46 188.5t-46.5 187.5t-128.5 136t-186 50.5q-102 0 -183.5 -50t-127 -135.5t-45.5 -188.5t45.5 -189.5z" />
    <glyph glyph-name="ugrave" unicode="&#xf9;" horiz-adv-x="1344" 
d="M469 1610q0 14 8.5 23t21.5 9h156q19 0 30 -7.5t19 -28.5l89 -218q3 -9 3 -17q0 -14 -9.5 -21.5t-21.5 -7.5h-139q-20 0 -29.5 6.5t-20.5 29.5l-103 214q-4 8 -4 18zM980 1226h199q40 0 40 -41v-1144q0 -41 -40 -41h-128q-20 0 -36 14t-20 34l-27 119
q-123 -178 -358 -178q-115 0 -223.5 52t-180.5 168.5t-72 298.5v677q0 41 39 41h194q40 0 40 -41v-671q2 -78 37 -139t97 -95t143 -34q49 0 108.5 29.5t103 96.5t43.5 172v641q0 41 41 41z" />
    <glyph glyph-name="uacute" unicode="&#xfa;" horiz-adv-x="1344" 
d="M774 1358.5q-10 -6.5 -29 -6.5h-139q-12 0 -22 7.5t-10 21.5q0 9 4 18l88 217q8 21 19 29t31 8h156q13 0 21.5 -9t8.5 -23q0 -10 -4 -18l-104 -214q-10 -24 -20 -30.5zM980 1226h199q40 0 40 -41v-1144q0 -41 -40 -41h-128q-20 0 -36 14t-20 34l-27 119
q-123 -178 -358 -178q-115 0 -223.5 52t-180.5 168.5t-72 298.5v677q0 41 39 41h194q40 0 40 -41v-671q2 -78 37 -139t97 -95t143 -34q49 0 108.5 29.5t103 96.5t43.5 172v641q0 41 41 41z" />
    <glyph glyph-name="ucircumflex" unicode="&#xfb;" horiz-adv-x="1344" 
d="M707 1729q13 0 27 -14l236 -235q15 -13 15 -28t-14 -27l-65 -64q-13 -13 -27 -13q-15 0 -28 13l-146 146l-146 -146q-13 -13 -27 -13q-12 0 -26 12l-64 63q-13 13 -13 26q0 14 14 28l237 238q14 14 27 14zM980 1226h199q40 0 40 -41v-1144q0 -41 -40 -41h-128
q-20 0 -36 14t-20 34l-27 119q-123 -178 -358 -178q-115 0 -223.5 52t-180.5 168.5t-72 298.5v677q0 41 39 41h194q40 0 40 -41v-671q2 -78 37 -139t97 -95t143 -34q49 0 108.5 29.5t103 96.5t43.5 172v641q0 41 41 41z" />
    <glyph glyph-name="udieresis" unicode="&#xfc;" horiz-adv-x="1344" 
d="M417 1605h133q25 0 35.5 -12t10.5 -37v-132q0 -26 -11.5 -36t-34.5 -10h-133q-25 0 -36.5 10t-11.5 35v133q0 49 48 49zM804 1605h133q25 0 35.5 -12t10.5 -37v-132q0 -26 -11.5 -36t-34.5 -10h-133q-25 0 -36.5 10t-11.5 35v133q0 49 48 49zM980 1226h199q40 0 40 -41
v-1144q0 -41 -40 -41h-128q-20 0 -36 14t-20 34l-27 119q-123 -178 -358 -178q-115 0 -223.5 52t-180.5 168.5t-72 298.5v677q0 41 39 41h194q40 0 40 -41v-671q2 -78 37 -139t97 -95t143 -34q49 0 108.5 29.5t103 96.5t43.5 172v641q0 41 41 41z" />
    <glyph glyph-name="yacute" unicode="&#xfd;" horiz-adv-x="1252" 
d="M730 1370.5q-10 -6.5 -29 -6.5h-139q-12 0 -22 7.5t-10 21.5q0 9 4 18l88 217q8 21 19 29t31 8h156q13 0 21.5 -9t8.5 -23q0 -10 -4 -18l-104 -214q-10 -24 -20 -30.5zM520 -372h-185q-42 0 -42 34q0 13 6 30l162 414l-427 1055q-6 15 -6 26q0 19 13 28.5t31 9.5h181
q34 0 48 -38l288 -781l293 783q14 36 48 36h205q40 0 40 -33q0 -12 -5 -25l-601 -1504q-15 -35 -49 -35z" />
    <glyph glyph-name="thorn" unicode="&#xfe;" horiz-adv-x="1480" 
d="M148.5 1565q14.5 16 40.5 16h168q21 0 37 -16.5t16 -40.5v-460q77 84 162 130t206 46q171 0 312 -84t223 -228.5t82 -316.5t-82 -317t-223.5 -229.5t-311.5 -84.5q-116 0 -203 45.5t-163 126.5v-468q0 -25 -15 -40.5t-43 -15.5h-159q-22 0 -41 16t-19 40l-1 1840
q0 25 14.5 41zM1074 798.5q-47 86.5 -128.5 137.5t-180.5 51q-82 0 -154.5 -35t-124.5 -96t-76 -137v-217q22 -77 75 -139t126 -97.5t154 -35.5q99 0 180.5 52t128.5 139.5t47 189.5q0 101 -47 187.5z" />
    <glyph glyph-name="ydieresis" unicode="&#xff;" horiz-adv-x="1252" 
d="M337 1596h133q25 0 35.5 -12t10.5 -37v-132q0 -26 -11.5 -36t-34.5 -10h-133q-25 0 -36.5 10t-11.5 35v133q0 49 48 49zM724 1596h133q25 0 35.5 -12t10.5 -37v-132q0 -26 -11.5 -36t-34.5 -10h-133q-25 0 -36.5 10t-11.5 35v133q0 49 48 49zM520 -372h-185q-42 0 -42 34
q0 13 6 30l162 414l-427 1055q-6 15 -6 26q0 19 13 28.5t31 9.5h181q34 0 48 -38l288 -781l293 783q14 36 48 36h205q40 0 40 -33q0 -12 -5 -25l-601 -1504q-15 -35 -49 -35z" />
    <glyph glyph-name="Amacron" unicode="&#x100;" horiz-adv-x="1440" 
d="M351.5 1715.5q8.5 8.5 22.5 8.5h715q29 0 29 -29v-114q0 -14 -8.5 -21.5t-21.5 -7.5h-715q-11 0 -20.5 7.5t-9.5 21.5v112q0 14 8.5 22.5zM658 1426h160q34 0 49 -37l541 -1348q4 -9 4 -17q0 -12 -8 -18t-23 -6h-210q-33 0 -47 35l-93 230h-588l-92 -229
q-7 -20 -18.5 -28t-29.5 -8h-210q-30 0 -30 23q0 9 4 18l543 1348q15 37 48 37zM940 513l-202 544l-205 -544h407z" />
    <glyph glyph-name="amacron" unicode="&#x101;" horiz-adv-x="1473" 
d="M339.5 1533.5q8.5 8.5 22.5 8.5h715q29 0 29 -29v-114q0 -14 -8.5 -21.5t-21.5 -7.5h-715q-11 0 -20.5 7.5t-9.5 21.5v112q0 14 8.5 22.5zM1319 0h-171q-26 0 -42.5 17t-16.5 43v80q-80 -77 -177.5 -119.5t-203.5 -42.5q-162 0 -305 81.5t-229 225t-86 322.5
q0 171 83.5 316t225.5 230t311 85q126 0 221.5 -41.5t173.5 -130.5l17 120q3 21 11.5 30.5t27.5 9.5h160q38 0 38 -40v-1146q0 -40 -38 -40zM1036 798.5q-49 87.5 -132.5 139.5t-183.5 52q-97 0 -179.5 -50t-131 -137.5t-48.5 -194.5q0 -105 47.5 -192.5t129.5 -138
t182 -50.5q102 0 185.5 51.5t131.5 139t48 190.5t-49 190.5z" />
    <glyph glyph-name="Abreve" unicode="&#x102;" horiz-adv-x="1440" 
d="M612 1607q-55 31 -86.5 81.5t-31.5 106.5q0 36 27 36h103q11 0 18 -7.5t7 -18.5q0 -29 23.5 -51t64.5 -22q36 0 60.5 23.5t24.5 49.5q0 11 7.5 18.5t18.5 7.5h101q29 0 29 -36q0 -57 -32.5 -107.5t-89 -81t-123.5 -30.5q-66 0 -121 31zM658 1426h160q34 0 49 -37
l541 -1348q4 -9 4 -17q0 -12 -8 -18t-23 -6h-210q-33 0 -47 35l-93 230h-588l-92 -229q-7 -20 -18.5 -28t-29.5 -8h-210q-30 0 -30 23q0 9 4 18l543 1348q15 37 48 37zM940 513l-202 544l-205 -544h407z" />
    <glyph glyph-name="abreve" unicode="&#x103;" horiz-adv-x="1473" 
d="M590 1419q-55 31 -86.5 81.5t-31.5 106.5q0 36 27 36h103q11 0 18 -7.5t7 -18.5q0 -29 23.5 -51t64.5 -22q36 0 60.5 23.5t24.5 49.5q0 11 7.5 18.5t18.5 7.5h101q29 0 29 -36q0 -57 -32.5 -107.5t-89 -81t-123.5 -30.5q-66 0 -121 31zM1319 0h-171q-26 0 -42.5 17
t-16.5 43v80q-80 -77 -177.5 -119.5t-203.5 -42.5q-162 0 -305 81.5t-229 225t-86 322.5q0 171 83.5 316t225.5 230t311 85q126 0 221.5 -41.5t173.5 -130.5l17 120q3 21 11.5 30.5t27.5 9.5h160q38 0 38 -40v-1146q0 -40 -38 -40zM1036 798.5q-49 87.5 -132.5 139.5
t-183.5 52q-97 0 -179.5 -50t-131 -137.5t-48.5 -194.5q0 -105 47.5 -192.5t129.5 -138t182 -50.5q102 0 185.5 51.5t131.5 139t48 190.5t-49 190.5z" />
    <glyph glyph-name="Aogonek" unicode="&#x104;" horiz-adv-x="1440" 
d="M1480 -219q10 -9 10 -24q0 -61 -29 -113.5t-80 -84t-115 -31.5q-61 0 -113 30t-82.5 82t-30.5 113q0 49 21 91t59 82l74 74h-23q-33 0 -47 35l-93 230h-588l-92 -229q-7 -20 -18.5 -28t-29.5 -8h-210q-30 0 -30 23q0 9 4 18l543 1348q15 37 48 37h160q34 0 49 -37
l541 -1348q4 -9 4 -18t-6 -15l-6 -7l-174 -174q-19 -19 -30 -37t-11 -39q0 -31 22 -53t57 -22q33 0 56 20t23 54q0 20 9 30t23 10h83q12 0 22 -9zM940 513l-202 544l-205 -544h407z" />
    <glyph glyph-name="aogonek" unicode="&#x105;" horiz-adv-x="1473" 
d="M1424 -213q10 -9 10 -24q0 -61 -29 -113.5t-80 -84t-115 -31.5q-61 0 -113 30t-82.5 82t-30.5 113q0 49 21 91t59 82l70 69q-20 5 -32.5 21t-12.5 38v80q-80 -77 -177.5 -119.5t-203.5 -42.5q-162 0 -305 81.5t-229 225t-86 322.5q0 171 83.5 316t225.5 230t311 85
q126 0 221.5 -41.5t173.5 -130.5l17 120q3 21 11.5 30.5t27.5 9.5h160q38 0 38 -40v-1146q0 -23 -13 -33l-174 -174q-19 -19 -30 -37t-11 -39q0 -31 22 -53t57 -22q33 0 56 20t23 54q0 20 9 30t23 10h83q12 0 22 -9zM905.5 278.5q83.5 51.5 131.5 139t48 190.5t-49 190.5
t-132.5 139.5t-183.5 52q-97 0 -179.5 -50t-131 -137.5t-48.5 -194.5q0 -105 47.5 -192.5t129.5 -138t182 -50.5q102 0 185.5 51.5z" />
    <glyph glyph-name="Cacute" unicode="&#x106;" horiz-adv-x="1359" 
d="M935 1578.5q-10 -6.5 -29 -6.5h-139q-12 0 -22 7.5t-10 21.5q0 9 4 18l88 217q8 21 19 29t31 8h156q13 0 21.5 -9t8.5 -23q0 -10 -4 -18l-104 -214q-10 -24 -20 -30.5zM1126 347q15 0 25 -14l97 -164q11 -12 11 -24q0 -15 -22 -32q-86 -64 -188 -98.5t-228 -34.5
q-200 0 -369.5 98.5t-268.5 267.5t-99 369t99 368t268.5 265.5t369.5 97.5q126 0 228 -34t190 -99q17 -14 17 -31q0 -10 -5 -17l-102 -172q-9 -12 -23 -12t-31 11q-72 45 -136 66.5t-138 21.5q-127 0 -230.5 -62t-163 -168.5t-59.5 -234.5t59.5 -236.5t163 -172t230.5 -63.5
q75 0 145 24.5t125 64.5q20 15 35 15z" />
    <glyph glyph-name="cacute" unicode="&#x107;" horiz-adv-x="1196" 
d="M846 1391.5q-10 -6.5 -29 -6.5h-139q-12 0 -22 7.5t-10 21.5q0 9 4 18l88 217q8 21 19 29t31 8h156q13 0 21.5 -9t8.5 -23q0 -10 -4 -18l-104 -214q-10 -24 -20 -30.5zM997 339q16 0 23 -11l98 -144q10 -14 10 -27q0 -14 -17 -29q-76 -64 -184.5 -107.5t-217.5 -43.5
q-172 0 -317 83t-230 228t-85 322q0 172 85 316t229 228t311 84q121 1 219.5 -36t187.5 -109q14 -13 14 -26q0 -9 -5 -17l-98 -151q-8 -11 -23 -11q-12 0 -22 7q-66 52 -132.5 74.5t-137.5 22.5q-95 0 -178.5 -49.5t-134 -137.5t-50.5 -196t48.5 -195t132 -136.5
t183.5 -49.5q136 0 266 102q11 9 25 9z" />
    <glyph glyph-name="Ccircumflex" unicode="&#x108;" horiz-adv-x="1359" 
d="M819 1940q13 0 27 -14l236 -235q15 -13 15 -28t-14 -27l-65 -64q-13 -13 -27 -13q-15 0 -28 13l-146 146l-146 -146q-13 -13 -27 -13q-13 0 -26 12l-64 63q-13 13 -13 26q0 14 14 28l237 238q14 14 27 14zM1126 347q15 0 25 -14l97 -164q11 -12 11 -24q0 -15 -22 -32
q-86 -64 -188 -98.5t-228 -34.5q-200 0 -369.5 98.5t-268.5 267.5t-99 369t99 368t268.5 265.5t369.5 97.5q126 0 228 -34t190 -99q17 -14 17 -31q0 -10 -5 -17l-102 -172q-9 -12 -23 -12t-31 11q-72 45 -136 66.5t-138 21.5q-127 0 -230.5 -62t-163 -168.5t-59.5 -234.5
t59.5 -236.5t163 -172t230.5 -63.5q75 0 145 24.5t125 64.5q20 15 35 15z" />
    <glyph glyph-name="ccircumflex" unicode="&#x109;" horiz-adv-x="1196" 
d="M719 1759q13 0 27 -14l236 -235q15 -13 15 -28t-14 -27l-65 -64q-13 -13 -27 -13q-15 0 -28 13l-146 146l-146 -146q-13 -13 -27 -13q-13 0 -26 12l-64 63q-13 13 -13 26q0 14 14 28l237 238q14 14 27 14zM997 339q16 0 23 -11l98 -144q10 -14 10 -27q0 -14 -17 -29
q-76 -64 -184.5 -107.5t-217.5 -43.5q-172 0 -317 83t-230 228t-85 322q0 172 85 316t229 228t311 84q121 1 219.5 -36t187.5 -109q14 -13 14 -26q0 -9 -5 -17l-98 -151q-8 -11 -23 -11q-12 0 -22 7q-66 52 -132.5 74.5t-137.5 22.5q-95 0 -178.5 -49.5t-134 -137.5
t-50.5 -196t48.5 -195t132 -136.5t183.5 -49.5q136 0 266 102q11 9 25 9z" />
    <glyph glyph-name="Cdotaccent" unicode="&#x10a;" horiz-adv-x="1359" 
d="M754 1806h138q25 0 36 -13.5t11 -38.5v-137q0 -26 -12 -36t-35 -10h-138q-25 0 -37.5 10t-12.5 36v138q0 51 50 51zM1126 347q15 0 25 -14l97 -164q11 -12 11 -24q0 -15 -22 -32q-86 -64 -188 -98.5t-228 -34.5q-200 0 -369.5 98.5t-268.5 267.5t-99 369t99 368
t268.5 265.5t369.5 97.5q126 0 228 -34t190 -99q17 -14 17 -31q0 -10 -5 -17l-102 -172q-9 -12 -23 -12t-31 11q-72 45 -136 66.5t-138 21.5q-127 0 -230.5 -62t-163 -168.5t-59.5 -234.5t59.5 -236.5t163 -172t230.5 -63.5q75 0 145 24.5t125 64.5q20 15 35 15z" />
    <glyph glyph-name="cdotaccent" unicode="&#x10b;" horiz-adv-x="1196" 
d="M644 1621h138q25 0 36 -13.5t11 -38.5v-137q0 -26 -12 -36t-35 -10h-138q-25 0 -37.5 10t-12.5 36v138q0 51 50 51zM997 339q16 0 23 -11l98 -144q10 -14 10 -27q0 -14 -17 -29q-76 -64 -184.5 -107.5t-217.5 -43.5q-172 0 -317 83t-230 228t-85 322q0 172 85 316
t229 228t311 84q121 1 219.5 -36t187.5 -109q14 -13 14 -26q0 -9 -5 -17l-98 -151q-8 -11 -23 -11q-12 0 -22 7q-66 52 -132.5 74.5t-137.5 22.5q-95 0 -178.5 -49.5t-134 -137.5t-50.5 -196t48.5 -195t132 -136.5t183.5 -49.5q136 0 266 102q11 9 25 9z" />
    <glyph glyph-name="Ccaron" unicode="&#x10c;" horiz-adv-x="1359" 
d="M802 1544q-15 0 -27 13l-236 238q-14 14 -14 28q0 13 13 26l63 63q14 12 27 12q14 0 27 -13l147 -147l148 147q13 13 27 13q13 0 27 -12l63 -63q13 -13 13 -27t-13 -27l-237 -238q-13 -13 -28 -13zM1126 347q15 0 25 -14l97 -164q11 -12 11 -24q0 -15 -22 -32
q-86 -64 -188 -98.5t-228 -34.5q-200 0 -369.5 98.5t-268.5 267.5t-99 369t99 368t268.5 265.5t369.5 97.5q126 0 228 -34t190 -99q17 -14 17 -31q0 -10 -5 -17l-102 -172q-9 -12 -23 -12t-31 11q-72 45 -136 66.5t-138 21.5q-127 0 -230.5 -62t-163 -168.5t-59.5 -234.5
t59.5 -236.5t163 -172t230.5 -63.5q75 0 145 24.5t125 64.5q20 15 35 15z" />
    <glyph glyph-name="ccaron" unicode="&#x10d;" horiz-adv-x="1196" 
d="M706 1369q-15 0 -27 13l-236 238q-14 14 -14 28q0 13 13 26l63 63q14 12 27 12q14 0 27 -13l147 -147l148 147q13 13 27 13t27 -12l63 -63q13 -13 13 -27t-13 -27l-237 -238q-13 -13 -28 -13zM997 339q16 0 23 -11l98 -144q10 -14 10 -27q0 -14 -17 -29
q-76 -64 -184.5 -107.5t-217.5 -43.5q-172 0 -317 83t-230 228t-85 322q0 172 85 316t229 228t311 84q121 1 219.5 -36t187.5 -109q14 -13 14 -26q0 -9 -5 -17l-98 -151q-8 -11 -23 -11q-12 0 -22 7q-66 52 -132.5 74.5t-137.5 22.5q-95 0 -178.5 -49.5t-134 -137.5
t-50.5 -196t48.5 -195t132 -136.5t183.5 -49.5q136 0 266 102q11 9 25 9z" />
    <glyph glyph-name="Dcaron" unicode="&#x10e;" horiz-adv-x="1482" 
d="M600 1538q-15 0 -27 13l-236 238q-14 14 -14 28q0 13 13 26l63 63q13 12 27 12t27 -13l147 -147l148 147q13 13 27 13q13 0 27 -12l63 -63q13 -13 13 -27t-13 -27l-237 -238q-13 -13 -28 -13zM184 1425h478q181 0 347.5 -95t270 -259t103.5 -359q0 -188 -95 -349.5
t-258.5 -259t-359.5 -103.5h-486q-38 0 -38 38v1349q0 38 38 38zM1040 941q-61 104 -167 164.5t-236 60.5h-210v-907h210q130 0 236 60.5t167 164.5t61 228q0 125 -61 229z" />
    <glyph glyph-name="dcaron" unicode="&#x10f;" horiz-adv-x="1473" 
d="M1474 1587h167q43 0 43 -44v-131q0 -109 -32 -172t-75 -94q-13 -10 -25 -10t-24 11l-39 33q-12 11 -12 22q0 13 14 27q23 22 37 50t14 46v13q0 4 -3.5 7.5t-11.5 3.5h-56q-18 0 -28 10.5t-10 31.5v150q0 46 41 46zM1305 0h-165q-22 0 -37.5 24.5t-20.5 49.5l-16 69
q-79 -79 -176 -122t-200 -43q-167 0 -303.5 80.5t-215.5 224t-79 324.5q0 174 75 318t211 228t309 84q108 0 205 -41t174 -115v461q0 40 38 40h201q39 0 39 -40v-1502q0 -40 -39 -40zM1034 800.5q-51 87.5 -138.5 139t-190.5 51.5q-100 0 -178.5 -52t-122.5 -139.5
t-44 -191.5q0 -106 43 -193t122 -137.5t182 -50.5q101 0 188 51t138.5 138.5t51.5 191.5q0 105 -51 192.5z" />
    <glyph glyph-name="Dcroat" unicode="&#x110;" horiz-adv-x="1482" 
d="M1006.5 1330q166.5 -95 270 -259t103.5 -359q0 -188 -95 -349.5t-258.5 -259t-359.5 -103.5h-486q-38 0 -38 38v563h-75q-16 0 -28.5 10.5t-12.5 29.5v117q0 20 12 32t29 12h75v585q0 38 38 38h478q181 0 347.5 -95zM870 319.5q106 60.5 167 164.5t61 228q0 125 -61 229
t-167 164.5t-236 60.5h-210v-364h79q12 0 25.5 -11.5t13.5 -29.5v-120q0 -15 -12.5 -27.5t-30.5 -12.5h-75v-342h210q130 0 236 60.5z" />
    <glyph glyph-name="dcroat" unicode="&#x111;" horiz-adv-x="1473" 
d="M1445.5 1480.5q10.5 -8.5 10.5 -24.5v-148q0 -12 -10 -21.5t-24 -9.5h-78v-1237q0 -40 -39 -40h-165q-22 0 -37.5 24.5t-20.5 49.5l-16 69q-79 -79 -176 -122t-200 -43q-167 0 -303.5 80.5t-215.5 224t-79 324.5q0 174 75 318t211 228t309 84q108 0 205 -41t174 -115v196
h-156q-13 0 -22.5 7.5t-9.5 23.5v147q0 16 9.5 25t22.5 9h156v53q0 40 38 40h201q39 0 39 -40v-53h81q10 0 20.5 -8.5zM895 278q87 51 138.5 138.5t51.5 191.5q0 105 -51 192.5t-138.5 139t-190.5 51.5q-100 0 -178.5 -52t-122.5 -139.5t-44 -191.5q0 -106 43 -193
t122 -137.5t182 -50.5q101 0 188 51z" />
    <glyph glyph-name="Emacron" unicode="&#x112;" horiz-adv-x="1263" 
d="M287.5 1734.5q8.5 8.5 22.5 8.5h715q29 0 29 -29v-114q0 -14 -8.5 -21.5t-21.5 -7.5h-715q-11 0 -20.5 7.5t-9.5 21.5v112q0 14 8.5 22.5zM193 1425h938q39 0 39 -38v-186q0 -38 -39 -38h-695v-291h530q43 0 43 -39v-182q0 -38 -43 -38h-530v-352h713q40 0 40 -38v-185
q0 -38 -40 -38h-956q-37 0 -37 38v1349q0 38 37 38z" />
    <glyph glyph-name="emacron" unicode="&#x113;" horiz-adv-x="1405" 
d="M333.5 1545.5q8.5 8.5 22.5 8.5h715q29 0 29 -29v-114q0 -14 -8.5 -21.5t-21.5 -7.5h-715q-11 0 -20.5 7.5t-9.5 21.5v112q0 14 8.5 22.5zM1038 345q15 0 23 -12l98 -120q12 -15 12 -29q0 -15 -15 -29q-107 -94 -213.5 -135.5t-228.5 -41.5q-165 0 -310 85t-231.5 229.5
t-86.5 313.5q0 172 80.5 316.5t222.5 229.5t318 85q143 0 282.5 -69.5t231 -212t91.5 -349.5q0 -47 -11 -68t-29.5 -25.5t-57.5 -4.5h-860q20 -86 72 -151t127.5 -101t162.5 -36q67 0 116 13.5t80.5 32t70.5 48.5l29 22q13 9 26 9zM561 968q-69 -35 -119.5 -95t-76.5 -134
h685q-43 119 -133.5 191.5t-207.5 72.5q-79 0 -148 -35z" />
    <glyph glyph-name="Ebreve" unicode="&#x114;" horiz-adv-x="1263" 
d="M563 1608q-55 31 -86.5 81.5t-31.5 106.5q0 36 27 36h103q11 0 18 -7.5t7 -18.5q0 -29 23.5 -51t64.5 -22q36 0 60.5 23.5t24.5 49.5q0 11 7.5 18.5t18.5 7.5h101q29 0 29 -36q0 -57 -32.5 -107.5t-89 -81t-123.5 -30.5q-66 0 -121 31zM193 1425h938q39 0 39 -38v-186
q0 -38 -39 -38h-695v-291h530q43 0 43 -39v-182q0 -38 -43 -38h-530v-352h713q40 0 40 -38v-185q0 -38 -40 -38h-956q-37 0 -37 38v1349q0 38 37 38z" />
    <glyph glyph-name="ebreve" unicode="&#x115;" horiz-adv-x="1405" 
d="M611 1391q-55 31 -86.5 81.5t-31.5 106.5q0 36 27 36h103q11 0 18 -7.5t7 -18.5q0 -29 23.5 -51t64.5 -22q36 0 60.5 23.5t24.5 49.5q0 11 7.5 18.5t18.5 7.5h101q29 0 29 -36q0 -57 -32.5 -107.5t-89 -81t-123.5 -30.5q-66 0 -121 31zM1038 345q15 0 23 -12l98 -120
q12 -15 12 -29q0 -15 -15 -29q-107 -94 -213.5 -135.5t-228.5 -41.5q-165 0 -310 85t-231.5 229.5t-86.5 313.5q0 172 80.5 316.5t222.5 229.5t318 85q143 0 282.5 -69.5t231 -212t91.5 -349.5q0 -47 -11 -68t-29.5 -25.5t-57.5 -4.5h-860q20 -86 72 -151t127.5 -101
t162.5 -36q67 0 116 13.5t80.5 32t70.5 48.5l29 22q13 9 26 9zM561 968q-69 -35 -119.5 -95t-76.5 -134h685q-43 119 -133.5 191.5t-207.5 72.5q-79 0 -148 -35z" />
    <glyph glyph-name="Edotaccent" unicode="&#x116;" horiz-adv-x="1263" 
d="M644 1810h138q25 0 36 -13.5t11 -38.5v-137q0 -26 -12 -36t-35 -10h-138q-25 0 -37.5 10t-12.5 36v138q0 51 50 51zM193 1425h938q39 0 39 -38v-186q0 -38 -39 -38h-695v-291h530q43 0 43 -39v-182q0 -38 -43 -38h-530v-352h713q40 0 40 -38v-185q0 -38 -40 -38h-956
q-37 0 -37 38v1349q0 38 37 38z" />
    <glyph glyph-name="edotaccent" unicode="&#x117;" horiz-adv-x="1405" 
d="M659 1627h138q25 0 36 -13.5t11 -38.5v-137q0 -26 -12 -36t-35 -10h-138q-25 0 -37.5 10t-12.5 36v138q0 51 50 51zM1038 345q15 0 23 -12l98 -120q12 -15 12 -29q0 -15 -15 -29q-107 -94 -213.5 -135.5t-228.5 -41.5q-165 0 -310 85t-231.5 229.5t-86.5 313.5
q0 172 80.5 316.5t222.5 229.5t318 85q143 0 282.5 -69.5t231 -212t91.5 -349.5q0 -47 -11 -68t-29.5 -25.5t-57.5 -4.5h-860q20 -86 72 -151t127.5 -101t162.5 -36q67 0 116 13.5t80.5 32t70.5 48.5l29 22q13 9 26 9zM561 968q-69 -35 -119.5 -95t-76.5 -134h685
q-43 119 -133.5 191.5t-207.5 72.5q-79 0 -148 -35z" />
    <glyph glyph-name="Eogonek" unicode="&#x118;" horiz-adv-x="1263" 
d="M1256 -212q10 -9 10 -24q0 -61 -29 -113.5t-80 -84t-115 -31.5q-61 0 -113 30t-82.5 82t-30.5 113q0 49 21 91t59 82l67 67h-770q-37 0 -37 38v1349q0 38 37 38h938q39 0 39 -38v-186q0 -38 -39 -38h-695v-291h530q43 0 43 -39v-182q0 -38 -43 -38h-530v-352h713
q40 0 40 -38v-185q0 -24 -16 -33l-171 -171q-19 -19 -30 -37t-11 -39q0 -31 22 -53t57 -22q33 0 56 20t23 54q0 20 9 30t23 10h83q12 0 22 -9z" />
    <glyph glyph-name="eogonek" unicode="&#x119;" horiz-adv-x="1405" 
d="M989.5 1167.5q139.5 -69.5 231 -212t91.5 -349.5q0 -47 -11 -68t-29.5 -25.5t-57.5 -4.5h-860q20 -86 72 -151t127.5 -101t162.5 -36q67 0 116 13.5t80.5 32t70.5 48.5l29 22q13 9 26 9q15 0 23 -12l98 -120q12 -15 12 -29q0 -15 -15 -29q-71 -62 -143 -102l-151 -151
q-19 -19 -30 -37t-11 -39q0 -31 22 -53t57 -22q33 0 56 20t23 54q0 20 9 30t23 10h83q12 0 22 -9t10 -24q0 -61 -29 -113.5t-80 -84t-115 -31.5q-61 0 -113 30t-82.5 82t-30.5 113q0 78 60 150h-22q-165 0 -310 85t-231.5 229.5t-86.5 313.5q0 172 80.5 316.5t222.5 229.5
t318 85q143 0 282.5 -69.5zM1050 739q-43 119 -133.5 191.5t-207.5 72.5q-79 0 -148 -35t-119.5 -95t-76.5 -134h685z" />
    <glyph glyph-name="Ecaron" unicode="&#x11a;" horiz-adv-x="1263" 
d="M681 1550q-15 0 -27 13l-236 238q-14 14 -14 28q0 13 13 26l63 63q13 12 27 12t27 -13l147 -147l148 147q13 13 27 13q13 0 27 -12l63 -63q13 -13 13 -27t-13 -27l-237 -238q-13 -13 -28 -13zM193 1425h938q39 0 39 -38v-186q0 -38 -39 -38h-695v-291h530q43 0 43 -39
v-182q0 -38 -43 -38h-530v-352h713q40 0 40 -38v-185q0 -38 -40 -38h-956q-37 0 -37 38v1349q0 38 37 38z" />
    <glyph glyph-name="ecaron" unicode="&#x11b;" horiz-adv-x="1405" 
d="M710 1361q-15 0 -27 13l-236 238q-14 14 -14 28q0 13 13 26l63 63q13 12 27 12t27 -13l147 -147l148 147q13 13 27 13q13 0 27 -12l63 -63q13 -13 13 -27t-13 -27l-237 -238q-13 -13 -28 -13zM1038 345q15 0 23 -12l98 -120q12 -15 12 -29q0 -15 -15 -29
q-107 -94 -213.5 -135.5t-228.5 -41.5q-165 0 -310 85t-231.5 229.5t-86.5 313.5q0 172 80.5 316.5t222.5 229.5t318 85q143 0 282.5 -69.5t231 -212t91.5 -349.5q0 -47 -11 -68t-29.5 -25.5t-57.5 -4.5h-860q20 -86 72 -151t127.5 -101t162.5 -36q67 0 116 13.5t80.5 32
t70.5 48.5l29 22q13 9 26 9zM561 968q-69 -35 -119.5 -95t-76.5 -134h685q-43 119 -133.5 191.5t-207.5 72.5q-79 0 -148 -35z" />
    <glyph glyph-name="Gcircumflex" unicode="&#x11c;" horiz-adv-x="1428" 
d="M803 1955q13 0 27 -14l236 -235q15 -13 15 -28t-14 -27l-65 -64q-13 -13 -27 -13q-15 0 -28 13l-146 146l-146 -146q-13 -13 -27 -13q-12 0 -26 12l-64 63q-13 13 -13 26q0 14 14 28l237 238q14 14 27 14zM934.5 255.5q59.5 15.5 105.5 49.5v294q0 39 38 39h171
q15 0 26 -9t11 -30v-435q0 -27 -20 -42q-92 -64 -207 -102.5t-238 -38.5q-200 0 -369.5 98.5t-268.5 267.5t-99 369t98 367.5t266.5 265t369.5 97.5q126 0 231 -36t198 -107q19 -15 19 -30q0 -10 -8 -20l-114 -163q-12 -15 -28 -15q-11 0 -25 9q-128 94 -270 94
q-131 0 -237.5 -61t-167.5 -167t-61 -234q0 -127 61 -236.5t165.5 -174.5t230.5 -65q63 0 122.5 15.5z" />
    <glyph glyph-name="gcircumflex" unicode="&#x11d;" horiz-adv-x="1496" 
d="M720 1733q13 0 27 -14l236 -235q15 -14 15 -28q0 -15 -14 -27l-65 -64q-13 -13 -27 -13q-15 0 -28 13l-146 146l-146 -146q-13 -13 -27 -13q-12 0 -26 12l-64 63q-13 13 -13 26q0 14 14 28l237 238q14 14 27 14zM1263.5 -115.5q-79.5 -146.5 -219.5 -220.5t-322 -74
q-120 0 -237.5 40.5t-201.5 111.5q-17 14 -17 28q0 10 12 28l80 116q13 20 34 20q16 0 34 -12q126 -88 316 -88q96 0 172 42.5t118.5 118.5t42.5 173v4q-82 -86 -171.5 -128.5t-208.5 -42.5q-160 0 -299 78t-222.5 218.5t-83.5 317.5q0 167 83.5 310.5t223 229t298.5 85.5
q230 0 393 -176l17 113q4 27 14 38t33 11h155q36 0 36 -42v-942q0 -211 -79.5 -357.5zM1036.5 802q-47.5 87 -130.5 138.5t-186 51.5q-107 0 -189.5 -51.5t-128.5 -139t-46 -191.5q0 -110 48.5 -196t133 -134t187.5 -48q102 0 184 51t128.5 138.5t46.5 190.5t-47.5 190z" />
    <glyph glyph-name="Gbreve" unicode="&#x11e;" horiz-adv-x="1428" 
d="M670 1607q-55 31 -86.5 81.5t-31.5 106.5q0 36 27 36h103q11 0 18 -7.5t7 -18.5q0 -29 23.5 -51t64.5 -22q36 0 60.5 23.5t24.5 49.5q0 11 7.5 18.5t18.5 7.5h101q29 0 29 -36q0 -57 -32.5 -107.5t-89 -81t-123.5 -30.5q-66 0 -121 31zM934.5 255.5q59.5 15.5 105.5 49.5
v294q0 39 38 39h171q15 0 26 -9t11 -30v-435q0 -27 -20 -42q-92 -64 -207 -102.5t-238 -38.5q-200 0 -369.5 98.5t-268.5 267.5t-99 369t98 367.5t266.5 265t369.5 97.5q126 0 231 -36t198 -107q19 -15 19 -30q0 -10 -8 -20l-114 -163q-12 -15 -28 -15q-11 0 -25 9
q-128 94 -270 94q-131 0 -237.5 -61t-167.5 -167t-61 -234q0 -127 61 -236.5t165.5 -174.5t230.5 -65q63 0 122.5 15.5z" />
    <glyph glyph-name="gbreve" unicode="&#x11f;" horiz-adv-x="1496" 
d="M596 1392q-55 31 -86.5 81.5t-31.5 106.5q0 36 27 36h103q11 0 18 -7.5t7 -18.5q0 -29 23.5 -51t64.5 -22q36 0 60.5 23.5t24.5 49.5q0 11 7.5 18.5t18.5 7.5h101q29 0 29 -36q0 -57 -32.5 -107.5t-89 -81t-123.5 -30.5q-66 0 -121 31zM1263.5 -115.5
q-79.5 -146.5 -219.5 -220.5t-322 -74q-120 0 -237.5 40.5t-201.5 111.5q-17 14 -17 28q0 10 12 28l80 116q13 20 34 20q16 0 34 -12q126 -88 316 -88q96 0 172 42.5t118.5 118.5t42.5 173v4q-82 -86 -171.5 -128.5t-208.5 -42.5q-160 0 -299 78t-222.5 218.5t-83.5 317.5
q0 167 83.5 310.5t223 229t298.5 85.5q230 0 393 -176l17 113q4 27 14 38t33 11h155q36 0 36 -42v-942q0 -211 -79.5 -357.5zM1036.5 802q-47.5 87 -130.5 138.5t-186 51.5q-107 0 -189.5 -51.5t-128.5 -139t-46 -191.5q0 -110 48.5 -196t133 -134t187.5 -48q102 0 184 51
t128.5 138.5t46.5 190.5t-47.5 190z" />
    <glyph glyph-name="Gdotaccent" unicode="&#x120;" horiz-adv-x="1428" 
d="M752 1813h138q25 0 36 -13.5t11 -38.5v-137q0 -26 -12 -36t-35 -10h-138q-25 0 -37.5 10t-12.5 36v138q0 51 50 51zM934.5 255.5q59.5 15.5 105.5 49.5v294q0 39 38 39h171q15 0 26 -9t11 -30v-435q0 -27 -20 -42q-92 -64 -207 -102.5t-238 -38.5q-200 0 -369.5 98.5
t-268.5 267.5t-99 369t98 367.5t266.5 265t369.5 97.5q126 0 231 -36t198 -107q19 -15 19 -30q0 -10 -8 -20l-114 -163q-12 -15 -28 -15q-11 0 -25 9q-128 94 -270 94q-131 0 -237.5 -61t-167.5 -167t-61 -234q0 -127 61 -236.5t165.5 -174.5t230.5 -65q63 0 122.5 15.5z
" />
    <glyph glyph-name="gdotaccent" unicode="&#x121;" horiz-adv-x="1496" 
d="M670 1641h138q25 0 36 -13.5t11 -38.5v-137q0 -26 -12 -36t-35 -10h-138q-25 0 -37.5 10t-12.5 36v138q0 51 50 51zM1263.5 -115.5q-79.5 -146.5 -219.5 -220.5t-322 -74q-120 0 -237.5 40.5t-201.5 111.5q-17 14 -17 28q0 10 12 28l80 116q13 20 34 20q16 0 34 -12
q126 -88 316 -88q96 0 172 42.5t118.5 118.5t42.5 173v4q-82 -86 -171.5 -128.5t-208.5 -42.5q-160 0 -299 78t-222.5 218.5t-83.5 317.5q0 167 83.5 310.5t223 229t298.5 85.5q230 0 393 -176l17 113q4 27 14 38t33 11h155q36 0 36 -42v-942q0 -211 -79.5 -357.5z
M1036.5 802q-47.5 87 -130.5 138.5t-186 51.5q-107 0 -189.5 -51.5t-128.5 -139t-46 -191.5q0 -110 48.5 -196t133 -134t187.5 -48q102 0 184 51t128.5 138.5t46.5 190.5t-47.5 190z" />
    <glyph glyph-name="Gcommaaccent" unicode="&#x122;" horiz-adv-x="1428" 
d="M934.5 255.5q59.5 15.5 105.5 49.5v294q0 39 38 39h171q15 0 26 -9t11 -30v-435q0 -27 -20 -42q-92 -64 -207 -102.5t-238 -38.5q-200 0 -369.5 98.5t-268.5 267.5t-99 369t98 367.5t266.5 265t369.5 97.5q126 0 231 -36t198 -107q19 -15 19 -30q0 -10 -8 -20l-114 -163
q-12 -15 -28 -15q-11 0 -25 9q-128 94 -270 94q-131 0 -237.5 -61t-167.5 -167t-61 -234q0 -127 61 -236.5t165.5 -174.5t230.5 -65q63 0 122.5 15.5zM734 -118h167q43 0 43 -44v-131q0 -109 -32 -172t-75 -94q-13 -10 -25 -10t-24 11l-39 33q-12 11 -12 22q0 13 14 27
q23 22 37 50t14 46v13q0 4 -3.5 7.5t-11.5 3.5h-56q-18 0 -28 10.5t-10 31.5v150q0 46 41 46z" />
    <glyph glyph-name="gcommaaccent" unicode="&#x123;" horiz-adv-x="1496" 
d="M810 1382h-167q-43 0 -43 44v131q0 109 32 172t75 94q13 10 25 10t24 -11l39 -33q12 -11 12 -22q0 -13 -14 -27q-23 -22 -37 -50t-14 -46v-13q0 -4 3.5 -7.5t11.5 -3.5h56q18 0 28 -10.5t10 -31.5v-150q0 -46 -41 -46zM1263.5 -115.5q-79.5 -146.5 -219.5 -220.5
t-322 -74q-120 0 -237.5 40.5t-201.5 111.5q-17 14 -17 28q0 10 12 28l80 116q13 20 34 20q16 0 34 -12q126 -88 316 -88q96 0 172 42.5t118.5 118.5t42.5 173v4q-82 -86 -171.5 -128.5t-208.5 -42.5q-160 0 -299 78t-222.5 218.5t-83.5 317.5q0 167 83.5 310.5t223 229
t298.5 85.5q230 0 393 -176l17 113q4 27 14 38t33 11h155q36 0 36 -42v-942q0 -211 -79.5 -357.5zM1036.5 802q-47.5 87 -130.5 138.5t-186 51.5q-107 0 -189.5 -51.5t-128.5 -139t-46 -191.5q0 -110 48.5 -196t133 -134t187.5 -48q102 0 184 51t128.5 138.5t46.5 190.5
t-47.5 190z" />
    <glyph glyph-name="Hcircumflex" unicode="&#x124;" horiz-adv-x="1545" 
d="M763 1967q13 0 27 -14l236 -235q15 -13 15 -28t-14 -27l-65 -64q-13 -13 -27 -13q-15 0 -28 13l-146 146l-146 -146q-13 -13 -27 -13q-12 0 -26 12l-64 63q-13 13 -13 26q0 14 14 28l237 238q14 14 27 14zM436 615v-576q0 -39 -41 -39h-202q-37 0 -37 39v1346
q0 18 9.5 29t27.5 11h207q15 0 25.5 -8.5t10.5 -29.5v-502h639v500q0 18 9.5 29t27.5 11h207q15 0 25.5 -8.5t10.5 -29.5v-1348q0 -39 -41 -39h-202q-37 0 -37 39v576h-639z" />
    <glyph glyph-name="hcircumflex" unicode="&#x125;" horiz-adv-x="1306" 
d="M773 1738q13 0 27 -14l236 -235q15 -13 15 -28t-14 -27l-65 -64q-13 -13 -27 -13q-15 0 -28 13l-146 146l-146 -146q-13 -13 -27 -13q-13 0 -26 12l-64 63q-13 13 -13 26q0 14 14 28l237 238q14 14 27 14zM898 817q-28 72 -85 113.5t-141 41.5q-73 0 -132 -36.5
t-93 -104.5t-34 -158v-631q0 -19 -10 -30.5t-30 -11.5h-199q-40 0 -40 42v1498q0 42 40 42h199q18 0 29 -12t11 -30v-457q65 71 146 109.5t175 38.5q172 0 277 -85t149 -212t44 -264v-628q0 -19 -10 -30.5t-30 -11.5h-199q-39 0 -39 42v611q0 92 -28 164z" />
    <glyph glyph-name="Hbar" unicode="&#x126;" horiz-adv-x="1511" 
d="M436 496v-457q0 -39 -41 -39h-202q-37 0 -37 39v1346q0 18 9.5 29t27.5 11h207q15 0 25.5 -8.5t10.5 -29.5v-207h639v205q0 18 9.5 29t27.5 11h207q15 0 25.5 -8.5t10.5 -29.5v-1348q0 -39 -41 -39h-202q-37 0 -37 39v457h-639zM1075 753v194h-639v-194h639z" />
    <glyph glyph-name="hbar" unicode="&#x127;" horiz-adv-x="1306" 
d="M1011 1146q105 -85 149 -212t44 -264v-628q0 -19 -10 -30.5t-30 -11.5h-199q-39 0 -39 42v611q0 92 -28 164t-85 113.5t-141 41.5q-73 0 -132 -36.5t-93 -104.5t-34 -158v-631q0 -19 -10 -30.5t-30 -11.5h-199q-40 0 -40 42v1229h-84q-11 0 -20 7.5t-9 21.5v122
q0 14 8.5 22t21.5 8h83v88q0 42 40 42h199q18 0 29 -12t11 -30v-88h193q28 0 28 -29v-124q0 -13 -8.5 -20.5t-21.5 -7.5h-191v-188q65 71 146 109.5t175 38.5q172 0 277 -85z" />
    <glyph glyph-name="Itilde" unicode="&#x128;" 
d="M61 1587q-17 0 -40 23l-44 43q-11 10 -15.5 16t-4.5 12t4.5 13t9 13.5t7.5 10.5q39 54 88.5 83t106.5 29q33 -1 65 -15.5t72 -38.5q31 -19 52 -29t39 -10q25 0 45.5 13.5t41.5 39.5q18 22 35 22q14 0 28 -14l62 -63q11 -11 11 -22q0 -9 -7 -20q-40 -61 -93.5 -93
t-116.5 -32q-33 0 -63.5 13.5t-70.5 38.5q-30 20 -52 30.5t-42 10.5q-28 0 -46 -13t-31.5 -29t-18.5 -21q-10 -11 -22 -11zM194 1425h203q38 0 38 -40v-1346q0 -39 -38 -39h-203q-38 0 -38 39v1346q0 40 38 40z" />
    <glyph glyph-name="itilde" unicode="&#x129;" 
d="M13 1389q-17 0 -40 23l-44 43q-11 10 -15.5 16t-4.5 12t4.5 13t9 13.5t7.5 10.5q39 54 88.5 83t106.5 29q33 -1 65 -15.5t72 -38.5q31 -19 52 -29t39 -10q25 0 45.5 13.5t41.5 39.5q18 22 35 22q14 0 28 -14l62 -63q11 -11 11 -22q0 -9 -7 -20q-40 -61 -93.5 -93
t-116.5 -32q-33 0 -63.5 13.5t-70.5 38.5q-30 20 -52 30.5t-42 10.5q-28 0 -46 -13t-31.5 -29t-18.5 -21q-10 -11 -22 -11zM147 1216q11 10 27 10h204q17 0 27 -10.5t10 -28.5v-1148q0 -39 -37 -39h-204q-38 0 -38 39v1148q0 19 11 29z" />
    <glyph glyph-name="Imacron" unicode="&#x12a;" 
d="M-29.5 1760.5q8.5 8.5 22.5 8.5h595q29 0 29 -29v-114q0 -14 -8.5 -21.5t-21.5 -7.5h-595q-11 0 -20.5 7.5t-9.5 21.5v112q0 14 8.5 22.5zM194 1425h203q38 0 38 -40v-1346q0 -39 -38 -39h-203q-38 0 -38 39v1346q0 40 38 40z" />
    <glyph glyph-name="imacron" unicode="&#x12b;" 
d="M-60.5 1521.5q8.5 8.5 22.5 8.5h595q29 0 29 -29v-114q0 -14 -8.5 -21.5t-21.5 -7.5h-595q-11 0 -20.5 7.5t-9.5 21.5v112q0 14 8.5 22.5zM147 1216q11 10 27 10h204q17 0 27 -10.5t10 -28.5v-1148q0 -39 -37 -39h-204q-38 0 -38 39v1148q0 19 11 29z" />
    <glyph glyph-name="Ibreve" unicode="&#x12c;" 
d="M179 1596q-55 31 -86.5 81.5t-31.5 106.5q0 36 27 36h103q11 0 18 -7.5t7 -18.5q0 -29 23.5 -51t64.5 -22q36 0 60.5 23.5t24.5 49.5q0 11 7.5 18.5t18.5 7.5h101q29 0 29 -36q0 -57 -32.5 -107.5t-89 -81t-123.5 -30.5q-66 0 -121 31zM194 1425h203q38 0 38 -40v-1346
q0 -39 -38 -39h-203q-38 0 -38 39v1346q0 40 38 40z" />
    <glyph glyph-name="ibreve" unicode="&#x12d;" 
d="M155 1416q-55 31 -86.5 81.5t-31.5 106.5q0 36 27 36h103q11 0 18 -7.5t7 -18.5q0 -29 23.5 -51t64.5 -22q36 0 60.5 23.5t24.5 49.5q0 11 7.5 18.5t18.5 7.5h101q29 0 29 -36q0 -57 -32.5 -107.5t-89 -81t-123.5 -30.5q-66 0 -121 31zM147 1216q11 10 27 10h204
q17 0 27 -10.5t10 -28.5v-1148q0 -39 -37 -39h-204q-38 0 -38 39v1148q0 19 11 29z" />
    <glyph glyph-name="Iogonek" unicode="&#x12e;" 
d="M501 -215q10 -9 10 -24q0 -61 -29 -113.5t-80 -84t-115 -31.5q-61 0 -113 30t-82.5 82t-30.5 113q0 49 21 91t59 82l70 70h-17q-38 0 -38 39v1346q0 40 38 40h203q38 0 38 -40v-1346q0 -20 -10 -30l-4 -4l-174 -174q-19 -19 -30 -37t-11 -39q0 -31 22 -53t57 -22
q33 0 56 20t23 54q0 20 9 30t23 10h83q12 0 22 -9z" />
    <glyph glyph-name="iogonek" unicode="&#x12f;" 
d="M128 1436v168q0 61 60 61h167q55 0 55 -61v-168q0 -30 -13.5 -42t-41.5 -12h-167q-60 0 -60 54zM482 -213q10 -9 10 -24q0 -61 -29 -113.5t-80 -84t-115 -31.5q-61 0 -113 30t-82.5 82t-30.5 113q0 49 21 91t59 82l68 68h-16q-38 0 -38 39v1148q0 19 11 29t27 10h204
q17 0 27 -10.5t10 -28.5v-1148q0 -25 -15 -34l-172 -172q-19 -19 -30 -37t-11 -39q0 -31 22 -53t57 -22q33 0 56 20t23 54q0 20 9 30t23 10h83q12 0 22 -9z" />
    <glyph glyph-name="Idotaccent" unicode="&#x130;" 
d="M233 1809h138q25 0 36 -13.5t11 -38.5v-137q0 -26 -12 -36t-35 -10h-138q-25 0 -37.5 10t-12.5 36v138q0 51 50 51zM194 1425h203q38 0 38 -40v-1346q0 -39 -38 -39h-203q-38 0 -38 39v1346q0 40 38 40z" />
    <glyph glyph-name="dotlessi" unicode="&#x131;" 
d="M147 1216q11 10 27 10h204q17 0 27 -10.5t10 -28.5v-1148q0 -39 -37 -39h-204q-38 0 -38 39v1148q0 19 11 29z" />
    <glyph glyph-name="IJ" unicode="&#x132;" horiz-adv-x="1179" 
d="M749 1418q12 9 25 9h199q24 0 34 -10.5t10 -35.5v-1297q0 -59 -6 -113q-16 -95 -76 -175t-150.5 -127t-193.5 -47q-87 0 -175 36t-141 103q-24 30 -24 50q0 14 10 24l119 111q16 15 30 15q9 0 17 -5t15 -11t10 -9q28 -24 56 -37t68 -13q43 0 80.5 21t59 56t21.5 75v1350
q0 21 12 30zM194 1425h203q38 0 38 -40v-1346q0 -39 -38 -39h-203q-38 0 -38 39v1346q0 40 38 40z" />
    <glyph glyph-name="ij" unicode="&#x133;" horiz-adv-x="1031" 
d="M221 1665h167q55 0 55 -61v-168q0 -30 -13.5 -42t-41.5 -12h-167q-60 0 -60 54v168q0 61 60 61zM668 1665h167q55 0 55 -61v-168q0 -30 -13.5 -42t-41.5 -12h-167q-60 0 -60 54v168q0 61 60 61zM180 1216q11 10 27 10h204q17 0 27 -10.5t10 -28.5v-1148q0 -39 -37 -39
h-204q-38 0 -38 39v1148q0 19 11 29zM646 1224h200q38 0 38 -41v-1173q0 -113 -53 -205.5t-153.5 -146.5t-237.5 -54q-27 0 -43 11.5t-16 25.5v142q0 18 9 31.5t40 13.5q94 0 135 53.5t41 150.5v1151q0 41 40 41z" />
    <glyph glyph-name="Jcircumflex" unicode="&#x134;" horiz-adv-x="684" 
d="M400 1950q13 0 27 -14l236 -235q15 -14 15 -28q0 -15 -14 -27l-65 -64q-13 -13 -27 -13q-15 0 -28 13l-146 146l-146 -146q-13 -13 -27 -13q-12 0 -26 12l-64 63q-13 13 -13 26q0 14 14 28l237 238q14 14 27 14zM259 1418q12 9 25 9h199q24 0 34 -10.5t10 -35.5v-1297
q0 -59 -6 -113q-16 -95 -76 -175t-150.5 -127t-193.5 -47q-87 0 -175 36t-141 103q-24 30 -24 50q0 14 10 24l119 111q16 15 30 15q9 0 17 -5t15 -11t10 -9q28 -24 56 -37t68 -13q43 0 80.5 21t59 56t21.5 75v1350q0 21 12 30z" />
    <glyph glyph-name="jcircumflex" unicode="&#x135;" horiz-adv-x="549" 
d="M271 1736q13 0 27 -14l236 -235q15 -13 15 -28t-14 -27l-65 -64q-13 -13 -27 -13q-15 0 -28 13l-146 146l-146 -146q-13 -13 -27 -13q-13 0 -26 12l-64 63q-13 13 -13 26q0 14 14 28l237 238q14 14 27 14zM174 1224h200q38 0 38 -41v-1173q0 -113 -53 -205.5
t-153.5 -146.5t-237.5 -54q-27 0 -43 11.5t-16 25.5v142q0 18 9 31.5t40 13.5q94 0 135 53.5t41 150.5v1151q0 41 40 41z" />
    <glyph glyph-name="Kcommaaccent" unicode="&#x136;" horiz-adv-x="1438" 
d="M1390 44q10 -13 10 -24q0 -9 -6.5 -14.5t-19.5 -5.5h-280q-16 0 -26.5 8t-24.5 27l-433 572l-174 -187v-381q0 -39 -37 -39h-206q-37 0 -37 39v1347q0 18 10 29t27 11h203q13 0 26.5 -11.5t13.5 -28.5v-593l533 605q16 19 27.5 23.5t31.5 4.5h248q24 0 24 -21
q0 -13 -10 -24l-493 -561zM621 -81h167q43 0 43 -44v-131q0 -109 -32 -172t-75 -94q-13 -10 -25 -10t-24 11l-39 33q-12 11 -12 22q0 13 14 27q23 22 37 50t14 46v13q0 4 -3.5 7.5t-11.5 3.5h-56q-18 0 -28 10.5t-10 31.5v150q0 46 41 46z" />
    <glyph glyph-name="kcommaaccent" unicode="&#x137;" horiz-adv-x="1277" 
d="M1228 65q11 -14 11 -29t-11 -25.5t-26 -10.5h-238q-16 0 -27 7.5t-26 27.5l-381 495l-119 -120v-371q0 -39 -37 -39h-203q-37 0 -37 39v1504q0 39 37 39h203q37 0 37 -39v-809l439 466q16 17 28.5 21.5t33.5 4.5h203q20 0 31.5 -11.5t11.5 -27.5q0 -13 -9 -24l-441 -454z
M568 -99h167q43 0 43 -44v-131q0 -109 -32 -172t-75 -94q-13 -10 -25 -10t-24 11l-39 33q-12 11 -12 22q0 13 14 27q23 22 37 50t14 46v13q0 4 -3.5 7.5t-11.5 3.5h-56q-18 0 -28 10.5t-10 31.5v150q0 46 41 46z" />
    <glyph glyph-name="kgreenlandic" unicode="&#x138;" horiz-adv-x="1277" 
d="M1228 65q11 -14 11 -29t-11 -25.5t-26 -10.5h-238q-16 0 -27 7.5t-26 27.5l-381 495l-119 -120v-371q0 -39 -37 -39h-203q-37 0 -37 39v1147q0 39 37 39h203q37 0 37 -39v-452l439 466q16 17 28.5 21.5t33.5 4.5h203q20 0 31.5 -11.5t11.5 -27.5q0 -13 -9 -24l-441 -454z
" />
    <glyph glyph-name="Lacute" unicode="&#x139;" horiz-adv-x="1116" 
d="M401 1579.5q-10 -6.5 -29 -6.5h-139q-12 0 -22 7.5t-10 21.5q0 9 4 18l88 217q8 21 19 29t31 8h156q13 0 21.5 -9t8.5 -23q0 -10 -4 -18l-104 -214q-10 -24 -20 -30.5zM167.5 1415q10.5 11 26.5 11h206q37 0 37 -40v-1121h605q40 0 40 -37v-190q0 -38 -40 -38h-848
q-37 0 -37 38v1348q0 18 10.5 29z" />
    <glyph glyph-name="lacute" unicode="&#x13a;" horiz-adv-x="545" 
d="M372 1693.5q-10 -6.5 -29 -6.5h-139q-12 0 -22 7.5t-10 21.5q0 9 4 18l88 217q8 21 19 29t31 8h156q13 0 21.5 -9t8.5 -23q0 -10 -4 -18l-104 -214q-10 -24 -20 -30.5zM145.5 1570q11.5 11 29.5 11h195q18 0 29.5 -12t11.5 -30v-1497q0 -19 -10.5 -30.5t-30.5 -11.5h-195
q-41 0 -41 42v1497q0 20 11.5 31z" />
    <glyph glyph-name="Lcommaaccent" unicode="&#x13b;" horiz-adv-x="1116" 
d="M167.5 1415q10.5 11 26.5 11h206q37 0 37 -40v-1121h605q40 0 40 -37v-190q0 -38 -40 -38h-848q-37 0 -37 38v1348q0 18 10.5 29zM524 -92h167q43 0 43 -44v-131q0 -109 -32 -172t-75 -94q-13 -10 -25 -10t-24 11l-39 33q-12 11 -12 22q0 13 14 27q23 22 37 50t14 46v13
q0 4 -3.5 7.5t-11.5 3.5h-56q-18 0 -28 10.5t-10 31.5v150q0 46 41 46z" />
    <glyph glyph-name="lcommaaccent" unicode="&#x13c;" horiz-adv-x="545" 
d="M145.5 1570q11.5 11 29.5 11h195q18 0 29.5 -12t11.5 -30v-1497q0 -19 -10.5 -30.5t-30.5 -11.5h-195q-41 0 -41 42v1497q0 20 11.5 31zM179 -119h167q43 0 43 -44v-131q0 -109 -32 -172t-75 -94q-13 -10 -25 -10t-24 11l-39 33q-12 11 -12 22q0 13 14 27q23 22 37 50
t14 46v13q0 4 -3.5 7.5t-11.5 3.5h-56q-18 0 -28 10.5t-10 31.5v150q0 46 41 46z" />
    <glyph glyph-name="Lcaron" unicode="&#x13d;" horiz-adv-x="1116" 
d="M812 1437h167q43 0 43 -44v-131q0 -109 -32 -172t-75 -94q-13 -10 -25 -10t-24 11l-39 33q-12 11 -12 22q0 13 14 27q23 22 37 50t14 46v13q0 4 -3.5 7.5t-11.5 3.5h-56q-18 0 -28 10.5t-10 31.5v150q0 46 41 46zM167.5 1415q10.5 11 26.5 11h206q37 0 37 -40v-1121h605
q40 0 40 -37v-190q0 -38 -40 -38h-848q-37 0 -37 38v1348q0 18 10.5 29z" />
    <glyph glyph-name="lcaron" unicode="&#x13e;" horiz-adv-x="545" 
d="M549 1584h167q43 0 43 -44v-131q0 -109 -32 -172t-75 -94q-13 -10 -25 -10t-24 11l-39 33q-12 11 -12 22q0 13 14 27q23 22 37 50t14 46v13q0 4 -3.5 7.5t-11.5 3.5h-56q-18 0 -28 10.5t-10 31.5v150q0 46 41 46zM145.5 1570q11.5 11 29.5 11h195q18 0 29.5 -12t11.5 -30
v-1497q0 -19 -10.5 -30.5t-30.5 -11.5h-195q-41 0 -41 42v1497q0 20 11.5 31z" />
    <glyph glyph-name="Ldot" unicode="&#x13f;" horiz-adv-x="1116" 
d="M167.5 1415q10.5 11 26.5 11h206q37 0 37 -40v-1121h605q40 0 40 -37v-190q0 -38 -40 -38h-848q-37 0 -37 38v1348q0 18 10.5 29zM706 848h138q25 0 36 -13.5t11 -38.5v-137q0 -26 -12 -36t-35 -10h-138q-25 0 -37.5 10t-12.5 36v138q0 51 50 51z" />
    <glyph glyph-name="ldot" unicode="&#x140;" horiz-adv-x="545" 
d="M145.5 1570q11.5 11 29.5 11h195q18 0 29.5 -12t11.5 -30v-1497q0 -19 -10.5 -30.5t-30.5 -11.5h-195q-41 0 -41 42v1497q0 20 11.5 31zM531 854h138q25 0 36 -13.5t11 -38.5v-137q0 -26 -12 -36t-35 -10h-138q-25 0 -37.5 10t-12.5 36v138q0 51 50 51z" />
    <glyph glyph-name="Lslash" unicode="&#x141;" horiz-adv-x="1116" 
d="M1082 228v-190q0 -38 -40 -38h-848q-37 0 -37 38v550l-156 -58q-6 -3 -15 -3t-16 4.5t-8 14.5v106q-1 4 -1 11q0 21 19 29l177 66v628q0 18 10.5 29t26.5 11h206q37 0 37 -40v-523l149 56q7 3 14 3q9 0 15.5 -5t7.5 -14l1 -108q1 -16 -2.5 -24.5t-14.5 -13.5l-170 -64
v-428h605q40 0 40 -37z" />
    <glyph glyph-name="lslash" unicode="&#x142;" horiz-adv-x="545" 
d="M591.5 787.5q-3.5 -8.5 -14.5 -13.5l-166 -62v-670q0 -19 -10.5 -30.5t-30.5 -11.5h-195q-41 0 -41 42v566l-138 -52q-8 -2 -14 -2q-21 0 -24 18v86q-1 4 -1 11q0 21 18 29l159 59v782q0 20 11.5 31t29.5 11h195q18 0 29.5 -12t11.5 -30v-678l145 54q7 3 15 3
q9 0 15 -4.5t7 -13.5l1 -88q1 -16 -2.5 -24.5z" />
    <glyph glyph-name="Nacute" unicode="&#x143;" horiz-adv-x="1545" 
d="M915 1569.5q-10 -6.5 -29 -6.5h-139q-12 0 -22 7.5t-10 21.5q0 9 4 18l88 217q8 21 19 29t31 8h156q13 0 21.5 -9t8.5 -23q0 -10 -4 -18l-104 -214q-10 -24 -20 -30.5zM426 39q0 -39 -41 -39h-192q-37 0 -37 39v1349q0 16 9.5 27t27.5 11h224q33 0 57 -36l644 -927v925
q0 17 10 27.5t29 10.5h191q15 0 28 -11t13 -27v-1349q0 -39 -41 -39h-203q-33 0 -57 35l-662 975v-971z" />
    <glyph glyph-name="nacute" unicode="&#x144;" horiz-adv-x="1306" 
d="M834 1398.5q-10 -6.5 -29 -6.5h-139q-12 0 -22 7.5t-10 21.5q0 9 4 18l88 217q8 21 19 29t31 8h156q13 0 21.5 -9t8.5 -23q0 -10 -4 -18l-104 -214q-10 -24 -20 -30.5zM390.5 11q-16.5 -11 -38.5 -11h-177q-41 0 -41 41v1144q0 41 41 41h130q20 0 36 -14t21 -35l16 -138
q69 99 169.5 147.5t212.5 48.5q111 0 216.5 -56t174 -173t68.5 -289v-677q0 -40 -38 -40h-193q-41 0 -41 40v668q0 69 -35 131.5t-96 100t-136 37.5q-65 0 -128.5 -34.5t-104 -99t-40.5 -148.5v-654q0 -19 -16.5 -30z" />
    <glyph glyph-name="Ncommaaccent" unicode="&#x145;" horiz-adv-x="1545" 
d="M426 39q0 -39 -41 -39h-192q-37 0 -37 39v1349q0 16 9.5 27t27.5 11h224q33 0 57 -36l644 -927v925q0 17 10 27.5t29 10.5h191q15 0 28 -11t13 -27v-1349q0 -39 -41 -39h-203q-33 0 -57 35l-662 975v-971zM670 -103h167q43 0 43 -44v-131q0 -109 -32 -172t-75 -94
q-13 -10 -25 -10t-24 11l-39 33q-12 11 -12 22q0 13 14 27q23 22 37 50t14 46v13q0 4 -3.5 7.5t-11.5 3.5h-56q-18 0 -28 10.5t-10 31.5v150q0 46 41 46z" />
    <glyph glyph-name="ncommaaccent" unicode="&#x146;" horiz-adv-x="1306" 
d="M390.5 11q-16.5 -11 -38.5 -11h-177q-41 0 -41 41v1144q0 41 41 41h130q20 0 36 -14t21 -35l16 -138q69 99 169.5 147.5t212.5 48.5q111 0 216.5 -56t174 -173t68.5 -289v-677q0 -40 -38 -40h-193q-41 0 -41 40v668q0 69 -35 131.5t-96 100t-136 37.5q-65 0 -128.5 -34.5
t-104 -99t-40.5 -148.5v-654q0 -19 -16.5 -30zM603 -97h167q43 0 43 -44v-131q0 -109 -32 -172t-75 -94q-13 -10 -25 -10t-24 11l-39 33q-12 11 -12 22q0 13 14 27q23 22 37 50t14 46v13q0 4 -3.5 7.5t-11.5 3.5h-56q-18 0 -28 10.5t-10 31.5v150q0 46 41 46z" />
    <glyph glyph-name="Ncaron" unicode="&#x147;" horiz-adv-x="1545" 
d="M814 1557q-15 0 -27 13l-236 238q-14 14 -14 28q0 13 13 26l63 63q14 12 27 12q14 0 27 -13l147 -147l148 147q13 13 27 13t27 -12l63 -63q13 -13 13 -27t-13 -27l-237 -238q-13 -13 -28 -13zM426 39q0 -39 -41 -39h-192q-37 0 -37 39v1349q0 16 9.5 27t27.5 11h224
q33 0 57 -36l644 -927v925q0 17 10 27.5t29 10.5h191q15 0 28 -11t13 -27v-1349q0 -39 -41 -39h-203q-33 0 -57 35l-662 975v-971z" />
    <glyph glyph-name="ncaron" unicode="&#x148;" horiz-adv-x="1306" 
d="M732 1354q-15 0 -27 13l-236 238q-14 14 -14 28q0 13 13 26l63 63q14 12 27 12q14 0 27 -13l147 -147l148 147q13 13 27 13t27 -12l63 -63q13 -13 13 -27t-13 -27l-237 -238q-13 -13 -28 -13zM390.5 11q-16.5 -11 -38.5 -11h-177q-41 0 -41 41v1144q0 41 41 41h130
q20 0 36 -14t21 -35l16 -138q69 99 169.5 147.5t212.5 48.5q111 0 216.5 -56t174 -173t68.5 -289v-677q0 -40 -38 -40h-193q-41 0 -41 40v668q0 69 -35 131.5t-96 100t-136 37.5q-65 0 -128.5 -34.5t-104 -99t-40.5 -148.5v-654q0 -19 -16.5 -30z" />
    <glyph glyph-name="napostrophe" unicode="&#x149;" horiz-adv-x="1306" 
d="M390.5 11q-16.5 -11 -38.5 -11h-177q-41 0 -41 41v1144q0 41 41 41h130q20 0 36 -14t21 -35l16 -138q69 99 169.5 147.5t212.5 48.5q111 0 216.5 -56t174 -173t68.5 -289v-677q0 -40 -38 -40h-193q-41 0 -41 40v668q0 69 -35 131.5t-96 100t-136 37.5q-65 0 -128.5 -34.5
t-104 -99t-40.5 -148.5v-654q0 -19 -16.5 -30zM-121 1222h167q43 0 43 -44v-131q0 -109 -32 -172t-75 -94q-13 -10 -25 -10t-24 11l-39 33q-12 11 -12 22q0 13 14 27q23 22 37 50t14 46v13q0 4 -3.5 7.5t-11.5 3.5h-56q-18 0 -28 10.5t-10 31.5v150q0 46 41 46z" />
    <glyph glyph-name="Eng" unicode="&#x14a;" horiz-adv-x="1545" 
d="M165.5 1415.5q9.5 10.5 27.5 10.5h224q33 0 57 -36l644 -927v925q1 17 10.5 27.5t28.5 10.5h191q15 0 28 -11t13 -27v-1383q0 -110 -57 -207t-155 -155t-215 -58q-87 0 -170 33.5t-144 101.5q-2 2 -10 9.5t-13.5 16t-5.5 16.5q0 13 13 26l124 121q13 16 27 16
q8 0 15.5 -5t14.5 -11.5t11 -9.5q25 -23 54 -36t70 -13q43 0 79.5 21t58 56t22.5 74v12l-682 997v-972q0 -38 -41 -38h-192q-37 0 -37 38v1350q0 17 9.5 27.5z" />
    <glyph glyph-name="eng" unicode="&#x14b;" horiz-adv-x="1306" 
d="M397.5 11q-16.5 -11 -38.5 -11h-184q-41 0 -41 41v1134q0 41 41 41h127q20 0 36 -14t21 -35l23 -115q65 95 165.5 141t213.5 46q111 0 215 -59t170 -173.5t66 -272.5v-694q0 -122 -50.5 -211t-147.5 -137t-234 -48q-28 0 -44 11.5t-16 26.5v127q0 18 9 31.5t40 13.5
q88 0 129.5 45.5t41.5 134.5v692q0 62 -36 120.5t-96 95.5t-127 37q-66 0 -127.5 -31.5t-100.5 -92.5t-39 -145v-669q0 -19 -16.5 -30z" />
    <glyph glyph-name="Omacron" unicode="&#x14c;" horiz-adv-x="1661" 
d="M438.5 1741.5q8.5 8.5 22.5 8.5h715q29 0 29 -29v-114q0 -14 -8.5 -21.5t-21.5 -7.5h-715q-11 0 -20.5 7.5t-9.5 21.5v112q0 14 8.5 22.5zM197 1081q99 168 267.5 266.5t367.5 98.5q200 0 367.5 -98.5t265.5 -266.5t98 -368q0 -199 -98 -367t-265.5 -266.5t-367.5 -98.5
q-199 0 -367.5 98.5t-267.5 266.5t-99 367q0 200 99 368zM438.5 479q59.5 -106 163 -167.5t230.5 -61.5t230 61.5t162 167.5t59 234t-59 234.5t-162 168t-230 61.5t-230.5 -61.5t-163 -168t-59.5 -234.5t59.5 -234z" />
    <glyph glyph-name="omacron" unicode="&#x14d;" horiz-adv-x="1434" 
d="M340.5 1536.5q8.5 8.5 22.5 8.5h715q29 0 29 -29v-114q0 -14 -8.5 -21.5t-21.5 -7.5h-715q-11 0 -20.5 7.5t-9.5 21.5v112q0 14 8.5 22.5zM172.5 924.5q84.5 144.5 229 229t315.5 84.5q172 0 318 -84.5t232 -229t86 -315.5t-86 -316t-232 -230t-317 -85t-315.5 85
t-229.5 230t-85 316t84.5 315.5zM407.5 419.5q45.5 -86.5 126.5 -137t184 -50.5q104 0 186.5 51t128.5 137.5t46 188.5t-46.5 187.5t-128.5 136t-186 50.5q-102 0 -183.5 -50t-127 -135.5t-45.5 -188.5t45.5 -189.5z" />
    <glyph glyph-name="Obreve" unicode="&#x14e;" horiz-adv-x="1661" 
d="M709 1597q-55 31 -86.5 81.5t-31.5 106.5q0 36 27 36h103q11 0 18 -7.5t7 -18.5q0 -29 23.5 -51t64.5 -22q36 0 60.5 23.5t24.5 49.5q0 11 7.5 18.5t18.5 7.5h101q29 0 29 -36q0 -57 -32.5 -107.5t-89 -81t-123.5 -30.5q-66 0 -121 31zM197 1081q99 168 267.5 266.5
t367.5 98.5q200 0 367.5 -98.5t265.5 -266.5t98 -368q0 -199 -98 -367t-265.5 -266.5t-367.5 -98.5q-199 0 -367.5 98.5t-267.5 266.5t-99 367q0 200 99 368zM438.5 479q59.5 -106 163 -167.5t230.5 -61.5t230 61.5t162 167.5t59 234t-59 234.5t-162 168t-230 61.5
t-230.5 -61.5t-163 -168t-59.5 -234.5t59.5 -234z" />
    <glyph glyph-name="obreve" unicode="&#x14f;" horiz-adv-x="1434" 
d="M592 1390q-55 31 -86.5 81.5t-31.5 106.5q0 36 27 36h103q11 0 18 -7.5t7 -18.5q0 -29 23.5 -51t64.5 -22q36 0 60.5 23.5t24.5 49.5q0 11 7.5 18.5t18.5 7.5h101q29 0 29 -36q0 -57 -32.5 -107.5t-89 -81t-123.5 -30.5q-66 0 -121 31zM172.5 924.5q84.5 144.5 229 229
t315.5 84.5q172 0 318 -84.5t232 -229t86 -315.5t-86 -316t-232 -230t-317 -85t-315.5 85t-229.5 230t-85 316t84.5 315.5zM407.5 419.5q45.5 -86.5 126.5 -137t184 -50.5q104 0 186.5 51t128.5 137.5t46 188.5t-46.5 187.5t-128.5 136t-186 50.5q-102 0 -183.5 -50
t-127 -135.5t-45.5 -188.5t45.5 -189.5z" />
    <glyph glyph-name="Ohungarumlaut" unicode="&#x150;" horiz-adv-x="1661" 
d="M716.5 1579q-9.5 -6 -29.5 -6h-138q-13 0 -23.5 7t-10.5 21q0 7 5 19l108 214q10 21 20.5 28.5t28.5 7.5h135q13 0 21.5 -9t8.5 -23q0 -10 -4 -18l-101 -210q-11 -25 -20.5 -31zM1135 1579.5q-10 -6.5 -29 -6.5h-139q-13 0 -23 6.5t-10 20.5q0 10 5 20l105 214
q10 21 20 28.5t29 7.5h137q13 0 21.5 -9t8.5 -23q0 -10 -4 -18l-101 -210q-10 -24 -20 -30.5zM197 1081q99 168 267.5 266.5t367.5 98.5q200 0 367.5 -98.5t265.5 -266.5t98 -368q0 -199 -98 -367t-265.5 -266.5t-367.5 -98.5q-199 0 -367.5 98.5t-267.5 266.5t-99 367
q0 200 99 368zM438.5 479q59.5 -106 163 -167.5t230.5 -61.5t230 61.5t162 167.5t59 234t-59 234.5t-162 168t-230 61.5t-230.5 -61.5t-163 -168t-59.5 -234.5t59.5 -234z" />
    <glyph glyph-name="ohungarumlaut" unicode="&#x151;" horiz-adv-x="1434" 
d="M628.5 1373q-9.5 -6 -29.5 -6h-138q-13 0 -23.5 7t-10.5 21q0 7 5 19l108 214q10 21 20.5 28.5t28.5 7.5h135q13 0 21.5 -9t8.5 -23q0 -10 -4 -18l-101 -210q-11 -25 -20.5 -31zM1047 1373.5q-10 -6.5 -29 -6.5h-139q-13 0 -23 6.5t-10 20.5q0 10 5 20l105 214
q10 21 20 28.5t29 7.5h137q13 0 21.5 -9t8.5 -23q0 -10 -4 -18l-101 -210q-10 -24 -20 -30.5zM172.5 924.5q84.5 144.5 229 229t315.5 84.5q172 0 318 -84.5t232 -229t86 -315.5t-86 -316t-232 -230t-317 -85t-315.5 85t-229.5 230t-85 316t84.5 315.5zM407.5 419.5
q45.5 -86.5 126.5 -137t184 -50.5q104 0 186.5 51t128.5 137.5t46 188.5t-46.5 187.5t-128.5 136t-186 50.5q-102 0 -183.5 -50t-127 -135.5t-45.5 -188.5t45.5 -189.5z" />
    <glyph glyph-name="OE" unicode="&#x152;" horiz-adv-x="2367" 
d="M174.5 1084q99.5 169 268.5 268.5t368 99.5q128 0 244 -41.5t214 -118.5v96q0 38 38 38h943q39 0 39 -38v-174q0 -38 -39 -38h-699v-337h559q21 0 31.5 -8.5t10.5 -28.5v-143q0 -39 -42 -39h-559v-361h718q38 0 38 -38v-183q0 -38 -38 -38h-962q-38 0 -38 38v101
q-97 -77 -213 -118t-245 -41q-199 0 -368 99t-268.5 268t-99.5 369q0 199 99.5 368zM415 480q60 -108 164.5 -171t231.5 -63q128 0 232 63t164 170.5t60 236.5q0 128 -60 235.5t-164.5 170.5t-231.5 63t-231.5 -63t-164.5 -170.5t-60 -235.5t60 -236z" />
    <glyph glyph-name="oe" unicode="&#x153;" horiz-adv-x="2415" 
d="M1969.5 1167.5q139.5 -69.5 231 -212t91.5 -349.5q0 -47 -11 -68t-29.5 -25.5t-57.5 -4.5h-860q20 -86 72 -151t127.5 -101t162.5 -36q67 0 116 13.5t80.5 32t70.5 48.5l29 22q13 9 26 9q15 0 23 -12l98 -120q12 -15 12 -29q0 -15 -15 -29q-107 -94 -213.5 -135.5
t-228.5 -41.5q-146 0 -277.5 67t-219.5 183q-89 -116 -221.5 -183t-283.5 -67q-171 0 -315.5 85t-229.5 230t-85 316t84.5 315.5t229 229t315.5 84.5q151 0 282 -65t220 -179q85 114 213 178.5t281 64.5q143 0 282.5 -69.5zM2030 739q-43 119 -133.5 191.5t-207.5 72.5
q-79 0 -148 -35t-119.5 -95t-76.5 -134h685zM878.5 283q82.5 51 128.5 137.5t46 188.5t-46.5 187.5t-128.5 136t-186 50.5q-102 0 -183.5 -50t-127 -135.5t-45.5 -188.5t45.5 -189.5t126.5 -137t184 -50.5q104 0 186.5 51z" />
    <glyph glyph-name="Racute" unicode="&#x154;" horiz-adv-x="1334" 
d="M760 1580.5q-10 -6.5 -29 -6.5h-139q-12 0 -22 7.5t-10 21.5q0 9 4 18l88 217q8 21 19 29t31 8h156q13 0 21.5 -9t8.5 -23q0 -10 -4 -18l-104 -214q-10 -24 -20 -30.5zM165 1414.5q9 10.5 28 10.5h610q128 0 231.5 -65.5t162 -173t58.5 -229.5q0 -119 -67 -226.5
t-176 -170.5l262 -519q3 -7 3 -14q0 -11 -7.5 -19t-20.5 -8h-248q-16 0 -25.5 7t-19.5 27l-228 459h-292v-455q0 -38 -38 -38h-205q-37 0 -37 38v1349q0 17 9 27.5zM436 738h299q66 0 119 30t83.5 81.5t30.5 112.5t-30.5 112.5t-84 82t-118.5 30.5h-299v-449z" />
    <glyph glyph-name="racute" unicode="&#x155;" horiz-adv-x="1048" 
d="M596 1369.5q-10 -6.5 -29 -6.5h-139q-12 0 -22 7.5t-10 21.5q0 9 4 18l88 217q8 21 19 29t31 8h156q13 0 21.5 -9t8.5 -23q0 -10 -4 -18l-104 -214q-10 -24 -20 -30.5zM170 1225h138q25 0 39.5 -8t19.5 -37l19 -105q48 78 123.5 121t166.5 43q98 0 182 -43.5t139 -90.5
q22 -21 22 -39q0 -13 -11 -27l-90 -127q-11 -16 -26 -16q-13 0 -30 12q-50 34 -102 56t-114 22t-116.5 -30t-89 -92t-34.5 -153v-671q1 -40 -39 -40h-197q-38 0 -38 40v1144q0 41 38 41z" />
    <glyph glyph-name="Rcommaaccent" unicode="&#x156;" horiz-adv-x="1334" 
d="M165 1414.5q9 10.5 28 10.5h610q128 0 231.5 -65.5t162 -173t58.5 -229.5q0 -119 -67 -226.5t-176 -170.5l262 -519q3 -7 3 -14q0 -11 -7.5 -19t-20.5 -8h-248q-16 0 -25.5 7t-19.5 27l-228 459h-292v-455q0 -38 -38 -38h-205q-37 0 -37 38v1349q0 17 9 27.5zM436 738
h299q66 0 119 30t83.5 81.5t30.5 112.5t-30.5 112.5t-84 82t-118.5 30.5h-299v-449zM587 -112h167q43 0 43 -44v-131q0 -109 -32 -172t-75 -94q-13 -10 -25 -10t-24 11l-39 33q-12 11 -12 22q0 13 14 27q23 22 37 50t14 46v13q0 4 -3.5 7.5t-11.5 3.5h-56q-18 0 -28 10.5
t-10 31.5v150q0 46 41 46z" />
    <glyph glyph-name="rcommaaccent" unicode="&#x157;" horiz-adv-x="1048" 
d="M170 1225h138q25 0 39.5 -8t19.5 -37l19 -105q48 78 123.5 121t166.5 43q98 0 182 -43.5t139 -90.5q22 -21 22 -39q0 -13 -11 -27l-90 -127q-11 -16 -26 -16q-13 0 -30 12q-50 34 -102 56t-114 22t-116.5 -30t-89 -92t-34.5 -153v-671q1 -40 -39 -40h-197q-38 0 -38 40
v1144q0 41 38 41zM178 -106h167q43 0 43 -44v-131q0 -109 -32 -172t-75 -94q-13 -10 -25 -10t-24 11l-39 33q-12 11 -12 22q0 13 14 27q23 22 37 50t14 46v13q0 4 -3.5 7.5t-11.5 3.5h-56q-18 0 -28 10.5t-10 31.5v150q0 46 41 46z" />
    <glyph glyph-name="Rcaron" unicode="&#x158;" horiz-adv-x="1334" 
d="M646 1566q-15 0 -27 13l-236 238q-14 14 -14 28q0 13 13 26l63 63q14 12 27 12q14 0 27 -13l147 -147l148 147q13 13 27 13t27 -12l63 -63q13 -13 13 -27t-13 -27l-237 -238q-13 -13 -28 -13zM165 1414.5q9 10.5 28 10.5h610q128 0 231.5 -65.5t162 -173t58.5 -229.5
q0 -119 -67 -226.5t-176 -170.5l262 -519q3 -7 3 -14q0 -11 -7.5 -19t-20.5 -8h-248q-16 0 -25.5 7t-19.5 27l-228 459h-292v-455q0 -38 -38 -38h-205q-37 0 -37 38v1349q0 17 9 27.5zM436 738h299q66 0 119 30t83.5 81.5t30.5 112.5t-30.5 112.5t-84 82t-118.5 30.5h-299
v-449z" />
    <glyph glyph-name="rcaron" unicode="&#x159;" horiz-adv-x="1048" 
d="M633 1746q13 0 27 -14l236 -235q15 -13 15 -28t-14 -27l-65 -64q-13 -13 -27 -13q-15 0 -28 13l-146 146l-146 -146q-13 -13 -27 -13q-12 0 -26 12l-64 63q-13 13 -13 26q0 14 14 28l237 238q14 14 27 14zM170 1225h138q25 0 39.5 -8t19.5 -37l19 -105q48 78 123.5 121
t166.5 43q98 0 182 -43.5t139 -90.5q22 -21 22 -39q0 -13 -11 -27l-90 -127q-11 -16 -26 -16q-13 0 -30 12q-50 34 -102 56t-114 22t-116.5 -30t-89 -92t-34.5 -153v-671q1 -40 -39 -40h-197q-38 0 -38 40v1144q0 41 38 41z" />
    <glyph glyph-name="Sacute" unicode="&#x15a;" horiz-adv-x="1267" 
d="M796 1580.5q-10 -6.5 -29 -6.5h-139q-12 0 -22 7.5t-10 21.5q0 9 4 18l88 217q8 21 19 29t31 8h156q13 0 21.5 -9t8.5 -23q0 -10 -4 -18l-104 -214q-10 -24 -20 -30.5zM107.5 241.5q-6.5 10.5 -6.5 20.5q0 15 15 29l129 126q12 11 25 11q17 0 41 -21q77 -74 156 -119.5
t177 -45.5q73 0 128 26t84.5 69t29.5 92q0 56 -42 93.5t-95 57t-132 40.5q-161 48 -265.5 107t-158 139t-53.5 188q0 117 65.5 207.5t183 140.5t270.5 50q120 0 238 -57.5t207 -148.5q17 -19 17 -36q0 -18 -18 -38l-106 -108q-13 -12 -26 -12q-11 0 -21.5 6t-25.5 18
q-68 57 -134 94.5t-140 37.5q-93 0 -157.5 -34.5t-64.5 -123.5q0 -50 33.5 -82t88 -52.5t158.5 -48.5q149 -44 250.5 -96.5t163 -138t61.5 -212.5q0 -128 -74 -228t-196.5 -155t-262.5 -55q-147 0 -287 64t-238 172q-11 13 -17.5 23.5z" />
    <glyph glyph-name="sacute" unicode="&#x15b;" horiz-adv-x="1054" 
d="M668 1369.5q-10 -6.5 -29 -6.5h-139q-12 0 -22 7.5t-10 21.5q0 9 4 18l88 217q8 21 19 29t31 8h156q13 0 21.5 -9t8.5 -23q0 -10 -4 -18l-104 -214q-10 -24 -20 -30.5zM68.5 225q-3.5 9 -3.5 18q0 18 17 34l123 93q9 8 21 8q19 0 35 -22q46 -65 100.5 -103t134.5 -38
q49 0 97.5 17.5t79.5 50t31 73.5q0 42 -18 65.5t-49 36t-96 31.5q-10 2 -67 19q-131 40 -211.5 91t-120 123.5t-39.5 175.5q0 83 52 163t148.5 130.5t222.5 50.5q136 0 233.5 -56t161.5 -137q15 -20 15 -32q0 -14 -19 -29l-114 -94q-15 -12 -26 -12q-14 0 -30 19
q-44 51 -93 76.5t-121 25.5q-76 0 -118.5 -32t-42.5 -83q0 -39 23 -62.5t62 -38.5t119 -37q15 -4 33 -9t39 -12q164 -49 244 -150t80 -228q0 -119 -65.5 -203.5t-170 -126.5t-218.5 -42q-144 0 -257 60t-181 165q-8 12 -11.5 21z" />
    <glyph glyph-name="Scircumflex" unicode="&#x15c;" horiz-adv-x="1267" 
d="M674 1943q13 0 27 -14l236 -235q15 -13 15 -28t-14 -27l-65 -64q-13 -13 -27 -13q-15 0 -28 13l-146 146l-146 -146q-13 -13 -27 -13q-13 0 -26 12l-64 63q-13 13 -13 26q0 14 14 28l237 238q14 14 27 14zM107.5 241.5q-6.5 10.5 -6.5 20.5q0 15 15 29l129 126
q12 11 25 11q17 0 41 -21q77 -74 156 -119.5t177 -45.5q73 0 128 26t84.5 69t29.5 92q0 56 -42 93.5t-95 57t-132 40.5q-161 48 -265.5 107t-158 139t-53.5 188q0 117 65.5 207.5t183 140.5t270.5 50q120 0 238 -57.5t207 -148.5q17 -19 17 -36q0 -18 -18 -38l-106 -108
q-13 -12 -26 -12q-11 0 -21.5 6t-25.5 18q-68 57 -134 94.5t-140 37.5q-93 0 -157.5 -34.5t-64.5 -123.5q0 -50 33.5 -82t88 -52.5t158.5 -48.5q149 -44 250.5 -96.5t163 -138t61.5 -212.5q0 -128 -74 -228t-196.5 -155t-262.5 -55q-147 0 -287 64t-238 172
q-11 13 -17.5 23.5z" />
    <glyph glyph-name="scircumflex" unicode="&#x15d;" horiz-adv-x="1054" 
d="M542 1746q13 0 27 -14l236 -235q15 -13 15 -28t-14 -27l-65 -64q-13 -13 -27 -13q-15 0 -28 13l-146 146l-146 -146q-13 -13 -27 -13q-12 0 -26 12l-64 63q-13 13 -13 26q0 14 14 28l237 238q14 14 27 14zM68.5 225q-3.5 9 -3.5 18q0 18 17 34l123 93q9 8 21 8
q19 0 35 -22q46 -65 100.5 -103t134.5 -38q49 0 97.5 17.5t79.5 50t31 73.5q0 42 -18 65.5t-49 36t-96 31.5q-10 2 -67 19q-131 40 -211.5 91t-120 123.5t-39.5 175.5q0 83 52 163t148.5 130.5t222.5 50.5q136 0 233.5 -56t161.5 -137q15 -20 15 -32q0 -14 -19 -29l-114 -94
q-15 -12 -26 -12q-14 0 -30 19q-44 51 -93 76.5t-121 25.5q-76 0 -118.5 -32t-42.5 -83q0 -39 23 -62.5t62 -38.5t119 -37q15 -4 33 -9t39 -12q164 -49 244 -150t80 -228q0 -119 -65.5 -203.5t-170 -126.5t-218.5 -42q-144 0 -257 60t-181 165q-8 12 -11.5 21z" />
    <glyph glyph-name="Scedilla" unicode="&#x15e;" horiz-adv-x="1267" 
d="M1124 214q-59 -92 -159.5 -150.5t-222.5 -75.5q5 -14 18 -24q3 -2 31 -22q44 -32 70 -54t43.5 -49.5t17.5 -58.5q0 -20 -7 -40q-15 -43 -52.5 -85.5t-94 -76t-124.5 -48.5q-8 -2 -12 -2q-16 0 -23 14l-46 101q-2 4 -2 7q0 7 4.5 13t9.5 8q73 18 112 44.5t39 61.5
q0 30 -21.5 49.5t-66.5 46.5q-44 24 -63 43q-11 11 -17 31t-7 43q-122 19 -233.5 79t-192.5 149q-11 13 -17.5 23.5t-6.5 20.5q0 15 15 29l129 126q12 11 25 11q17 0 41 -21q77 -74 156 -119.5t177 -45.5q73 0 128 26t84.5 69t29.5 92q0 56 -42 93.5t-95 57t-132 40.5
q-161 48 -265.5 107t-158 139t-53.5 188q0 117 65.5 207.5t183 140.5t270.5 50q120 0 238 -57.5t207 -148.5q17 -19 17 -36q0 -18 -18 -38l-106 -108q-13 -12 -26 -12q-11 0 -21.5 6t-25.5 18q-68 57 -134 94.5t-140 37.5q-93 0 -157.5 -34.5t-64.5 -123.5q0 -50 33.5 -82
t88 -52.5t158.5 -48.5q149 -44 250.5 -96.5t163 -138t61.5 -212.5q0 -114 -59 -206z" />
    <glyph glyph-name="scedilla" unicode="&#x15f;" horiz-adv-x="1054" 
d="M921.5 169.5q-50.5 -77.5 -133.5 -123.5t-182 -61q-1 -8 -4.5 -20.5t-3.5 -21.5q0 -22 19 -36q3 -2 31 -22q44 -32 70 -54t43.5 -49.5t17.5 -58.5q0 -20 -7 -40q-15 -43 -52.5 -85.5t-94 -76t-124.5 -48.5q-8 -2 -12 -2q-16 0 -23 14l-46 101q-2 4 -2 7q0 7 4.5 13t9.5 8
q73 18 112 44.5t39 61.5q0 30 -21.5 49.5t-66.5 46.5q-44 24 -63 43q-12 12 -18 33.5t-6 46.5q0 23 7 49q-109 18 -194.5 74t-140.5 142q-8 12 -11.5 21t-3.5 18q0 18 17 34l123 93q9 8 21 8q19 0 35 -22q46 -65 100.5 -103t134.5 -38q49 0 97.5 17.5t79.5 50t31 73.5
q0 42 -18 65.5t-49 36t-96 31.5q-10 2 -67 19q-131 40 -211.5 91t-120 123.5t-39.5 175.5q0 83 52 163t148.5 130.5t222.5 50.5q136 0 233.5 -56t161.5 -137q15 -20 15 -32q0 -14 -19 -29l-114 -94q-15 -12 -26 -12q-14 0 -30 19q-44 51 -93 76.5t-121 25.5
q-76 0 -118.5 -32t-42.5 -83q0 -39 23 -62.5t62 -38.5t119 -37q15 -4 33 -9t39 -12q164 -49 244 -150t80 -228q0 -104 -50.5 -181.5z" />
    <glyph glyph-name="Scaron" unicode="&#x160;" horiz-adv-x="1267" 
d="M685 1559q-15 0 -27 13l-236 238q-14 14 -14 28q0 13 13 26l63 63q13 12 27 12t27 -13l147 -147l148 147q13 13 27 13q13 0 27 -12l63 -63q13 -13 13 -27t-13 -27l-237 -238q-13 -13 -28 -13zM107.5 241.5q-6.5 10.5 -6.5 20.5q0 15 15 29l129 126q12 11 25 11
q17 0 41 -21q77 -74 156 -119.5t177 -45.5q73 0 128 26t84.5 69t29.5 92q0 56 -42 93.5t-95 57t-132 40.5q-161 48 -265.5 107t-158 139t-53.5 188q0 117 65.5 207.5t183 140.5t270.5 50q120 0 238 -57.5t207 -148.5q17 -19 17 -36q0 -18 -18 -38l-106 -108q-13 -12 -26 -12
q-11 0 -21.5 6t-25.5 18q-68 57 -134 94.5t-140 37.5q-93 0 -157.5 -34.5t-64.5 -123.5q0 -50 33.5 -82t88 -52.5t158.5 -48.5q149 -44 250.5 -96.5t163 -138t61.5 -212.5q0 -128 -74 -228t-196.5 -155t-262.5 -55q-147 0 -287 64t-238 172q-11 13 -17.5 23.5z" />
    <glyph glyph-name="scaron" unicode="&#x161;" horiz-adv-x="1054" 
d="M565 1350q-15 0 -27 13l-236 238q-14 14 -14 28q0 13 13 26l63 63q14 12 27 12q14 0 27 -13l147 -147l148 147q13 13 27 13t27 -12l63 -63q13 -13 13 -27t-13 -27l-237 -238q-13 -13 -28 -13zM68.5 225q-3.5 9 -3.5 18q0 18 17 34l123 93q9 8 21 8q19 0 35 -22
q46 -65 100.5 -103t134.5 -38q49 0 97.5 17.5t79.5 50t31 73.5q0 42 -18 65.5t-49 36t-96 31.5q-10 2 -67 19q-131 40 -211.5 91t-120 123.5t-39.5 175.5q0 83 52 163t148.5 130.5t222.5 50.5q136 0 233.5 -56t161.5 -137q15 -20 15 -32q0 -14 -19 -29l-114 -94
q-15 -12 -26 -12q-14 0 -30 19q-44 51 -93 76.5t-121 25.5q-76 0 -118.5 -32t-42.5 -83q0 -39 23 -62.5t62 -38.5t119 -37q15 -4 33 -9t39 -12q164 -49 244 -150t80 -228q0 -119 -65.5 -203.5t-170 -126.5t-218.5 -42q-144 0 -257 60t-181 165q-8 12 -11.5 21z" />
    <glyph glyph-name="uni0162" unicode="&#x162;" horiz-adv-x="1235" 
d="M101 1426h1027q37 0 37 -38v-181q0 -39 -37 -39h-378v-1130q0 -38 -38 -38h-206q-38 0 -38 38v1130h-367q-38 0 -38 39v181q0 38 38 38zM526 -127h167q43 0 43 -44v-131q0 -109 -32 -172t-75 -94q-13 -10 -25 -10t-24 11l-39 33q-12 11 -12 22q0 13 14 27q23 22 37 50
t14 46v13q0 4 -3.5 7.5t-11.5 3.5h-56q-18 0 -28 10.5t-10 31.5v150q0 46 41 46z" />
    <glyph glyph-name="uni0163" unicode="&#x163;" horiz-adv-x="724" 
d="M610 1218q41 0 41 -42v-159q0 -20 -13 -31t-32 -11h-138v-598q0 -65 23 -103.5t81 -41.5l31 -2q33 -2 41 -17.5t8 -35.5v-136q0 -48 -74 -48q-112 0 -199.5 43t-136.5 123.5t-49 188.5v627h-111q-16 0 -29 11t-13 31v156q0 22 12.5 33.5t29.5 11.5h111v201q0 21 8 30.5
t31 15.5l196 57q8 2 11 2q14 0 21.5 -12t7.5 -31v-263h142zM270 -134h167q43 0 43 -44v-131q0 -109 -32 -172t-75 -94q-13 -10 -25 -10t-24 11l-39 33q-12 11 -12 22q0 13 14 27q23 22 37 50t14 46v13q0 4 -3.5 7.5t-11.5 3.5h-56q-18 0 -28 10.5t-10 31.5v150q0 46 41 46z
" />
    <glyph glyph-name="Tcaron" unicode="&#x164;" horiz-adv-x="1235" 
d="M621 1570q-15 0 -27 13l-236 238q-14 14 -14 28q0 13 13 26l63 63q13 12 27 12t27 -13l147 -147l148 147q13 13 27 13t27 -12l63 -63q13 -13 13 -27t-13 -27l-237 -238q-13 -13 -28 -13zM101 1426h1027q37 0 37 -38v-181q0 -39 -37 -39h-378v-1130q0 -38 -38 -38h-206
q-38 0 -38 38v1130h-367q-38 0 -38 39v181q0 38 38 38z" />
    <glyph glyph-name="tcaron" unicode="&#x165;" horiz-adv-x="724" 
d="M610 1218q41 0 41 -42v-159q0 -20 -13 -31t-32 -11h-138v-598q0 -65 23 -103.5t81 -41.5l31 -2q33 -2 41 -17.5t8 -35.5v-136q0 -48 -74 -48q-112 0 -199.5 43t-136.5 123.5t-49 188.5v627h-111q-16 0 -29 11t-13 31v156q0 22 12.5 33.5t29.5 11.5h111v201q0 21 8 30.5
t31 15.5l196 57q8 2 11 2q14 0 21.5 -12t7.5 -31v-263h142zM695 1498h167q43 0 43 -44v-131q0 -109 -32 -172t-75 -94q-13 -10 -25 -10t-24 11l-39 33q-12 11 -12 22q0 13 14 27q23 22 37 50t14 46v13q0 4 -3.5 7.5t-11.5 3.5h-56q-18 0 -28 10.5t-10 31.5v150q0 46 41 46z
" />
    <glyph glyph-name="Tbar" unicode="&#x166;" horiz-adv-x="1235" 
d="M1165 1388v-181q0 -39 -37 -39h-378v-251h107q21 0 29.5 -9.5t8.5 -28.5v-146q0 -16 -12 -27.5t-32 -11.5h-101v-656q0 -38 -38 -38h-206q-38 0 -38 38v656h-97q-18 0 -31.5 11t-13.5 33v132q0 22 13.5 34.5t31.5 12.5h97v251h-367q-38 0 -38 39v181q0 38 38 38h1027
q37 0 37 -38z" />
    <glyph glyph-name="tbar" unicode="&#x167;" horiz-adv-x="724" 
d="M644 212.5q8 -15.5 8 -35.5v-136q0 -48 -74 -48q-112 0 -199.5 43t-136.5 123.5t-49 188.5v194h-93q-13 0 -24 9t-11 25v151q0 17 10.5 27t24.5 10h93v211h-111q-16 0 -29 11t-13 31v156q0 22 12.5 33.5t29.5 11.5h111v201q0 21 8 30.5t31 15.5l196 57q8 2 11 2
q14 0 21.5 -12t7.5 -31v-263h142q41 0 41 -42v-159q0 -20 -13 -31t-32 -11h-138v-211h106q34 0 34 -36v-152q0 -15 -10.5 -24.5t-26.5 -9.5h-103v-165q0 -65 23 -103.5t81 -41.5l31 -2q33 -2 41 -17.5z" />
    <glyph glyph-name="Utilde" unicode="&#x168;" horiz-adv-x="1465" 
d="M504 1589q-17 0 -40 23l-44 43q-11 10 -15.5 16t-4.5 12t4.5 13t9 13.5t7.5 10.5q39 54 88.5 83t106.5 29q33 -1 65 -15.5t72 -38.5q31 -19 52 -29t39 -10q25 0 45.5 13.5t41.5 39.5q18 22 35 22q14 0 28 -14l62 -63q11 -11 11 -22q0 -9 -7 -20q-40 -61 -93.5 -93
t-116.5 -32q-33 0 -63.5 13.5t-70.5 38.5q-30 20 -52 30.5t-42 10.5q-28 0 -46 -13t-31.5 -29t-18.5 -21q-10 -11 -22 -11zM467 384q43 -76 115 -115.5t160 -39.5t161 42t115.5 119t42.5 176v820q0 18 11 29t29 11h200q19 0 30 -11.5t11 -28.5v-819q0 -197 -80.5 -329.5
t-216 -196t-303.5 -63.5q-167 0 -303 65t-216.5 198t-80.5 329v817q0 16 10 27.5t25 11.5h210q20 0 28.5 -10t8.5 -29v-821q0 -106 43 -182z" />
    <glyph glyph-name="utilde" unicode="&#x169;" horiz-adv-x="1344" 
d="M466 1358q-17 0 -40 23l-44 43q-11 10 -15.5 16t-4.5 12t4.5 13t9 13.5t7.5 10.5q39 54 88.5 83t106.5 29q33 -1 65 -15.5t72 -38.5q31 -19 52 -29t39 -10q25 0 45.5 13.5t41.5 39.5q18 22 35 22q14 0 28 -14l62 -63q11 -11 11 -22q0 -9 -7 -20q-40 -61 -93.5 -93
t-116.5 -32q-33 0 -63.5 13.5t-70.5 38.5q-30 20 -52 30.5t-42 10.5q-28 0 -46 -13t-31.5 -29t-18.5 -21q-10 -11 -22 -11zM980 1226h199q40 0 40 -41v-1144q0 -41 -40 -41h-128q-20 0 -36 14t-20 34l-27 119q-123 -178 -358 -178q-115 0 -223.5 52t-180.5 168.5t-72 298.5
v677q0 41 39 41h194q40 0 40 -41v-671q2 -78 37 -139t97 -95t143 -34q49 0 108.5 29.5t103 96.5t43.5 172v641q0 41 41 41z" />
    <glyph glyph-name="Umacron" unicode="&#x16a;" horiz-adv-x="1465" 
d="M370.5 1729.5q8.5 8.5 22.5 8.5h715q29 0 29 -29v-114q0 -14 -8.5 -21.5t-21.5 -7.5h-715q-11 0 -20.5 7.5t-9.5 21.5v112q0 14 8.5 22.5zM467 384q43 -76 115 -115.5t160 -39.5t161 42t115.5 119t42.5 176v820q0 18 11 29t29 11h200q19 0 30 -11.5t11 -28.5v-819
q0 -197 -80.5 -329.5t-216 -196t-303.5 -63.5q-167 0 -303 65t-216.5 198t-80.5 329v817q0 16 10 27.5t25 11.5h210q20 0 28.5 -10t8.5 -29v-821q0 -106 43 -182z" />
    <glyph glyph-name="umacron" unicode="&#x16b;" horiz-adv-x="1344" 
d="M301.5 1541.5q8.5 8.5 22.5 8.5h715q29 0 29 -29v-114q0 -14 -8.5 -21.5t-21.5 -7.5h-715q-11 0 -20.5 7.5t-9.5 21.5v112q0 14 8.5 22.5zM980 1226h199q40 0 40 -41v-1144q0 -41 -40 -41h-128q-20 0 -36 14t-20 34l-27 119q-123 -178 -358 -178q-115 0 -223.5 52
t-180.5 168.5t-72 298.5v677q0 41 39 41h194q40 0 40 -41v-671q2 -78 37 -139t97 -95t143 -34q49 0 108.5 29.5t103 96.5t43.5 172v641q0 41 41 41z" />
    <glyph glyph-name="Ubreve" unicode="&#x16c;" horiz-adv-x="1465" 
d="M634 1599q-55 31 -86.5 81.5t-31.5 106.5q0 36 27 36h103q11 0 18 -7.5t7 -18.5q0 -29 23.5 -51t64.5 -22q36 0 60.5 23.5t24.5 49.5q0 11 7.5 18.5t18.5 7.5h101q29 0 29 -36q0 -57 -32.5 -107.5t-89 -81t-123.5 -30.5q-66 0 -121 31zM467 384q43 -76 115 -115.5
t160 -39.5t161 42t115.5 119t42.5 176v820q0 18 11 29t29 11h200q19 0 30 -11.5t11 -28.5v-819q0 -197 -80.5 -329.5t-216 -196t-303.5 -63.5q-167 0 -303 65t-216.5 198t-80.5 329v817q0 16 10 27.5t25 11.5h210q20 0 28.5 -10t8.5 -29v-821q0 -106 43 -182z" />
    <glyph glyph-name="ubreve" unicode="&#x16d;" horiz-adv-x="1344" 
d="M572 1380q-55 31 -86.5 81.5t-31.5 106.5q0 36 27 36h103q11 0 18 -7.5t7 -18.5q0 -29 23.5 -51t64.5 -22q36 0 60.5 23.5t24.5 49.5q0 11 7.5 18.5t18.5 7.5h101q29 0 29 -36q0 -57 -32.5 -107.5t-89 -81t-123.5 -30.5q-66 0 -121 31zM980 1226h199q40 0 40 -41v-1144
q0 -41 -40 -41h-128q-20 0 -36 14t-20 34l-27 119q-123 -178 -358 -178q-115 0 -223.5 52t-180.5 168.5t-72 298.5v677q0 41 39 41h194q40 0 40 -41v-671q2 -78 37 -139t97 -95t143 -34q49 0 108.5 29.5t103 96.5t43.5 172v641q0 41 41 41z" />
    <glyph glyph-name="Uring" unicode="&#x16e;" horiz-adv-x="1465" 
d="M848 1929q46 -27 73.5 -73t27.5 -101t-27 -101t-73.5 -72.5t-101.5 -26.5t-101 26.5t-73 72.5t-27 101t27 101t73 73t101 27t101 -27zM694 1810q-21 -22 -21 -54q0 -33 21 -54t53 -21q34 0 56 21t22 54q0 32 -22 54t-56 22q-32 0 -53 -22zM467 384q43 -76 115 -115.5
t160 -39.5t161 42t115.5 119t42.5 176v820q0 18 11 29t29 11h200q19 0 30 -11.5t11 -28.5v-819q0 -197 -80.5 -329.5t-216 -196t-303.5 -63.5q-167 0 -303 65t-216.5 198t-80.5 329v817q0 16 10 27.5t25 11.5h210q20 0 28.5 -10t8.5 -29v-821q0 -106 43 -182z" />
    <glyph glyph-name="uring" unicode="&#x16f;" horiz-adv-x="1344" 
d="M774 1731q46 -27 73.5 -73t27.5 -101t-27 -101t-73.5 -72.5t-101.5 -26.5t-101 26.5t-73 72.5t-27 101t27 101t73 73t101 27t101 -27zM620 1612q-21 -22 -21 -54q0 -33 21 -54t53 -21q34 0 56 21t22 54q0 32 -22 54t-56 22q-32 0 -53 -22zM980 1226h199q40 0 40 -41
v-1144q0 -41 -40 -41h-128q-20 0 -36 14t-20 34l-27 119q-123 -178 -358 -178q-115 0 -223.5 52t-180.5 168.5t-72 298.5v677q0 41 39 41h194q40 0 40 -41v-671q2 -78 37 -139t97 -95t143 -34q49 0 108.5 29.5t103 96.5t43.5 172v641q0 41 41 41z" />
    <glyph glyph-name="Uhungarumlaut" unicode="&#x170;" horiz-adv-x="1465" 
d="M641.5 1572q-9.5 -6 -29.5 -6h-138q-13 0 -23.5 7t-10.5 21q0 7 5 19l108 214q10 21 20.5 28.5t28.5 7.5h135q13 0 21.5 -9t8.5 -23q0 -10 -4 -18l-101 -210q-11 -25 -20.5 -31zM1060 1572.5q-10 -6.5 -29 -6.5h-139q-13 0 -23 6.5t-10 20.5q0 10 5 20l105 214
q10 21 20 28.5t29 7.5h137q13 0 21.5 -9t8.5 -23q0 -10 -4 -18l-101 -210q-10 -24 -20 -30.5zM467 384q43 -76 115 -115.5t160 -39.5t161 42t115.5 119t42.5 176v820q0 18 11 29t29 11h200q19 0 30 -11.5t11 -28.5v-819q0 -197 -80.5 -329.5t-216 -196t-303.5 -63.5
q-167 0 -303 65t-216.5 198t-80.5 329v817q0 16 10 27.5t25 11.5h210q20 0 28.5 -10t8.5 -29v-821q0 -106 43 -182z" />
    <glyph glyph-name="uhungarumlaut" unicode="&#x171;" horiz-adv-x="1344" 
d="M567.5 1382q-9.5 -6 -29.5 -6h-138q-13 0 -23.5 7t-10.5 21q0 7 5 19l108 214q10 21 20.5 28.5t28.5 7.5h135q13 0 21.5 -9t8.5 -23q0 -10 -4 -18l-101 -210q-11 -25 -20.5 -31zM986 1382.5q-10 -6.5 -29 -6.5h-139q-13 0 -23 6.5t-10 20.5q0 10 5 20l105 214
q10 21 20 28.5t29 7.5h137q13 0 21.5 -9t8.5 -23q0 -10 -4 -18l-101 -210q-10 -24 -20 -30.5zM980 1226h199q40 0 40 -41v-1144q0 -41 -40 -41h-128q-20 0 -36 14t-20 34l-27 119q-123 -178 -358 -178q-115 0 -223.5 52t-180.5 168.5t-72 298.5v677q0 41 39 41h194
q40 0 40 -41v-671q2 -78 37 -139t97 -95t143 -34q49 0 108.5 29.5t103 96.5t43.5 172v641q0 41 41 41z" />
    <glyph glyph-name="Uogonek" unicode="&#x172;" horiz-adv-x="1465" 
d="M1331 1414.5q11 -11.5 11 -28.5v-819q0 -186 -72.5 -315t-199.5 -198l-160 -160q-19 -19 -30 -37t-11 -39q0 -31 22 -53t57 -22q33 0 56 20t23 54q0 20 9 30t23 10h83q12 0 22 -9t10 -24q0 -61 -29 -113.5t-80 -84t-115 -31.5q-61 0 -113 30t-82.5 82t-30.5 113
q0 84 67 159q-16 -1 -49 -1q-167 0 -303 65t-216.5 198t-80.5 329v817q0 16 10 27.5t25 11.5h210q20 0 28.5 -10t8.5 -29v-821q0 -106 43 -182t115 -115.5t160 -39.5t161 42t115.5 119t42.5 176v820q0 18 11 29t29 11h200q19 0 30 -11.5z" />
    <glyph glyph-name="uogonek" unicode="&#x173;" horiz-adv-x="1344" 
d="M1287 -211q10 -9 10 -24q0 -61 -29 -113.5t-80 -84t-115 -31.5q-61 0 -113 30t-82.5 82t-30.5 113q0 49 21 91t59 82l84 83q-13 15 -16 31l-27 119q-123 -178 -358 -178q-115 0 -223.5 52t-180.5 168.5t-72 298.5v677q0 41 39 41h194q40 0 40 -41v-671q2 -78 37 -139
t97 -95t143 -34q49 0 108.5 29.5t103 96.5t43.5 172v641q0 41 41 41h199q40 0 40 -41v-1144q0 -7 -1 -11q0 -3 -2 -9q-4 -9 -12 -15l-171 -171q-19 -19 -30 -37t-11 -39q0 -31 22 -53t57 -22q33 0 56 20t23 54q0 20 9 30t23 10h83q12 0 22 -9z" />
    <glyph glyph-name="Wcircumflex" unicode="&#x174;" horiz-adv-x="2056" 
d="M1137 1944q13 0 27 -14l236 -235q15 -13 15 -28t-14 -27l-65 -64q-13 -13 -27 -13q-15 0 -28 13l-146 146l-146 -146q-13 -13 -27 -13q-12 0 -26 12l-64 63q-13 13 -13 26q0 14 14 28l237 238q14 14 27 14zM836 36q-14 -36 -49 -36h-162q-34 0 -48 36l-531 1347
q-4 8 -4 16q0 12 8.5 19t22.5 7h222q34 0 47 -36l362 -1011l362 1011q12 36 47 36h228q14 0 22 -7.5t8 -19.5q0 -7 -3 -15l-204 -510l185 -493l377 1009q8 20 19 28t29 8h225q14 0 22.5 -7t8.5 -19q0 -8 -4 -16l-548 -1347q-16 -36 -49 -36h-152q-34 0 -50 36l-203 484z" />
    <glyph glyph-name="wcircumflex" unicode="&#x175;" horiz-adv-x="1851" 
d="M986 1748q13 0 27 -14l236 -235q15 -13 15 -28t-14 -27l-65 -64q-13 -13 -27 -13q-15 0 -28 13l-146 146l-146 -146q-13 -13 -27 -13q-12 0 -26 12l-64 63q-13 13 -13 26q0 14 14 28l237 238q14 14 27 14zM1309 0h-114q-34 0 -49 35l-222 547l-219 -547q-15 -35 -49 -35
h-120q-34 0 -49 35l-459 1127q-6 15 -6 27q0 18 11.5 27.5t30.5 9.5h196q34 0 48 -38l282 -798l288 801q12 35 48 35h208q32 0 32 -25q0 -11 -8 -32l-112 -285l206 -486l299 793q14 35 48 35h198q32 0 32 -25q0 -11 -8 -32l-463 -1134q-15 -35 -49 -35z" />
    <glyph glyph-name="Ycircumflex" unicode="&#x176;" horiz-adv-x="1277" 
d="M640 1935q13 0 27 -14l236 -235q15 -14 15 -28q0 -15 -14 -27l-65 -64q-13 -13 -27 -13q-15 0 -28 13l-146 146l-146 -146q-13 -13 -27 -13q-13 0 -26 12l-64 63q-13 13 -13 26q0 14 14 28l237 238q14 14 27 14zM36 1383q-6 11 -6 20q0 11 8.5 17t21.5 6h236
q17 0 27.5 -8t20.5 -27l290 -560l289 559q10 19 20.5 27t26.5 8h239q14 0 22 -6.5t8 -17.5q0 -7 -5 -19l-460 -781v-561q0 -40 -37 -40h-206q-38 0 -38 40v560z" />
    <glyph glyph-name="ycircumflex" unicode="&#x177;" horiz-adv-x="1252" 
d="M625 1734q13 0 27 -14l236 -235q15 -14 15 -28q0 -15 -14 -27l-65 -64q-13 -13 -27 -13q-15 0 -28 13l-146 146l-146 -146q-13 -13 -27 -13q-12 0 -26 12l-64 63q-13 13 -13 26q0 14 14 28l237 238q14 14 27 14zM520 -372h-185q-42 0 -42 34q0 13 6 30l162 414l-427 1055
q-6 15 -6 26q0 19 13 28.5t31 9.5h181q34 0 48 -38l288 -781l293 783q14 36 48 36h205q40 0 40 -33q0 -12 -5 -25l-601 -1504q-15 -35 -49 -35z" />
    <glyph glyph-name="Ydieresis" unicode="&#x178;" horiz-adv-x="1277" 
d="M394 1791h133q25 0 35.5 -12t10.5 -37v-132q0 -26 -11.5 -36t-34.5 -10h-133q-25 0 -36.5 10t-11.5 35v133q0 49 48 49zM781 1791h133q25 0 35.5 -12t10.5 -37v-132q0 -26 -11.5 -36t-34.5 -10h-133q-25 0 -36.5 10t-11.5 35v133q0 49 48 49zM36 1383q-6 11 -6 20
q0 11 8.5 17t21.5 6h236q17 0 27.5 -8t20.5 -27l290 -560l289 559q10 19 20.5 27t26.5 8h239q14 0 22 -6.5t8 -17.5q0 -7 -5 -19l-460 -781v-561q0 -40 -37 -40h-206q-38 0 -38 40v560z" />
    <glyph glyph-name="Zacute" unicode="&#x179;" horiz-adv-x="1342" 
d="M781 1582.5q-10 -6.5 -29 -6.5h-139q-12 0 -22 7.5t-10 21.5q0 9 4 18l88 217q8 21 19 29t31 8h156q13 0 21.5 -9t8.5 -23q0 -10 -4 -18l-104 -214q-10 -24 -20 -30.5zM1206 1391v-160q0 -19 -12 -36l-745 -934h719q35 0 35 -34v-194q0 -33 -35 -33h-1072q-35 0 -35 33
v165q0 19 13 34l737 930h-705q-37 0 -37 35v194q0 35 37 35h1065q35 0 35 -35z" />
    <glyph glyph-name="zacute" unicode="&#x17a;" horiz-adv-x="1177" 
d="M703 1354.5q-10 -6.5 -29 -6.5h-139q-12 0 -22 7.5t-10 21.5q0 9 4 18l88 217q8 21 19 29t31 8h156q13 0 21.5 -9t8.5 -23q0 -10 -4 -18l-104 -214q-10 -24 -20 -30.5zM1061 242q16 0 25 -9.5t9 -22.5v-177q0 -15 -9.5 -24t-24.5 -9h-947q-33 0 -33 36v127q0 12 5 25
t12 22l671 775h-633q-16 0 -25 9.5t-9 22.5v175q0 15 10 24.5t24 9.5h926q16 0 23.5 -9t7.5 -30l-1 -154q0 -28 -13 -42l-650 -749h632z" />
    <glyph glyph-name="Zdotaccent" unicode="&#x17b;" horiz-adv-x="1342" 
d="M593 1811h138q25 0 36 -13.5t11 -38.5v-137q0 -26 -12 -36t-35 -10h-138q-25 0 -37.5 10t-12.5 36v138q0 51 50 51zM1206 1391v-160q0 -19 -12 -36l-745 -934h719q35 0 35 -34v-194q0 -33 -35 -33h-1072q-35 0 -35 33v165q0 19 13 34l737 930h-705q-37 0 -37 35v194
q0 35 37 35h1065q35 0 35 -35z" />
    <glyph glyph-name="zdotaccent" unicode="&#x17c;" horiz-adv-x="1177" 
d="M548 1598h138q25 0 36 -13.5t11 -38.5v-137q0 -26 -12 -36t-35 -10h-138q-25 0 -37.5 10t-12.5 36v138q0 51 50 51zM1061 242q16 0 25 -9.5t9 -22.5v-177q0 -15 -9.5 -24t-24.5 -9h-947q-33 0 -33 36v127q0 12 5 25t12 22l671 775h-633q-16 0 -25 9.5t-9 22.5v175
q0 15 10 24.5t24 9.5h926q16 0 23.5 -9t7.5 -30l-1 -154q0 -28 -13 -42l-650 -749h632z" />
    <glyph glyph-name="Zcaron" unicode="&#x17d;" horiz-adv-x="1342" 
d="M674 1569q-15 0 -27 13l-236 238q-14 14 -14 28q0 13 13 26l63 63q13 12 27 12t27 -13l147 -147l148 147q13 13 27 13q13 0 27 -12l63 -63q13 -13 13 -27t-13 -27l-237 -238q-13 -13 -28 -13zM1206 1391v-160q0 -19 -12 -36l-745 -934h719q35 0 35 -34v-194
q0 -33 -35 -33h-1072q-35 0 -35 33v165q0 19 13 34l737 930h-705q-37 0 -37 35v194q0 35 37 35h1065q35 0 35 -35z" />
    <glyph glyph-name="zcaron" unicode="&#x17e;" horiz-adv-x="1177" 
d="M604 1352q-15 0 -27 13l-236 238q-14 14 -14 28q0 13 13 26l63 63q13 12 27 12t27 -13l147 -147l148 147q13 13 27 13q13 0 27 -12l63 -63q13 -13 13 -27t-13 -27l-237 -238q-13 -13 -28 -13zM1061 242q16 0 25 -9.5t9 -22.5v-177q0 -15 -9.5 -24t-24.5 -9h-947
q-33 0 -33 36v127q0 12 5 25t12 22l671 775h-633q-16 0 -25 9.5t-9 22.5v175q0 15 10 24.5t24 9.5h926q16 0 23.5 -9t7.5 -30l-1 -154q0 -28 -13 -42l-650 -749h632z" />
    <glyph glyph-name="florin" unicode="&#x192;" horiz-adv-x="789" 
d="M537 -53q0 -99 -53 -187.5t-148.5 -142.5t-217.5 -54q-45 0 -58.5 11t-13.5 26v133q0 18 8 30.5t40 12.5q86 0 127.5 52.5t41.5 140.5v867h-141q-16 0 -25.5 9t-9.5 26v181q0 17 10 26t25 9h141v128q0 120 60 215.5t164 149.5t230 54q32 0 42.5 -10.5t10.5 -36.5v-165
q-1 -24 -13 -34.5t-39 -10.5q-65 0 -104 -17t-58 -60t-19 -120v-93h203q35 0 35 -35v-181q0 -35 -35 -35h-203v-889z" />
    <glyph glyph-name="AEacute" unicode="&#x1fc;" horiz-adv-x="2181" 
d="M1411 1587.5q-10 -6.5 -29 -6.5h-139q-12 0 -22 7.5t-10 21.5q0 9 4 18l88 217q8 21 19 29t31 8h156q13 0 21.5 -9t8.5 -23q0 -10 -4 -18l-104 -214q-10 -24 -20 -30.5zM286 0h-212q-14 0 -24.5 12t-10.5 26q0 10 6 17l1046 1330q36 41 72 41h904q25 0 39 -15t14 -41
v-156q0 -20 -15 -36t-40 -16h-679v-310h544q22 0 36.5 -13t14.5 -38v-141q0 -19 -14 -34t-37 -15h-547v-347h706q53 0 53 -53v-158q0 -24 -15 -38.5t-39 -14.5h-939q-51 0 -51 47q0 68 2 220h-568l-177 -227q-31 -40 -69 -40zM1109 518v486l-382 -486h382z" />
    <glyph glyph-name="aeacute" unicode="&#x1fd;" horiz-adv-x="2424" 
d="M1394 1397.5q-10 -6.5 -29 -6.5h-139q-12 0 -22 7.5t-10 21.5q0 9 4 18l88 217q8 21 19 29t31 8h156q13 0 21.5 -9t8.5 -23q0 -10 -4 -18l-104 -214q-10 -24 -20 -30.5zM1721 1237q143 0 282.5 -69.5t231 -212t91.5 -349.5q0 -47 -11 -68t-29.5 -25.5t-57.5 -4.5h-860
q20 -86 72 -151t127.5 -101t162.5 -36q78 0 131.5 13t86 31.5t73.5 48.5l24 18q13 9 26 9q15 0 23 -12l89 -122q12 -15 12 -29q0 -15 -15 -29q-104 -91 -214.5 -130.5t-237.5 -39.5q-98 0 -190 30.5t-171 87.5v-56q0 -40 -38 -40h-171q-26 0 -42.5 17t-16.5 43v80
q-80 -77 -177.5 -119.5t-203.5 -42.5q-162 0 -305 81.5t-229 225t-86 322.5q0 171 83.5 316t225.5 230t311 85q122 0 218 -44.5t176 -131.5l18 117q3 21 11.5 30.5t27.5 9.5h160q38 0 38 -40v-50q157 108 354 108zM1603 968q-69 -35 -119.5 -95t-76.5 -134h685
q-43 119 -133.5 191.5t-207.5 72.5q-79 0 -148 -35zM1046 798.5q-49 87.5 -132.5 139.5t-183.5 52q-97 0 -179.5 -50t-131 -137.5t-48.5 -194.5q0 -105 47.5 -192.5t129.5 -138t182 -50.5q102 0 185.5 51.5t131.5 139t48 190.5t-49 190.5z" />
    <glyph glyph-name="Oslashacute" unicode="&#x1fe;" horiz-adv-x="1661" 
d="M987 1578.5q-10 -6.5 -29 -6.5h-139q-12 0 -22 7.5t-10 21.5q0 9 4 18l88 217q8 21 19 29t31 8h156q13 0 21.5 -9t8.5 -23q0 -10 -4 -18l-104 -214q-10 -24 -20 -30.5zM198 1081q99 168 267.5 266.5t367.5 98.5q77 0 162 -18l50 115q16 40 55 40h227q15 0 23.5 -6.5
t8.5 -18.5q0 -7 -5 -20l-99 -226q143 -102 226 -259t83 -340q0 -199 -98 -367t-265.5 -266.5t-367.5 -98.5q-80 0 -151 16l-57 -127q-17 -38 -56 -38h-228q-31 0 -31 22q0 11 5 22l105 232q-148 99 -234.5 259.5t-86.5 345.5q0 200 99 368zM439.5 479q59.5 -106 163 -167.5
t230.5 -61.5t230 61.5t162 167.5t59 234t-59 234.5t-162 168t-230 61.5t-230.5 -61.5t-163 -168t-59.5 -234.5t59.5 -234z" />
    <glyph glyph-name="oslashacute" unicode="&#x1ff;" horiz-adv-x="1434" 
d="M872 1373.5q-10 -6.5 -29 -6.5h-139q-12 0 -22 7.5t-10 21.5q0 9 4 18l88 217q8 21 19 29t31 8h156q13 0 21.5 -9t8.5 -23q0 -10 -4 -18l-104 -214q-10 -24 -20 -30.5zM172.5 924.5q84.5 144.5 229 229t315.5 84.5q83 0 173 -24l36 83q14 30 41 30h161q11 0 18 -5t7 -15
q0 -8 -4 -16l-71 -165q127 -86 201 -222.5t74 -294.5q0 -171 -86 -316t-232 -230t-317 -85q-63 0 -130 14l-39 -91q-13 -28 -41 -28h-161q-25 0 -25 18q0 8 4 16l69 160q-92 55 -161.5 138.5t-107.5 187t-38 216.5q0 171 84.5 315.5zM407.5 419.5q45.5 -86.5 126.5 -137
t184 -50.5q104 0 186.5 51t128.5 137.5t46 188.5t-46.5 187.5t-128.5 136t-186 50.5q-102 0 -183.5 -50t-127 -135.5t-45.5 -188.5t45.5 -189.5z" />
    <glyph glyph-name="Scommaaccent" unicode="&#x218;" horiz-adv-x="1267" 
d="M107.5 241.5q-6.5 10.5 -6.5 20.5q0 15 15 29l129 126q12 11 25 11q17 0 41 -21q77 -74 156 -119.5t177 -45.5q73 0 128 26t84.5 69t29.5 92q0 56 -42 93.5t-95 57t-132 40.5q-161 48 -265.5 107t-158 139t-53.5 188q0 117 65.5 207.5t183 140.5t270.5 50
q120 0 238 -57.5t207 -148.5q17 -19 17 -36q0 -18 -18 -38l-106 -108q-13 -12 -26 -12q-11 0 -21.5 6t-25.5 18q-68 57 -134 94.5t-140 37.5q-93 0 -157.5 -34.5t-64.5 -123.5q0 -50 33.5 -82t88 -52.5t158.5 -48.5q149 -44 250.5 -96.5t163 -138t61.5 -212.5
q0 -128 -74 -228t-196.5 -155t-262.5 -55q-147 0 -287 64t-238 172q-11 13 -17.5 23.5zM554 -140h167q43 0 43 -44v-131q0 -109 -32 -172t-75 -94q-13 -10 -25 -10t-24 11l-39 33q-12 11 -12 22q0 13 14 27q23 22 37 50t14 46v13q0 4 -3.5 7.5t-11.5 3.5h-56q-18 0 -28 10.5
t-10 31.5v150q0 46 41 46z" />
    <glyph glyph-name="scommaaccent" unicode="&#x219;" horiz-adv-x="1054" 
d="M68.5 225q-3.5 9 -3.5 18q0 18 17 34l123 93q9 8 21 8q19 0 35 -22q46 -65 100.5 -103t134.5 -38q49 0 97.5 17.5t79.5 50t31 73.5q0 42 -18 65.5t-49 36t-96 31.5q-10 2 -67 19q-131 40 -211.5 91t-120 123.5t-39.5 175.5q0 83 52 163t148.5 130.5t222.5 50.5
q136 0 233.5 -56t161.5 -137q15 -20 15 -32q0 -14 -19 -29l-114 -94q-15 -12 -26 -12q-14 0 -30 19q-44 51 -93 76.5t-121 25.5q-76 0 -118.5 -32t-42.5 -83q0 -39 23 -62.5t62 -38.5t119 -37q15 -4 33 -9t39 -12q164 -49 244 -150t80 -228q0 -119 -65.5 -203.5t-170 -126.5
t-218.5 -42q-144 0 -257 60t-181 165q-8 12 -11.5 21zM428 -127h167q43 0 43 -44v-131q0 -109 -32 -172t-75 -94q-13 -10 -25 -10t-24 11l-39 33q-12 11 -12 22q0 13 14 27q23 22 37 50t14 46v13q0 4 -3.5 7.5t-11.5 3.5h-56q-18 0 -28 10.5t-10 31.5v150q0 46 41 46z" />
    <glyph glyph-name="uni021A" unicode="&#x21a;" horiz-adv-x="1235" 
d="M101 1426h1027q37 0 37 -38v-181q0 -39 -37 -39h-378v-1130q0 -38 -38 -38h-206q-38 0 -38 38v1130h-367q-38 0 -38 39v181q0 38 38 38zM536 -145h167q43 0 43 -44v-131q0 -109 -32 -172t-75 -94q-13 -10 -25 -10t-24 11l-39 33q-12 11 -12 22q0 13 14 27q23 22 37 50
t14 46v13q0 4 -3.5 7.5t-11.5 3.5h-56q-18 0 -28 10.5t-10 31.5v150q0 46 41 46z" />
    <glyph glyph-name="uni021B" unicode="&#x21b;" horiz-adv-x="724" 
d="M610 1218q41 0 41 -42v-159q0 -20 -13 -31t-32 -11h-138v-598q0 -65 23 -103.5t81 -41.5l31 -2q33 -2 41 -17.5t8 -35.5v-136q0 -48 -74 -48q-112 0 -199.5 43t-136.5 123.5t-49 188.5v627h-111q-16 0 -29 11t-13 31v156q0 22 12.5 33.5t29.5 11.5h111v201q0 21 8 30.5
t31 15.5l196 57q8 2 11 2q14 0 21.5 -12t7.5 -31v-263h142zM271 -93h167q43 0 43 -44v-131q0 -109 -32 -172t-75 -94q-13 -10 -25 -10t-24 11l-39 33q-12 11 -12 22q0 13 14 27q23 22 37 50t14 46v13q0 4 -3.5 7.5t-11.5 3.5h-56q-18 0 -28 10.5t-10 31.5v150q0 46 41 46z
" />
    <glyph glyph-name="uni0237" unicode="&#x237;" horiz-adv-x="582" 
d="M201 1224h200q38 0 38 -41v-1173q0 -113 -53 -205.5t-153.5 -146.5t-237.5 -54q-27 0 -43 11.5t-16 25.5v142q0 18 9 31.5t40 13.5q94 0 135 53.5t41 150.5v1151q0 41 40 41z" />
    <glyph glyph-name="circumflex" unicode="&#x2c6;" horiz-adv-x="718" 
d="M362 1587q13 0 27 -14l236 -235q15 -13 15 -28t-14 -27l-65 -64q-13 -13 -27 -13q-15 0 -28 13l-146 146l-146 -146q-13 -13 -27 -13q-13 0 -26 12l-64 63q-13 13 -13 26q0 14 14 28l237 238q14 14 27 14z" />
    <glyph glyph-name="caron" unicode="&#x2c7;" horiz-adv-x="710" 
d="M361 1186q-15 0 -27 13l-236 238q-14 14 -14 28q0 13 13 26l63 63q13 12 27 12t27 -13l147 -147l148 147q13 13 27 13q13 0 27 -12l63 -63q13 -13 13 -27t-13 -27l-237 -238q-13 -13 -28 -13z" />
    <glyph glyph-name="breve" unicode="&#x2d8;" horiz-adv-x="626" 
d="M164 1288q-55 31 -86.5 81.5t-31.5 106.5q0 36 27 36h103q11 0 18 -7.5t7 -18.5q0 -29 23.5 -51t64.5 -22q36 0 60.5 23.5t24.5 49.5q0 11 7.5 18.5t18.5 7.5h101q29 0 29 -36q0 -57 -32.5 -107.5t-89 -81t-123.5 -30.5q-66 0 -121 31z" />
    <glyph glyph-name="dotaccent" unicode="&#x2d9;" horiz-adv-x="545" 
d="M179 1473h138q25 0 36 -13.5t11 -38.5v-137q0 -26 -12 -36t-35 -10h-138q-25 0 -37.5 10t-12.5 36v138q0 51 50 51z" />
    <glyph glyph-name="ring" unicode="&#x2da;" horiz-adv-x="616" 
d="M404 1562q46 -27 73.5 -73t27.5 -101t-27 -101t-73.5 -72.5t-101.5 -26.5t-101 26.5t-73 72.5t-27 101t27 101t73 73t101 27t101 -27zM250 1443q-21 -22 -21 -54q0 -33 21 -54t53 -21q34 0 56 21t22 54q0 32 -22 54t-56 22q-32 0 -53 -22z" />
    <glyph glyph-name="ogonek" unicode="&#x2db;" horiz-adv-x="513" 
d="M459 -356.5q-29 -52.5 -80 -84t-115 -31.5q-61 0 -113 30t-82.5 82t-30.5 113q0 49 21 91t59 82l178 177q11 11 22 11q12 0 22 -10l58 -59q11 -10 11 -22q0 -11 -11 -22l-174 -174q-19 -19 -30 -37t-11 -39q0 -31 22 -53t57 -22q33 0 56 20t23 54q0 20 9 30t23 10h83
q12 0 22 -9t10 -24q0 -61 -29 -113.5z" />
    <glyph glyph-name="tilde" unicode="&#x2dc;" horiz-adv-x="762" 
d="M152 1251q-17 0 -40 23l-44 43q-11 10 -15.5 16t-4.5 12t4.5 13t9 13.5t7.5 10.5q39 54 88.5 83t106.5 29q33 -1 65 -15.5t72 -38.5q31 -19 52 -29t39 -10q25 0 45.5 13.5t41.5 39.5q18 22 35 22q14 0 28 -14l62 -63q11 -11 11 -22q0 -9 -7 -20q-40 -61 -93.5 -93
t-116.5 -32q-33 0 -63.5 13.5t-70.5 38.5q-30 20 -52 30.5t-42 10.5q-28 0 -46 -13t-31.5 -29t-18.5 -21q-10 -11 -22 -11z" />
    <glyph glyph-name="hungarumlaut" unicode="&#x2dd;" horiz-adv-x="950" 
d="M342.5 1234q-9.5 -6 -29.5 -6h-138q-13 0 -23.5 7t-10.5 21q0 7 5 19l108 214q10 21 20.5 28.5t28.5 7.5h135q13 0 21.5 -9t8.5 -23q0 -10 -4 -18l-101 -210q-11 -25 -20.5 -31zM761 1234.5q-10 -6.5 -29 -6.5h-139q-13 0 -23 6.5t-10 20.5q0 10 5 20l105 214
q10 21 20 28.5t29 7.5h137q13 0 21.5 -9t8.5 -23q0 -10 -4 -18l-101 -210q-10 -24 -20 -30.5z" />
    <glyph glyph-name="uni037E" unicode="&#x37e;" horiz-adv-x="507" 
 />
    <glyph glyph-name="tonos" unicode="&#x384;" horiz-adv-x="448" 
d="M110.5 1471q9.5 10 27.5 10h129q19 0 27 -7.5t8 -22.5l-1 -10l-26 -244q-3 -35 -32 -35h-84q-16 0 -21.5 9.5t-8.5 28.5l-26 241q-2 20 7.5 30z" />
    <glyph glyph-name="dieresistonos" unicode="&#x385;" horiz-adv-x="826" 
d="M316 1606q0 30 36 30h129q35 0 35 -29l-1 -10l-26 -245q-3 -35 -32 -35h-84q-16 0 -21.5 9t-8.5 29l-26 242zM49.5 1533.5q8.5 8.5 20.5 8.5h165q17 0 23 -9.5t6 -21.5v-154q0 -15 -9.5 -22t-18.5 -7h-167q-9 0 -18.5 6.5t-9.5 21.5v155q0 14 8.5 22.5zM580.5 1533.5
q8.5 8.5 20.5 8.5h165q17 0 23.5 -10t6.5 -21v-154q0 -15 -9.5 -22t-19.5 -7h-167q-9 0 -18.5 6.5t-9.5 21.5v155q0 14 8.5 22.5z" />
    <glyph glyph-name="Alphatonos" unicode="&#x386;" horiz-adv-x="1440" 
d="M110.5 1471q9.5 10 27.5 10h129q19 0 27 -7.5t8 -22.5l-1 -10l-26 -244q-3 -35 -32 -35h-84q-16 0 -21.5 9.5t-8.5 28.5l-26 241q-2 20 7.5 30zM658 1426h160q34 0 49 -37l541 -1348q4 -9 4 -17q0 -12 -8 -18t-23 -6h-210q-33 0 -47 35l-93 230h-588l-92 -229
q-7 -20 -18.5 -28t-29.5 -8h-210q-30 0 -30 23q0 9 4 18l543 1348q15 37 48 37zM940 513l-202 544l-205 -544h407z" />
    <glyph glyph-name="anoteleia" unicode="&#x387;" horiz-adv-x="436" 
d="M121.5 644.5q8.5 8.5 20.5 8.5h165q18 0 24 -9.5t6 -21.5v-154q0 -15 -9 -22t-20 -7h-166q-9 0 -19 6.5t-10 21.5v155q0 14 8.5 22.5z" />
    <glyph glyph-name="Epsilontonos" unicode="&#x388;" horiz-adv-x="1263" 
d="M-94.5 1472q9.5 10 27.5 10h129q19 0 27 -7.5t8 -22.5l-1 -10l-26 -244q-3 -35 -32 -35h-84q-16 0 -21.5 9.5t-8.5 28.5l-26 241q-2 20 7.5 30zM193 1425h938q39 0 39 -38v-186q0 -38 -39 -38h-695v-291h530q43 0 43 -39v-182q0 -38 -43 -38h-530v-352h713q40 0 40 -38
v-185q0 -38 -40 -38h-956q-37 0 -37 38v1349q0 38 37 38z" />
    <glyph glyph-name="Etatonos" unicode="&#x389;" horiz-adv-x="1511" 
d="M-89.5 1471q9.5 10 27.5 10h129q19 0 27 -7.5t8 -22.5l-1 -10l-26 -244q-3 -35 -32 -35h-84q-16 0 -21.5 9.5t-8.5 28.5l-26 241q-2 20 7.5 30zM436 615v-576q0 -39 -41 -39h-202q-37 0 -37 39v1346q0 18 9.5 29t27.5 11h207q15 0 25.5 -8.5t10.5 -29.5v-502h639v500
q0 18 9.5 29t27.5 11h207q15 0 25.5 -8.5t10.5 -29.5v-1348q0 -39 -41 -39h-202q-37 0 -37 39v576h-639z" />
    <glyph glyph-name="Iotatonos" unicode="&#x38a;" 
d="M-76.5 1423q9.5 10 27.5 10h129q19 0 27 -7.5t8 -22.5l-1 -10l-26 -244q-3 -35 -32 -35h-84q-16 0 -21.5 9.5t-8.5 28.5l-26 241q-2 20 7.5 30zM194 1425h203q38 0 38 -40v-1346q0 -39 -38 -39h-203q-38 0 -38 39v1346q0 40 38 40z" />
    <glyph glyph-name="Omicrontonos" unicode="&#x38c;" horiz-adv-x="1661" 
d="M197 1081q99 168 267.5 266.5t367.5 98.5q200 0 367.5 -98.5t265.5 -266.5t98 -368q0 -199 -98 -367t-265.5 -266.5t-367.5 -98.5q-199 0 -367.5 98.5t-267.5 266.5t-99 367q0 200 99 368zM-57.5 1422q9.5 10 27.5 10h129q19 0 27 -7.5t8 -22.5l-1 -10l-26 -244
q-3 -35 -32 -35h-84q-16 0 -21.5 9.5t-8.5 28.5l-26 241q-2 20 7.5 30zM438.5 479q59.5 -106 163 -167.5t230.5 -61.5t230 61.5t162 167.5t59 234t-59 234.5t-162 168t-230 61.5t-230.5 -61.5t-163 -168t-59.5 -234.5t59.5 -234z" />
    <glyph glyph-name="Upsilontonos" unicode="&#x38e;" horiz-adv-x="1277" 
d="M-199.5 1418q9.5 10 27.5 10h129q19 0 27 -7.5t8 -22.5l-1 -10l-26 -244q-3 -35 -32 -35h-84q-16 0 -21.5 9.5t-8.5 28.5l-26 241q-2 20 7.5 30zM36 1383q-6 11 -6 20q0 11 8.5 17t21.5 6h236q17 0 27.5 -8t20.5 -27l290 -560l289 559q10 19 20.5 27t26.5 8h239
q14 0 22 -6.5t8 -17.5q0 -7 -5 -19l-460 -781v-561q0 -40 -37 -40h-206q-38 0 -38 40v560z" />
    <glyph glyph-name="Omegatonos" unicode="&#x38f;" horiz-adv-x="1443" 
d="M87 30v167q0 33 34 33h222v77q-124 79 -196.5 213t-72.5 291q0 167 84.5 313t229.5 234t319 88q173 0 318.5 -85.5t231 -231t85.5 -318.5q0 -157 -72 -290.5t-196 -212.5v-78h217q32 0 32 -32v-167q0 -32 -32 -32l-446 -1q-34 0 -34 32v405q0 12 6.5 19.5t18.5 8.5
q72 25 127.5 77.5t86 123t30.5 149.5q0 102 -50.5 189t-137 137.5t-188.5 50.5t-188 -50.5t-136.5 -137.5t-50.5 -189q0 -79 31 -149t86 -122.5t127 -78.5q14 -5 20.5 -13t6.5 -16v-403q0 -32 -33 -32l-446 -1q-34 0 -34 32zM-105.5 1423q9.5 10 27.5 10h129q19 0 27 -7.5
t8 -22.5l-1 -10l-26 -244q-3 -35 -32 -35h-84q-16 0 -21.5 9.5t-8.5 28.5l-26 241q-2 20 7.5 30z" />
    <glyph glyph-name="iotadieresistonos" unicode="&#x390;" 
d="M180 1619q0 30 36 30h129q35 0 35 -29l-1 -10l-26 -245q-3 -35 -32 -35h-84q-16 0 -21.5 9t-8.5 29l-26 242zM-86.5 1546.5q8.5 8.5 20.5 8.5h165q17 0 23 -9.5t6 -21.5v-154q0 -15 -9.5 -22t-18.5 -7h-167q-9 0 -18.5 6.5t-9.5 21.5v155q0 14 8.5 22.5zM444.5 1546.5
q8.5 8.5 20.5 8.5h165q17 0 23.5 -10t6.5 -21v-154q0 -15 -9.5 -22t-19.5 -7h-167q-9 0 -18.5 6.5t-9.5 21.5v155q0 14 8.5 22.5zM147 1216q11 10 27 10h204q17 0 27 -10.5t10 -28.5v-1148q0 -39 -37 -39h-204q-38 0 -38 39v1148q0 19 11 29z" />
    <glyph glyph-name="Alpha" unicode="&#x391;" horiz-adv-x="1440" 
d="M658 1426h160q34 0 49 -37l541 -1348q4 -9 4 -17q0 -12 -8 -18t-23 -6h-210q-33 0 -47 35l-93 230h-588l-92 -229q-7 -20 -18.5 -28t-29.5 -8h-210q-30 0 -30 23q0 9 4 18l543 1348q15 37 48 37zM940 513l-202 544l-205 -544h407z" />
    <glyph glyph-name="Beta" unicode="&#x392;" horiz-adv-x="1327" 
d="M191 1426h619q108 0 197 -53t140.5 -144t51.5 -201q0 -83 -27.5 -151t-81.5 -115q81 -55 128 -148.5t47 -199.5q0 -109 -52.5 -204.5t-142 -152.5t-196.5 -57h-683q-37 0 -37 38v1350q0 38 37 38zM434 847h302q85 0 135 46.5t50 127.5q0 78 -50 125.5t-133 47.5h-304
v-347zM434 234h364q56 0 97 27.5t62.5 71t21.5 91.5q0 56 -26 102.5t-68.5 73t-90.5 26.5h-360v-392z" />
    <glyph glyph-name="Gamma" unicode="&#x393;" horiz-adv-x="1114" 
d="M439 38q0 -38 -37 -38h-205q-38 0 -38 38v1349q0 39 38 39h850q36 0 36 -35v-187q0 -35 -36 -35h-608v-1131z" />
    <glyph glyph-name="Epsilon" unicode="&#x395;" horiz-adv-x="1263" 
d="M193 1425h938q39 0 39 -38v-186q0 -38 -39 -38h-695v-291h530q43 0 43 -39v-182q0 -38 -43 -38h-530v-352h713q40 0 40 -38v-185q0 -38 -40 -38h-956q-37 0 -37 38v1349q0 38 37 38z" />
    <glyph glyph-name="Zeta" unicode="&#x396;" horiz-adv-x="1342" 
d="M1206 1391v-160q0 -19 -12 -36l-745 -934h719q35 0 35 -34v-194q0 -33 -35 -33h-1072q-35 0 -35 33v165q0 19 13 34l737 930h-705q-37 0 -37 35v194q0 35 37 35h1065q35 0 35 -35z" />
    <glyph glyph-name="Eta" unicode="&#x397;" horiz-adv-x="1511" 
d="M436 615v-576q0 -39 -41 -39h-202q-37 0 -37 39v1346q0 18 9.5 29t27.5 11h207q15 0 25.5 -8.5t10.5 -29.5v-502h639v500q0 18 9.5 29t27.5 11h207q15 0 25.5 -8.5t10.5 -29.5v-1348q0 -39 -41 -39h-202q-37 0 -37 39v576h-639z" />
    <glyph glyph-name="Theta" unicode="&#x398;" horiz-adv-x="1661" 
d="M195.5 1083q99.5 169 268.5 268.5t368 99.5q200 0 368.5 -99.5t267.5 -268.5t99 -368t-99 -367.5t-267.5 -267.5t-368.5 -99q-199 0 -368 99t-268.5 267.5t-99.5 367.5t99.5 368zM630 1137.5q-93 -46.5 -156 -128.5t-85 -185h885q-22 103 -85 185t-156 128.5t-201 46.5
q-109 0 -202 -46.5zM1033.5 294q92.5 47 155.5 129t85 184h-885q22 -103 85 -185t156 -128.5t202 -46.5t201.5 47z" />
    <glyph glyph-name="Iota" unicode="&#x399;" 
d="M194 1425h203q38 0 38 -40v-1346q0 -39 -38 -39h-203q-38 0 -38 39v1346q0 40 38 40z" />
    <glyph glyph-name="Kappa" unicode="&#x39a;" horiz-adv-x="1438" 
d="M1390 44q10 -13 10 -24q0 -9 -6.5 -14.5t-19.5 -5.5h-280q-16 0 -26.5 8t-24.5 27l-433 572l-174 -187v-381q0 -39 -37 -39h-206q-37 0 -37 39v1347q0 18 10 29t27 11h203q13 0 26.5 -11.5t13.5 -28.5v-593l533 605q16 19 27.5 23.5t31.5 4.5h248q24 0 24 -21
q0 -13 -10 -24l-493 -561z" />
    <glyph glyph-name="Lambda" unicode="&#x39b;" horiz-adv-x="1440" 
d="M1394 25q0 -12 -8 -18.5t-22 -6.5h-222q-33 0 -47 38l-365 1004l-368 -1005q-13 -37 -47 -37h-219q-14 0 -22 6t-8 18q0 9 4 18l531 1349q14 36 49 36h161q35 0 49 -36l530 -1347q4 -9 4 -19z" />
    <glyph glyph-name="Mu" unicode="&#x39c;" horiz-adv-x="1811" 
d="M366 38q-2 -20 -11 -29t-28 -9h-195q-19 0 -29 10.5t-8 28.5l145 1350q2 19 11.5 28.5t28.5 9.5h250q15 0 21.5 -7.5t13.5 -27.5l344 -950l338 949q7 20 14.5 28t22.5 8h255q36 0 39 -38l145 -1350q5 -39 -37 -39h-195q-20 0 -28.5 8.5t-10.5 28.5l-98 908l-327 -881
q-8 -21 -16 -28t-23 -7h-161q-16 0 -24 7t-16 28l-320 882z" />
    <glyph glyph-name="Nu" unicode="&#x39d;" horiz-adv-x="1545" 
d="M426 39q0 -39 -41 -39h-192q-37 0 -37 39v1349q0 16 9.5 27t27.5 11h224q33 0 57 -36l644 -927v925q0 17 10 27.5t29 10.5h191q15 0 28 -11t13 -27v-1349q0 -39 -41 -39h-203q-33 0 -57 35l-662 975v-971z" />
    <glyph glyph-name="Xi" unicode="&#x39e;" horiz-adv-x="1263" 
d="M193 1426h865q38 0 38 -38v-164q0 -38 -38 -38h-865q-37 0 -37 38v164q0 38 37 38zM346 826q10 10 28 10h546q19 0 30 -10t11 -30v-142q0 -37 -41 -37h-546q-38 0 -38 37v144q0 18 10 28zM206 249h871q39 0 39 -38v-173q0 -38 -39 -38h-871q-38 0 -38 38v173q0 38 38 38z
" />
    <glyph glyph-name="Omicron" unicode="&#x39f;" horiz-adv-x="1661" 
d="M197 1081q99 168 267.5 266.5t367.5 98.5q200 0 367.5 -98.5t265.5 -266.5t98 -368q0 -199 -98 -367t-265.5 -266.5t-367.5 -98.5q-199 0 -367.5 98.5t-267.5 266.5t-99 367q0 200 99 368zM438.5 479q59.5 -106 163 -167.5t230.5 -61.5t230 61.5t162 167.5t59 234
t-59 234.5t-162 168t-230 61.5t-230.5 -61.5t-163 -168t-59.5 -234.5t59.5 -234z" />
    <glyph glyph-name="Pi" unicode="&#x3a0;" horiz-adv-x="1542" 
d="M475 1167v-1130q0 -37 -37 -37h-208q-17 0 -26.5 9.5t-9.5 27.5v1351q0 15 9.5 26.5t26.5 11.5h1026q17 0 26 -10t9 -28v-1352q0 -17 -10 -26.5t-25 -9.5h-210q-17 0 -26.5 9.5t-9.5 27.5v1130h-535z" />
    <glyph glyph-name="Rho" unicode="&#x3a1;" horiz-adv-x="1274" 
d="M156 1415.5q10 9.5 27 9.5h559q126 0 227.5 -64.5t159 -170t57.5 -224.5q0 -117 -56.5 -220.5t-157 -165.5t-225.5 -62h-322v-479q0 -39 -38 -39h-204q-37 0 -37 39v1348q0 19 10 28.5zM425 756h260q63 0 112 27.5t76 75.5t27 108q0 58 -27.5 107t-76.5 78t-111 29h-260
v-425z" />
    <glyph glyph-name="Sigma" unicode="&#x3a3;" horiz-adv-x="1296" 
d="M127 226l437 497l-440 484q-16 16 -16 36v145q0 38 38 38h1014q38 0 38 -38v-174q0 -38 -38 -38h-677l384 -419q14 -17 14 -30q0 -12 -11 -23l-3 -3l-374 -442h683q39 0 39 -38v-183q0 -38 -39 -38h-1028q-38 0 -38 38v145q0 24 17 43z" />
    <glyph glyph-name="Tau" unicode="&#x3a4;" horiz-adv-x="1235" 
d="M101 1426h1027q37 0 37 -38v-181q0 -39 -37 -39h-378v-1130q0 -38 -38 -38h-206q-38 0 -38 38v1130h-367q-38 0 -38 39v181q0 38 38 38z" />
    <glyph glyph-name="Upsilon" unicode="&#x3a5;" horiz-adv-x="1277" 
d="M36 1383q-6 11 -6 20q0 11 8.5 17t21.5 6h236q17 0 27.5 -8t20.5 -27l290 -560l289 559q10 19 20.5 27t26.5 8h239q14 0 22 -6.5t8 -17.5q0 -7 -5 -19l-460 -781v-561q0 -40 -37 -40h-206q-38 0 -38 40v560z" />
    <glyph glyph-name="Phi" unicode="&#x3a6;" horiz-adv-x="1521" 
d="M343.5 226q-122.5 86 -192 212t-69.5 272q0 144 69.5 270.5t192 213t275.5 115.5v78q0 39 38 39h205q38 0 38 -39v-79q151 -29 272.5 -115.5t191 -212.5t69.5 -270q0 -145 -69.5 -271t-191 -212.5t-272.5 -115.5v-73q0 -38 -38 -38h-205q-38 0 -38 38v73
q-153 29 -275.5 115zM390 566q33 -68 92.5 -117.5t136.5 -73.5v670q-78 -25 -137 -75t-92 -117t-33 -143t33 -144zM1126.5 852q-32.5 67 -91.5 117t-135 75v-668q77 25 135.5 74.5t91 116.5t32.5 143q0 75 -32.5 142z" />
    <glyph glyph-name="Chi" unicode="&#x3a7;" horiz-adv-x="1342" 
d="M1283 42q7 -10 7 -20t-8.5 -16t-20.5 -6h-234q-17 0 -28 8t-23 26l-308 459l-309 -459q-14 -21 -24 -27.5t-26 -6.5h-232q-13 0 -21 6t-8 16t7 21l457 682l-440 657q-8 13 -8 22q0 10 7 16t19 6h238q15 0 26 -8t24 -27l290 -433l292 434q13 19 24 27t27 8h234
q13 0 21 -6.5t8 -17.5q0 -8 -6 -19l-444 -659z" />
    <glyph glyph-name="Psi" unicode="&#x3a8;" horiz-adv-x="1505" 
d="M233 642.5q-131 137.5 -131 391.5v354q0 16 8.5 27t25.5 11h197q39 0 39 -39v-357q0 -117 63 -195t172 -105v657q0 39 37 39h206q37 0 37 -39v-656q116 31 184 109.5t68 189.5v357q0 16 9.5 27.5t28.5 11.5h188q19 0 30 -11.5t11 -27.5v-356q0 -256 -134.5 -391
t-384.5 -160v-442q0 -38 -37 -38h-206q-37 0 -37 38v442q-243 25 -374 162.5z" />
    <glyph glyph-name="Iotadieresis" unicode="&#x3aa;" 
d="M44 1775h133q25 0 35.5 -12t10.5 -37v-132q0 -26 -11.5 -36t-34.5 -10h-133q-25 0 -36.5 10t-11.5 35v133q0 49 48 49zM431 1775h133q25 0 35.5 -12t10.5 -37v-132q0 -26 -11.5 -36t-34.5 -10h-133q-25 0 -36.5 10t-11.5 35v133q0 49 48 49zM194 1425h203q38 0 38 -40
v-1346q0 -39 -38 -39h-203q-38 0 -38 39v1346q0 40 38 40z" />
    <glyph glyph-name="Upsilondieresis" unicode="&#x3ab;" horiz-adv-x="1277" 
d="M401 1795h133q25 0 35.5 -12t10.5 -37v-132q0 -26 -11.5 -36t-34.5 -10h-133q-25 0 -36.5 10t-11.5 35v133q0 49 48 49zM788 1795h133q25 0 35.5 -12t10.5 -37v-132q0 -26 -11.5 -36t-34.5 -10h-133q-25 0 -36.5 10t-11.5 35v133q0 49 48 49zM36 1383q-6 11 -6 20
q0 11 8.5 17t21.5 6h236q17 0 27.5 -8t20.5 -27l290 -560l289 559q10 19 20.5 27t26.5 8h239q14 0 22 -6.5t8 -17.5q0 -7 -5 -19l-460 -781v-561q0 -40 -37 -40h-206q-38 0 -38 40v560z" />
    <glyph glyph-name="alphatonos" unicode="&#x3ac;" horiz-adv-x="1473" 
d="M643.5 1643q9.5 10 27.5 10h129q19 0 27 -7.5t8 -22.5l-1 -10l-26 -244q-3 -35 -32 -35h-84q-16 0 -21.5 9.5t-8.5 28.5l-26 241q-2 20 7.5 30zM1319 0h-171q-26 0 -42.5 17t-16.5 43v80q-80 -77 -177.5 -119.5t-203.5 -42.5q-162 0 -305 81.5t-229 225t-86 322.5
q0 171 83.5 316t225.5 230t311 85q126 0 221.5 -41.5t173.5 -130.5l17 120q3 21 11.5 30.5t27.5 9.5h160q38 0 38 -40v-1146q0 -40 -38 -40zM1036 798.5q-49 87.5 -132.5 139.5t-183.5 52q-97 0 -179.5 -50t-131 -137.5t-48.5 -194.5q0 -105 47.5 -192.5t129.5 -138
t182 -50.5q102 0 185.5 51.5t131.5 139t48 190.5t-49 190.5z" />
    <glyph glyph-name="epsilontonos" unicode="&#x3ad;" horiz-adv-x="1096" 
d="M533.5 1672q9.5 10 27.5 10h129q19 0 27 -7.5t8 -22.5l-1 -10l-26 -244q-3 -35 -32 -35h-84q-16 0 -21.5 9.5t-8.5 28.5l-26 241q-2 20 7.5 30zM1032 167q0 -17 -18 -35q-80 -78 -163.5 -113t-197.5 -35h-55q-117 0 -219.5 45.5t-164.5 128.5t-62 190q0 101 40.5 165.5
t115.5 117.5q-59 42 -97.5 106t-38.5 135q0 116 55.5 198.5t150.5 125t211 42.5h21q99 0 198 -39t172 -108q15 -14 21.5 -23t6.5 -16q0 -9 -14 -23l-98 -119q-7 -7 -17 -7t-20 5t-17 11q-52 44 -93 62t-84 18h-50q-74 0 -124 -37.5t-50 -98.5q0 -59 42 -97t114 -38h120
q16 0 32.5 -9.5t16.5 -30.5v-128q0 -17 -10.5 -30.5t-34.5 -13.5l-130 2q-52 0 -89.5 -20t-56.5 -53t-19 -72q0 -50 27.5 -85t72.5 -52.5t97 -17.5h58q52 0 101 18t96 65q18 13 33 13q17 0 32 -16l79 -107q10 -11 10 -24z" />
    <glyph glyph-name="etatonos" unicode="&#x3ae;" horiz-adv-x="1306" 
d="M629.5 1667q9.5 10 27.5 10h129q19 0 27 -7.5t8 -22.5l-1 -10l-26 -244q-3 -35 -32 -35h-84q-16 0 -21.5 9.5t-8.5 28.5l-26 241q-2 20 7.5 30zM397.5 11q-16.5 -11 -38.5 -11h-184q-41 0 -41 41v1144q0 41 41 41h127q20 0 36 -14t21 -35l26 -138q68 99 174.5 150
t218.5 51t220.5 -57.5t180 -175.5t71.5 -290v-1047q0 -41 -38 -41h-193q-41 0 -41 41v1038q0 69 -38 132t-102.5 101.5t-139.5 38.5q-66 0 -132 -35.5t-109 -100.5t-43 -149v-654q0 -19 -16.5 -30z" />
    <glyph glyph-name="iotatonos" unicode="&#x3af;" 
d="M187.5 1666q9.5 10 27.5 10h129q19 0 27 -7.5t8 -22.5l-1 -10l-26 -244q-3 -35 -32 -35h-84q-16 0 -21.5 9.5t-8.5 28.5l-26 241q-2 20 7.5 30zM147 1216q11 10 27 10h204q17 0 27 -10.5t10 -28.5v-1148q0 -39 -37 -39h-204q-38 0 -38 39v1148q0 19 11 29z" />
    <glyph glyph-name="upsilondieresistonos" unicode="&#x3b0;" horiz-adv-x="1397" 
d="M601 1667q0 30 36 30h129q35 0 35 -29l-1 -10l-26 -245q-3 -35 -32 -35h-84q-16 0 -21.5 9t-8.5 29l-26 242zM334.5 1594.5q8.5 8.5 20.5 8.5h165q17 0 23 -9.5t6 -21.5v-154q0 -15 -9.5 -22t-18.5 -7h-167q-9 0 -18.5 6.5t-9.5 21.5v155q0 14 8.5 22.5zM865.5 1594.5
q8.5 8.5 20.5 8.5h165q17 0 23.5 -10t6.5 -21v-154q0 -15 -9.5 -22t-19.5 -7h-167q-9 0 -18.5 6.5t-9.5 21.5v155q0 14 8.5 22.5zM458 372.5q37 -61.5 97 -94.5t127 -36h24q67 3 125.5 36t94 94.5t35.5 143.5v669q0 41 40 41h195q19 0 28.5 -11.5t9.5 -29.5v-684
q0 -145 -69.5 -263.5t-192 -186.5t-274.5 -68h-8q-126 0 -250.5 53t-208 168t-83.5 290v691q0 41 39 41h196q38 0 38 -41v-669q0 -82 37 -143.5z" />
    <glyph glyph-name="alpha" unicode="&#x3b1;" horiz-adv-x="1473" 
d="M1319 0h-171q-26 0 -42.5 17t-16.5 43v80q-80 -77 -177.5 -119.5t-203.5 -42.5q-162 0 -305 81.5t-229 225t-86 322.5q0 171 83.5 316t225.5 230t311 85q126 0 221.5 -41.5t173.5 -130.5l17 120q3 21 11.5 30.5t27.5 9.5h160q38 0 38 -40v-1146q0 -40 -38 -40z
M1036 798.5q-49 87.5 -132.5 139.5t-183.5 52q-97 0 -179.5 -50t-131 -137.5t-48.5 -194.5q0 -105 47.5 -192.5t129.5 -138t182 -50.5q102 0 185.5 51.5t131.5 139t48 190.5t-49 190.5z" />
    <glyph glyph-name="beta" unicode="&#x3b2;" horiz-adv-x="1139" 
d="M515.5 -2.5q-10.5 9.5 -10.5 34.5v143q0 25 12 40t45 15q110 0 161 57.5t51 158.5q0 64 -28 113t-79.5 75.5t-118.5 26.5q-18 0 -30.5 10.5t-12.5 28.5v152q0 21 11 31.5t36 10.5q81 0 105.5 42.5t24.5 103.5q0 66 -34.5 110.5t-108.5 44.5q-79 0 -109 -62.5t-30 -161.5
v-1294q0 -44 -36 -44h-199q-27 0 -33.5 11t-6.5 36v1317q0 220 108 329.5t316 109.5q117 0 208 -48.5t141.5 -131.5t50.5 -182q0 -96 -22 -159.5t-81 -108.5q107 -58 161.5 -162t54.5 -227q0 -127 -60.5 -224t-177 -151t-278.5 -54q-20 0 -30.5 9.5z" />
    <glyph glyph-name="gamma" unicode="&#x3b3;" horiz-adv-x="1183" 
d="M53 1162q-5 17 -5 25q0 19 12 29t28 10h182q15 0 27.5 -9.5t18.5 -27.5l285 -824l279 824q12 37 47 37h195q20 0 29 -9t9 -24q0 -12 -5 -25l-426 -1133v-368q0 -38 -37 -38h-175q-37 0 -37 38v374z" />
    <glyph glyph-name="delta" unicode="&#x3b4;" horiz-adv-x="1434" 
d="M257.5 1576q8.5 8 22.5 8h913q29 0 29 -29v-143q0 -14 -9 -21.5t-22 -7.5h-505l416 -274q117 -80 184 -214t67 -286q0 -171 -85.5 -315.5t-231.5 -229t-318 -84.5q-171 0 -316 84.5t-229.5 229t-84.5 315.5q0 141 59 266t163 214t235 126l-279 170q-17 11 -17 27v142
q0 14 8.5 22zM400 421q48 -86 132 -136.5t186 -50.5q103 0 188 50.5t134 136.5t49 188q0 101 -49 187.5t-133.5 137.5t-187.5 51t-187 -50.5t-132 -136.5t-48 -189q0 -102 48 -188z" />
    <glyph glyph-name="epsilon" unicode="&#x3b5;" horiz-adv-x="1096" 
d="M1032 167q0 -17 -18 -35q-80 -78 -163.5 -113t-197.5 -35h-55q-117 0 -219.5 45.5t-164.5 128.5t-62 190q0 101 40.5 165.5t115.5 117.5q-59 42 -97.5 106t-38.5 135q0 116 55.5 198.5t150.5 125t211 42.5h21q99 0 198 -39t172 -108q15 -14 21.5 -23t6.5 -16
q0 -9 -14 -23l-98 -119q-7 -7 -17 -7t-20 5t-17 11q-52 44 -93 62t-84 18h-50q-74 0 -124 -37.5t-50 -98.5q0 -59 42 -97t114 -38h120q16 0 32.5 -9.5t16.5 -30.5v-128q0 -17 -10.5 -30.5t-34.5 -13.5l-130 2q-52 0 -89.5 -20t-56.5 -53t-19 -72q0 -50 27.5 -85t72.5 -52.5
t97 -17.5h58q52 0 101 18t96 65q18 13 33 13q17 0 32 -16l79 -107q10 -11 10 -24z" />
    <glyph glyph-name="zeta" unicode="&#x3b6;" horiz-adv-x="1183" 
d="M962 175.5q82 -51.5 127 -136.5t45 -182q0 -71 -29.5 -143.5t-85.5 -121.5q-22 -19 -37 -19q-16 0 -40 21l-98 86q-13 13 -13 26q0 14 17 34q27 30 38.5 57t11.5 63q0 62 -41 100.5t-109 38.5h-127q-155 0 -274 58t-185 165.5t-66 250.5q0 98 36 193.5t108 167.5l504 516
h-578q-16 0 -24.5 9.5t-8.5 22.5v166q0 17 10.5 25.5t22.5 8.5h885q18 0 27 -11t9 -23v-148q0 -38 -28 -64l-599 -613q-111 -113 -111 -255q0 -79 41.5 -133t109.5 -81t149 -27h127q104 0 186 -51.5z" />
    <glyph glyph-name="eta" unicode="&#x3b7;" horiz-adv-x="1306" 
d="M397.5 11q-16.5 -11 -38.5 -11h-184q-41 0 -41 41v1144q0 41 41 41h127q20 0 36 -14t21 -35l26 -138q68 99 174.5 150t218.5 51t220.5 -57.5t180 -175.5t71.5 -290v-1047q0 -41 -38 -41h-193q-41 0 -41 41v1038q0 69 -38 132t-102.5 101.5t-139.5 38.5q-66 0 -132 -35.5
t-109 -100.5t-43 -149v-654q0 -19 -16.5 -30z" />
    <glyph glyph-name="theta" unicode="&#x3b8;" horiz-adv-x="1365" 
d="M172.5 1206.5q80.5 179.5 216.5 272.5t299 93q161 0 296.5 -93t216 -273t80.5 -428q0 -245 -80.5 -423.5t-216.5 -271.5t-299 -93q-160 0 -295.5 93.5t-216.5 272.5t-81 424q0 247 80.5 426.5zM531.5 1264q-71.5 -64 -116 -165t-50.5 -207h642q-6 104 -51 205.5t-117 166
t-153 64.5q-83 0 -154.5 -64zM836.5 297.5q71.5 61.5 117.5 159t54 199.5h-643q6 -102 50 -199.5t115.5 -159t155.5 -61.5q79 0 150.5 61.5z" />
    <glyph glyph-name="iota" unicode="&#x3b9;" 
d="M147 1216q11 10 27 10h204q17 0 27 -10.5t10 -28.5v-1148q0 -39 -37 -39h-204q-38 0 -38 39v1148q0 19 11 29z" />
    <glyph glyph-name="kappa" unicode="&#x3ba;" horiz-adv-x="1277" 
d="M171 1226h199q37 0 37 -38v-474l462 485q16 17 29 21.5t34 4.5h289q29 0 29 -29v-181q0 -12 -9 -20.5t-21 -8.5h-226l-253 -258l525 -663q11 -14 11 -29t-11 -25.5t-27 -10.5h-220q-17 0 -28 7t-26 28l-397 519l-161 -162v-353q0 -39 -37 -39h-199q-37 0 -37 39v1149
q0 38 37 38z" />
    <glyph glyph-name="lambda" unicode="&#x3bb;" horiz-adv-x="1201" 
d="M393 1312.5q-44 47.5 -120 47.5q-31 0 -40 13.5t-9 31.5v132q0 17 2.5 26t17 15.5t46.5 6.5q132 0 211.5 -46.5t121 -116.5t89.5 -193l12 -30l448 -1137q6 -15 6 -27q0 -18 -12.5 -27.5t-28.5 -9.5h-182q-31 0 -45 38l-310 847l-318 -848q-13 -37 -47 -37h-175
q-38 0 -38 34q0 12 5 25l439 1127q-29 81 -73 128.5z" />
    <glyph glyph-name="uni03BC" unicode="&#x3bc;" horiz-adv-x="1352" 
d="M1182 0h-121q-20 0 -36 13.5t-21 34.5l-28 135q-46 -89 -125.5 -145t-187.5 -56q-70 0 -137.5 28.5t-128.5 80.5l2 -414q0 -22 -17.5 -35t-39.5 -13h-166q-21 0 -36.5 13.5t-15.5 33.5v1509q0 41 40 41h183q21 0 35.5 -11t14.5 -30v-724q13 -70 54 -123t99.5 -81.5
t120.5 -28.5q76 0 140 40t101 102t37 124v688q0 20 11 32t31 12h191q40 0 40 -41v-1144q0 -41 -40 -41z" />
    <glyph glyph-name="nu" unicode="&#x3bd;" horiz-adv-x="1183" 
d="M644 0h-105q-34 0 -49 35l-462 1127q-6 15 -6 27q0 18 11.5 27.5t30.5 9.5h196q34 0 48 -38l283 -787l283 790q12 35 48 35h219q31 0 31 -26q0 -10 -8 -31l-471 -1134q-15 -35 -49 -35z" />
    <glyph glyph-name="xi" unicode="&#x3be;" horiz-adv-x="1113" 
d="M900.5 175.5q81.5 -51.5 126.5 -136.5t45 -182q0 -71 -29.5 -143t-84.5 -122q-22 -19 -38 -19t-39 21l-98 86q-14 12 -14 26q0 15 17 34q27 30 39 57t12 63q0 60 -39.5 99.5t-103.5 39.5h-113q-153 0 -266.5 56.5t-174 157t-60.5 229.5q0 145 70 241.5t174 154.5
q-80 57 -122 125.5t-42 170.5q0 65 32.5 130t91.5 104h-166q-41 0 -41 42v132q0 19 11.5 29.5t29.5 10.5h834q18 0 31 -12t13 -28v-131q0 -17 -12.5 -30t-31.5 -13h-356q-50 0 -90.5 -29t-63.5 -78.5t-23 -108.5t25 -108.5t68 -77.5t95 -28h149q46 0 46 -40v-160
q0 -26 -12 -34t-36 -8h-145q-58 0 -122.5 -26t-109.5 -84.5t-45 -149.5q0 -90 43.5 -136t102.5 -59.5t129 -13.5h108q104 0 185.5 -51.5z" />
    <glyph glyph-name="omicron" unicode="&#x3bf;" horiz-adv-x="1434" 
d="M172.5 924.5q84.5 144.5 229 229t315.5 84.5q172 0 318 -84.5t232 -229t86 -315.5t-86 -316t-232 -230t-317 -85t-315.5 85t-229.5 230t-85 316t84.5 315.5zM407.5 419.5q45.5 -86.5 126.5 -137t184 -50.5q104 0 186.5 51t128.5 137.5t46 188.5t-46.5 187.5t-128.5 136
t-186 50.5q-102 0 -183.5 -50t-127 -135.5t-45.5 -188.5t45.5 -189.5z" />
    <glyph glyph-name="pi" unicode="&#x3c0;" horiz-adv-x="1324" 
d="M1170.5 14.5q-10.5 -14.5 -36.5 -14.5h-187q-20 0 -28.5 8.5t-9.5 20t-1 38.5v905l-485 1v-934q0 -39 -38 -39h-197q-38 0 -38 39v1149q0 18 11 28t27 10h954q39 0 39 -41v-1123q0 -33 -10.5 -47.5z" />
    <glyph glyph-name="rho" unicode="&#x3c1;" horiz-adv-x="1480" 
d="M218.5 925q84.5 145 229.5 229.5t316 84.5q173 0 318.5 -84.5t231 -229.5t85.5 -316t-85.5 -315.5t-231 -229t-318.5 -84.5q-90 0 -182.5 33t-174.5 94v-426q0 -29 -11 -40.5t-35 -11.5h-188q-26 0 -32.5 14.5t-6.5 42.5v923q0 171 84.5 316zM446 421q48 -86 132 -136.5
t186 -50.5q103 0 188 50.5t134 136.5t49 188t-48.5 188t-133 137t-188.5 51q-103 0 -187 -50.5t-132 -136.5t-48 -189q0 -102 48 -188z" />
    <glyph glyph-name="uni03C2" unicode="&#x3c2;" horiz-adv-x="1185" 
d="M979.5 197.5q84.5 -53.5 131 -142t46.5 -187.5q0 -75 -30 -149.5t-89 -125.5q-22 -19 -38 -19q-19 0 -42 22l-102 89q-14 13 -14 27q0 16 17 36q26 30 35 54t9 63q0 57 -39 96t-106 39h-48q-173 0 -317 77.5t-228 216.5t-84 316q0 172 85 316t229 228t311 84
q122 0 216 -34t182 -105q15 -12 15 -26q0 -9 -5 -17l-98 -152q-6 -11 -23 -11q-12 0 -23 8q-68 48 -131 69.5t-130 21.5q-94 0 -177.5 -49.5t-134.5 -137.5t-51 -196q0 -107 47.5 -188.5t129.5 -125.5t184 -44h80q108 0 192.5 -53.5z" />
    <glyph glyph-name="sigma" unicode="&#x3c3;" horiz-adv-x="1470" 
d="M162.5 925q84.5 145 229.5 229.5t316 84.5q76 0 154 -19h544q39 0 39 -38v-159q0 -37 -39 -37h-190q61 -80 94 -176.5t33 -200.5q0 -171 -85.5 -315.5t-231 -229t-318.5 -84.5q-171 0 -316 84.5t-229.5 229t-84.5 315.5t84.5 316zM390 421q48 -86 132 -136.5t186 -50.5
q103 0 188 50.5t134 136.5t49 188t-48.5 188t-133 137t-188.5 51q-103 0 -187 -50.5t-132 -136.5t-48 -189q0 -102 48 -188z" />
    <glyph glyph-name="tau" unicode="&#x3c4;" horiz-adv-x="1132" 
d="M87 1226h949q37 0 37 -38v-161q0 -38 -37 -38h-337v-951q0 -38 -38 -38h-197q-38 0 -38 38v951h-339q-38 0 -38 38v161q0 38 38 38z" />
    <glyph glyph-name="upsilon" unicode="&#x3c5;" horiz-adv-x="1397" 
d="M458 372.5q37 -61.5 97 -94.5t127 -36h24q67 3 125.5 36t94 94.5t35.5 143.5v669q0 41 40 41h195q19 0 28.5 -11.5t9.5 -29.5v-684q0 -145 -69.5 -263.5t-192 -186.5t-274.5 -68h-8q-126 0 -250.5 53t-208 168t-83.5 290v691q0 41 39 41h196q38 0 38 -41v-669
q0 -82 37 -143.5z" />
    <glyph glyph-name="phi" unicode="&#x3c6;" horiz-adv-x="1438" 
d="M143 888.5q65 129.5 179 218t256 118.5v287q0 39 38 39h191q38 0 38 -39v-288q141 -32 254.5 -120.5t178.5 -217.5t65 -277t-65 -277t-178.5 -217.5t-254.5 -119.5v-286q0 -39 -38 -39h-191q-38 0 -38 39v285q-141 29 -255.5 117.5t-179.5 218.5t-65 279q0 150 65 279.5z
M359.5 458q31.5 -71 88.5 -123.5t130 -78.5v706q-73 -26 -130 -78.5t-88.5 -123.5t-31.5 -151t31.5 -151zM1062 757q-32 70 -88.5 122.5t-128.5 80.5v-702q72 27 128.5 79.5t88.5 123t32 148.5t-32 148z" />
    <glyph glyph-name="chi" unicode="&#x3c7;" horiz-adv-x="1316" 
d="M346 -335q-12 -20 -21.5 -27t-24.5 -7h-214q-12 0 -20 6t-8 16t7 21l451 758l-447 751q-6 11 -6 19q0 11 7.5 17.5t19.5 6.5h217q27 0 47 -35l306 -516l307 516q20 35 48 35h216q12 0 19.5 -6.5t7.5 -17.5q0 -8 -6 -19l-448 -751l452 -758q7 -11 7 -21t-8 -16t-20 -6
h-213q-15 0 -25 6.5t-22 27.5l-315 525z" />
    <glyph glyph-name="psi" unicode="&#x3c8;" horiz-adv-x="1581" 
d="M269 142q-131 137 -131 391v657q0 16 8.5 26.5t24.5 10.5h198q38 0 38 -39v-659q0 -117 64 -195t172 -105v957q0 40 37 40h206q37 0 37 -40v-956q116 31 184 109.5t68 189.5v659q0 16 9.5 27t28.5 11h188q19 0 30 -11.5t11 -26.5v-657q0 -256 -134.5 -391t-384.5 -160
v-311q0 -39 -37 -39h-206q-37 0 -37 39v311q-243 25 -374 162z" />
    <glyph glyph-name="omega" unicode="&#x3c9;" horiz-adv-x="1663" 
d="M1497 204q-56 -101 -152.5 -161.5t-211.5 -60.5q-88 0 -166.5 34.5t-135.5 94.5q-56 -60 -134.5 -94.5t-165.5 -34.5q-131 0 -226 61t-144.5 162t-49.5 221v282q0 82 9 154t40 150.5t93 148.5q20 22 32 31t22 9q6 0 14 -4t17 -10l113 -90q20 -20 20 -38q0 -10 -7 -22
q-48 -72 -67.5 -141.5t-19.5 -181.5v-300q0 -41 19.5 -79.5t55.5 -62.5t83 -24q46 0 84.5 24.5t60 63.5t21.5 82v320q0 25 13.5 37t29.5 12h181q21 0 31 -14.5t10 -32.5v-322q0 -43 22 -82t60 -63.5t85 -24.5t82 24t53.5 63.5t18.5 82.5v291q0 103 -20 170.5t-68 153.5
q-11 20 -11 31q0 9 5.5 17.5t19.5 20.5l102 84q11 8 18.5 12t15.5 4q16 0 36 -17.5t51 -61.5q60 -85 88.5 -180.5t28.5 -217.5v-304q0 -116 -56 -217z" />
    <glyph glyph-name="iotadieresis" unicode="&#x3ca;" 
d="M14 1642h133q25 0 35.5 -12t10.5 -37v-132q0 -26 -11.5 -36t-34.5 -10h-133q-25 0 -36.5 10t-11.5 35v133q0 49 48 49zM401 1642h133q25 0 35.5 -12t10.5 -37v-132q0 -26 -11.5 -36t-34.5 -10h-133q-25 0 -36.5 10t-11.5 35v133q0 49 48 49zM147 1216q11 10 27 10h204
q17 0 27 -10.5t10 -28.5v-1148q0 -39 -37 -39h-204q-38 0 -38 39v1148q0 19 11 29z" />
    <glyph glyph-name="upsilondieresis" unicode="&#x3cb;" horiz-adv-x="1397" 
d="M441 1623h133q25 0 35.5 -12t10.5 -37v-132q0 -26 -11.5 -36t-34.5 -10h-133q-25 0 -36.5 10t-11.5 35v133q0 49 48 49zM828 1623h133q25 0 35.5 -12t10.5 -37v-132q0 -26 -11.5 -36t-34.5 -10h-133q-25 0 -36.5 10t-11.5 35v133q0 49 48 49zM458 372.5
q37 -61.5 97 -94.5t127 -36h24q67 3 125.5 36t94 94.5t35.5 143.5v669q0 41 40 41h195q19 0 28.5 -11.5t9.5 -29.5v-684q0 -145 -69.5 -263.5t-192 -186.5t-274.5 -68h-8q-126 0 -250.5 53t-208 168t-83.5 290v691q0 41 39 41h196q38 0 38 -41v-669q0 -82 37 -143.5z" />
    <glyph glyph-name="omicrontonos" unicode="&#x3cc;" horiz-adv-x="1434" 
d="M640.5 1653q9.5 10 27.5 10h129q19 0 27 -7.5t8 -22.5l-1 -10l-26 -244q-3 -35 -32 -35h-84q-16 0 -21.5 9.5t-8.5 28.5l-26 241q-2 20 7.5 30zM172.5 924.5q84.5 144.5 229 229t315.5 84.5q172 0 318 -84.5t232 -229t86 -315.5t-86 -316t-232 -230t-317 -85t-315.5 85
t-229.5 230t-85 316t84.5 315.5zM407.5 419.5q45.5 -86.5 126.5 -137t184 -50.5q104 0 186.5 51t128.5 137.5t46 188.5t-46.5 187.5t-128.5 136t-186 50.5q-102 0 -183.5 -50t-127 -135.5t-45.5 -188.5t45.5 -189.5z" />
    <glyph glyph-name="upsilontonos" unicode="&#x3cd;" horiz-adv-x="1397" 
d="M601.5 1671q9.5 10 27.5 10h129q19 0 27 -7.5t8 -22.5l-1 -10l-26 -244q-3 -35 -32 -35h-84q-16 0 -21.5 9.5t-8.5 28.5l-26 241q-2 20 7.5 30zM458 372.5q37 -61.5 97 -94.5t127 -36h24q67 3 125.5 36t94 94.5t35.5 143.5v669q0 41 40 41h195q19 0 28.5 -11.5t9.5 -29.5
v-684q0 -145 -69.5 -263.5t-192 -186.5t-274.5 -68h-8q-126 0 -250.5 53t-208 168t-83.5 290v691q0 41 39 41h196q38 0 38 -41v-669q0 -82 37 -143.5z" />
    <glyph glyph-name="omegatonos" unicode="&#x3ce;" horiz-adv-x="1663" 
d="M738.5 1566q9.5 10 27.5 10h129q19 0 27 -7.5t8 -22.5l-1 -10l-26 -244q-3 -35 -32 -35h-84q-16 0 -21.5 9.5t-8.5 28.5l-26 241q-2 20 7.5 30zM1497 204q-56 -101 -152.5 -161.5t-211.5 -60.5q-88 0 -166.5 34.5t-135.5 94.5q-56 -60 -134.5 -94.5t-165.5 -34.5
q-131 0 -226 61t-144.5 162t-49.5 221v282q0 82 9 154t40 150.5t93 148.5q20 22 32 31t22 9q6 0 14 -4t17 -10l113 -90q20 -20 20 -38q0 -10 -7 -22q-48 -72 -67.5 -141.5t-19.5 -181.5v-300q0 -41 19.5 -79.5t55.5 -62.5t83 -24q46 0 84.5 24.5t60 63.5t21.5 82v320
q0 25 13.5 37t29.5 12h181q21 0 31 -14.5t10 -32.5v-322q0 -43 22 -82t60 -63.5t85 -24.5t82 24t53.5 63.5t18.5 82.5v291q0 103 -20 170.5t-68 153.5q-11 20 -11 31q0 9 5.5 17.5t19.5 20.5l102 84q11 8 18.5 12t15.5 4q16 0 36 -17.5t51 -61.5q60 -85 88.5 -180.5
t28.5 -217.5v-304q0 -116 -56 -217z" />
    <glyph glyph-name="uni03D0" unicode="&#x3d0;" horiz-adv-x="1290" 
d="M381.5 34.5q-116.5 53.5 -181 153.5t-64.5 236v694q0 125 62.5 231.5t176.5 169.5t261 63q123 0 224 -53t159.5 -146.5t58.5 -211.5q0 -93 -39.5 -165t-111.5 -115q126 -59 197 -167.5t71 -232.5q0 -171 -77 -286t-200.5 -169.5t-264.5 -54.5q-155 0 -271.5 53.5z
M780 262.5q57 35.5 91.5 95t34.5 127.5q0 83 -36.5 139t-97.5 83t-136 27q-20 0 -32.5 11t-11.5 30l1 162q1 18 15.5 28t38.5 10q44 0 83 18t63 52t24 81q0 96 -50 153.5t-151 57.5q-94 0 -140 -75.5t-46 -184.5v-630q0 -57 23.5 -107t75 -81.5t130.5 -31.5q64 0 121 35.5z
" />
    <glyph glyph-name="uni03D1" unicode="&#x3d1;" horiz-adv-x="1100" 
d="M126 445q15 9 39 9h147q20 0 28.5 -6.5t10 -15.5t1.5 -28q0 -45 18.5 -87t54.5 -69t85 -27q50 0 83.5 23t50 60t16.5 77l-1 380h-143q-109 0 -202.5 55t-149 149t-55.5 204q0 112 55.5 206.5t149.5 150t205 55.5q116 0 210 -48.5t147.5 -134t53.5 -192.5v-191h85
q18 0 29 -8.5t11 -26.5v-183q0 -20 -10.5 -27.5t-29.5 -7.5h-85v-370q0 -122 -54.5 -214t-147 -141.5t-204.5 -49.5q-113 0 -207.5 55.5t-150 151.5t-55.5 214q0 28 15 37zM618.5 1296.5q-41.5 42.5 -105.5 42.5q-43 0 -77.5 -21t-54 -57t-19.5 -80q0 -47 22.5 -85t59.5 -60
t80 -22h136v174q0 66 -41.5 108.5z" />
    <glyph glyph-name="uni03F0" unicode="&#x3f0;" horiz-adv-x="1229" 
d="M69 1173q-9 14 -9 26t9 19.5t25 7.5h220q19 0 29 -8t22 -27l236 -371l236 371q12 19 22 27t29 8h220q16 0 25.5 -7.5t9.5 -19.5q0 -13 -10 -26l-375 -546l388 -551q14 -19 14 -39q0 -16 -10.5 -26.5t-31.5 -10.5h-229q-33 0 -52 34l-236 392l-236 -392q-21 -34 -52 -34
h-229q-21 0 -31.5 10.5t-10.5 26.5q0 20 14 39l388 550z" />
    <glyph glyph-name="uni0401" unicode="&#x401;" horiz-adv-x="1263" 
d="M436 1798h133q25 0 35.5 -12t10.5 -37v-132q0 -26 -11.5 -36t-34.5 -10h-133q-25 0 -36.5 10t-11.5 35v133q0 49 48 49zM823 1798h133q25 0 35.5 -12t10.5 -37v-132q0 -26 -11.5 -36t-34.5 -10h-133q-25 0 -36.5 10t-11.5 35v133q0 49 48 49zM193 1425h938q39 0 39 -38
v-186q0 -38 -39 -38h-695v-291h530q43 0 43 -39v-182q0 -38 -43 -38h-530v-352h713q40 0 40 -38v-185q0 -38 -40 -38h-956q-37 0 -37 38v1349q0 38 37 38z" />
    <glyph glyph-name="uni0402" unicode="&#x402;" horiz-adv-x="1528" 
d="M1128.5 620q-27.5 50 -70 72.5t-90.5 22.5q-54 0 -100.5 -29t-74 -79t-27.5 -112v-469q0 -9 -7.5 -18t-20.5 -9h-226q-9 0 -17.5 8t-8.5 19v1157h-387q-10 0 -18.5 7t-8.5 20v188q0 10 7.5 19t19.5 9h1057q13 0 20.5 -9t7.5 -19v-188q0 -13 -9 -20t-19 -7h-387v-345
q93 118 233 118q133 0 230.5 -54.5t149.5 -157t52 -245.5v-210q0 -140 -66 -225t-157 -120t-173 -35q-23 0 -36 8t-13 28v155q0 14 10 24.5t27 10.5q130 0 130 139v218q0 78 -27.5 128z" />
    <glyph glyph-name="uni0403" unicode="&#x403;" horiz-adv-x="1114" 
d="M812 1587.5q-10 -6.5 -29 -6.5h-139q-12 0 -22 7.5t-10 21.5q0 9 4 18l88 217q8 21 19 29t31 8h156q13 0 21.5 -9t8.5 -23q0 -10 -4 -18l-104 -214q-10 -24 -20 -30.5zM440 36q0 -17 -11 -27t-27 -10h-205q-18 0 -28 10.5t-10 26.5v1351q0 39 38 39h856q19 0 28.5 -11.5
t9.5 -29.5v-179q0 -18 -11 -28.5t-27 -10.5h-613v-1131z" />
    <glyph glyph-name="uni0404" unicode="&#x404;" horiz-adv-x="1334" 
d="M965.5 820.5q10.5 -11.5 10.5 -26.5v-154q0 -14 -10.5 -27t-27.5 -13h-548q20 -99 81 -178.5t152 -125t196 -45.5q79 0 151 25.5t133 72.5q16 10 26 10t17.5 -6t17.5 -19l115 -147q9 -10 9 -23q0 -20 -29 -41q-100 -68 -206 -105.5t-229 -37.5q-199 0 -367 98.5t-266 266
t-98 366.5t98 368t266 268t367 99q120 0 228 -35t199 -104q32 -24 32 -42q0 -12 -8 -21l-124 -157q-15 -17 -27 -17t-24 11q-63 43 -130 69t-151 26q-119 0 -213.5 -54t-150 -134t-63.5 -156h546q17 0 27.5 -11.5z" />
    <glyph glyph-name="uni0405" unicode="&#x405;" horiz-adv-x="1267" 
d="M107.5 241.5q-6.5 10.5 -6.5 20.5q0 15 15 29l129 126q12 11 25 11q17 0 41 -21q77 -74 156 -119.5t177 -45.5q73 0 128 26t84.5 69t29.5 92q0 56 -42 93.5t-95 57t-132 40.5q-161 48 -265.5 107t-158 139t-53.5 188q0 117 65.5 207.5t183 140.5t270.5 50
q120 0 238 -57.5t207 -148.5q17 -19 17 -36q0 -18 -18 -38l-106 -108q-13 -12 -26 -12q-11 0 -21.5 6t-25.5 18q-68 57 -134 94.5t-140 37.5q-93 0 -157.5 -34.5t-64.5 -123.5q0 -50 33.5 -82t88 -52.5t158.5 -48.5q149 -44 250.5 -96.5t163 -138t61.5 -212.5
q0 -128 -74 -228t-196.5 -155t-262.5 -55q-147 0 -287 64t-238 172q-11 13 -17.5 23.5z" />
    <glyph glyph-name="uni0406" unicode="&#x406;" 
d="M194 1425h203q38 0 38 -40v-1346q0 -39 -38 -39h-203q-38 0 -38 39v1346q0 40 38 40z" />
    <glyph glyph-name="uni0407" unicode="&#x407;" 
d="M54 1787h133q25 0 35.5 -12t10.5 -37v-132q0 -26 -11.5 -36t-34.5 -10h-133q-25 0 -36.5 10t-11.5 35v133q0 49 48 49zM441 1787h133q25 0 35.5 -12t10.5 -37v-132q0 -26 -11.5 -36t-34.5 -10h-133q-25 0 -36.5 10t-11.5 35v133q0 49 48 49zM194 1425h203q38 0 38 -40
v-1346q0 -39 -38 -39h-203q-38 0 -38 39v1346q0 40 38 40z" />
    <glyph glyph-name="uni0408" unicode="&#x408;" horiz-adv-x="684" 
d="M259 1418q12 9 25 9h199q24 0 34 -10.5t10 -35.5v-1297q0 -59 -6 -113q-16 -95 -76 -175t-150.5 -127t-193.5 -47q-87 0 -175 36t-141 103q-24 30 -24 50q0 14 10 24l119 111q16 15 30 15q9 0 17 -5t15 -11t10 -9q28 -24 56 -37t68 -13q43 0 80.5 21t59 56t21.5 75v1350
q0 21 12 30z" />
    </font>
</defs>
</svg>
